<svg width="242" height="320" viewBox="0 0 242 320" fill="none" xmlns="http://www.w3.org/2000/svg">
<path fill-rule="evenodd" clip-rule="evenodd" d="M137.693 0.802956C135.182 1.21762 130.882 1.64221 128.137 1.7465C121.572 1.9948 116.818 4.75342 108.436 13.1791C102.283 19.3643 93.5633 31.4069 91.3085 36.8339C90.4111 38.9941 89.6614 39.4883 86.5939 39.9476C83.8534 40.3573 82.5135 41.0989 81.2035 42.933C79.2725 45.6362 72.3305 60.1361 70.0425 66.2427C68.823 69.4988 67.8483 70.5648 64.2246 72.6042C46.0344 82.8383 30.2701 103.84 24.8282 125.089C18.8974 148.246 24.7485 179.36 38.9563 200.218C42.5194 205.45 42.5402 205.523 43.1977 215.247C43.9341 226.135 46.3109 238.983 48.4021 243.376C49.7669 246.244 52.563 248.143 55.4221 248.143C56.7388 248.143 56.9904 249.225 57.4934 257.041C58.6441 274.929 62.3002 293.431 66.2369 301.285C68.4485 305.698 72.6999 309.391 75.5699 309.391C76.4258 309.391 78.532 310.319 80.2504 311.452C84.5906 314.315 96.605 318.224 104.693 319.403C109.335 320.079 114.87 320.178 122.296 319.715C128.253 319.344 136.573 319.133 140.786 319.246C156.841 319.677 159.271 315.996 175.434 266.766C180.217 252.199 185.11 237.053 186.308 233.109C188.216 226.827 188.76 225.87 190.693 225.389C194.245 224.505 198.241 221.683 199.57 219.121C201.054 216.26 205.133 200.109 206.977 189.792C210.021 172.765 209.642 173.778 213.079 173.493C215.645 173.28 216.37 172.77 217.556 170.342C218.407 168.6 218.987 165.388 219.011 162.283C219.051 157.153 219.033 157.114 216.146 155.911C212.82 154.526 212.881 154.973 214.015 140.298C214.755 130.731 214.141 125.869 211.995 124.304C210.775 123.415 210.881 121.85 213.19 106.487C217.231 79.6071 219.882 57.092 219.882 49.6479C219.882 43.1557 219.742 42.6144 217.492 40.3714C216.178 39.0612 213.455 37.5755 211.44 37.0698L207.778 36.1511L206.714 29.3766C204.816 17.2935 201.084 12.267 194.002 12.2604C192.018 12.2579 190.133 11.5751 188.606 10.3046C183.291 5.88236 174.231 3.01449 159.443 1.0736C149.14 -0.278812 144.585 -0.335918 137.693 0.802956ZM164.674 4.46208C174.778 6.10087 181.873 8.54829 186.311 11.9252C188.863 13.8677 190.895 14.7401 192.869 14.7401C195.77 14.7401 199.957 16.2026 199.957 17.2165C199.957 17.5211 199.039 18.261 197.917 18.8594C193.873 21.0171 186.807 32.8553 182.096 45.3639C180.715 49.0296 178.804 52.4189 177.427 53.6406C176.144 54.7786 174.52 57.1069 173.817 58.8135C172.349 62.3775 170.401 62.7863 165.27 60.6054C163.353 59.791 157.778 59.0155 150.561 58.5603C135.188 57.5894 118.266 55.56 109.091 53.5851C105.003 52.7053 99.7506 51.9853 97.4195 51.9853C91.6422 51.9853 89.9677 50.6577 90.6277 46.6021C92.3993 35.719 108.974 13.1849 119.904 6.7986C122.87 5.06628 125.077 4.47615 129.285 4.29406C132.311 4.16247 136.842 3.69649 139.354 3.25948C144.737 2.32173 154.274 2.77529 164.674 4.46208ZM123.995 11.4294C123.713 11.8846 123.878 12.2571 124.361 12.2571C124.845 12.2571 125.241 11.8846 125.241 11.4294C125.241 10.9742 125.076 10.6017 124.874 10.6017C124.673 10.6017 124.278 10.9742 123.995 11.4294ZM121.643 13.6368C121.339 13.9397 121.09 14.5729 121.09 15.0438C121.09 15.562 121.477 15.5131 122.072 14.9197C122.612 14.3809 122.861 13.7477 122.626 13.5127C122.39 13.2776 121.947 13.3331 121.643 13.6368ZM119.014 17.2231C118.732 17.6783 118.897 18.0508 119.38 18.0508C119.863 18.0508 120.259 17.6783 120.259 17.2231C120.259 16.7679 120.095 16.3954 119.893 16.3954C119.692 16.3954 119.296 16.7679 119.014 17.2231ZM185.429 17.2231C185.147 17.6783 185.289 18.0508 185.746 18.0508C186.203 18.0508 186.807 17.6783 187.089 17.2231C187.372 16.7679 187.229 16.3954 186.772 16.3954C186.316 16.3954 185.711 16.7679 185.429 17.2231ZM182.938 19.7061C182.656 20.1613 182.821 20.5338 183.304 20.5338C183.788 20.5338 184.184 20.1613 184.184 19.7061C184.184 19.2509 184.019 18.8784 183.817 18.8784C183.616 18.8784 183.221 19.2509 182.938 19.7061ZM116.524 20.5338C116.241 20.989 116.407 21.3615 116.89 21.3615C117.373 21.3615 117.769 20.989 117.769 20.5338C117.769 20.0786 117.605 19.7061 117.403 19.7061C117.201 19.7061 116.806 20.0786 116.524 20.5338ZM202.404 22.1072C206.231 29.2359 208.455 74.8025 206.711 110.336L206.183 121.096L203.013 114.474C201.27 110.833 198.773 106.12 197.467 104.001C195.988 101.605 195.232 99.4157 195.465 98.2073C195.79 96.5263 195.745 96.4833 195.128 97.8903C194.457 99.4199 194.327 99.3793 192.896 97.2017C191.538 95.1367 191.369 92.8316 191.308 75.6343C191.233 54.1662 191.187 53.9824 185.736 53.1134C183.969 52.832 182.523 52.2907 182.523 51.9099C182.523 49.5925 191.566 29.6382 192.617 29.6382C193.001 29.6382 193.316 29.1465 193.316 28.5456C193.316 26.9896 199.03 20.5338 200.408 20.5338C201.041 20.5338 201.94 21.2423 202.404 22.1072ZM115.002 22.7412C114.697 23.0441 114.448 23.6773 114.448 24.1482C114.448 24.6663 114.835 24.6175 115.43 24.0241C115.971 23.4853 116.22 22.8521 115.984 22.617C115.748 22.3811 115.306 22.4374 115.002 22.7412ZM178.01 26.085C177.56 27.2644 177.655 27.3596 178.475 26.5485C179.043 25.9865 179.298 25.3185 179.042 25.0645C178.787 24.8095 178.323 25.2689 178.01 26.085ZM112.426 26.9126C111.976 28.0921 112.071 28.1872 112.891 27.3761C113.459 26.8141 113.713 26.1462 113.458 25.8921C113.202 25.6372 112.738 26.0966 112.426 26.9126ZM175.882 28.8593C175.882 29.341 176.255 29.5057 176.712 29.2243C177.169 28.9429 177.542 28.5489 177.542 28.3478C177.542 28.1467 177.169 27.9828 176.712 27.9828C176.255 27.9828 175.882 28.3776 175.882 28.8593ZM110.678 29.6936C110.377 30.1786 110.309 30.7539 110.526 30.9707C110.744 31.1876 111.143 30.7903 111.414 30.0876C111.975 28.6292 111.497 28.3726 110.678 29.6936ZM173.945 31.8456C173.64 32.1485 173.391 32.7816 173.391 33.2526C173.391 33.7707 173.778 33.7219 174.373 33.1284C174.914 32.5896 175.163 31.9565 174.927 31.7214C174.691 31.4855 174.249 31.5418 173.945 31.8456ZM193.015 32.535C193.278 33.2178 193.64 33.7765 193.82 33.7765C193.999 33.7765 194.146 33.2178 194.146 32.535C194.146 31.8522 193.784 31.2935 193.341 31.2935C192.9 31.2935 192.753 31.8522 193.015 32.535ZM172.112 35.4873C171.811 35.9723 171.742 36.5475 171.96 36.7644C172.178 36.9812 172.577 36.584 172.847 35.8813C173.409 34.4229 172.93 34.1663 172.112 35.4873ZM170.136 39.2251C170.176 40.1893 170.373 40.3855 170.638 39.7258C170.877 39.1282 170.848 38.4139 170.572 38.1392C170.296 37.8644 170.1 38.3527 170.136 39.2251ZM194.211 40.0527C194.251 41.017 194.448 41.2131 194.713 40.5535C194.953 39.9559 194.923 39.2416 194.647 38.9668C194.372 38.692 194.176 39.1804 194.211 40.0527ZM215.448 42.1774C217.104 43.7276 217.391 44.8036 217.391 49.4443C217.391 58.0355 210.59 111.245 209.346 112.389C209.089 112.625 209.152 109.281 209.486 104.956C209.82 100.632 209.982 88.3407 209.847 77.643C209.711 66.9454 209.579 55.1196 209.552 51.3645C209.526 47.6094 209.224 44.5362 208.882 44.5362C208.539 44.5362 208.259 43.2583 208.259 41.6973C208.259 38.9039 208.301 38.87 210.882 39.6083C212.325 40.0205 214.38 41.1767 215.448 42.1774ZM88.2268 44.7431C87.8865 46.2222 87.6548 48.178 87.7113 49.0884C87.7686 49.9988 86.6777 53.7234 85.2888 57.3651L82.7634 63.9865L77.9641 65.8487C75.3241 66.8734 72.9465 67.711 72.6792 67.711C72.0167 67.711 73.9136 63.2217 79.211 52.2534C83.6284 43.1052 83.8343 42.8734 88.1554 42.1658C88.5348 42.1037 88.5664 43.2641 88.2268 44.7431ZM103.721 44.1911C103.761 45.1553 103.958 45.3515 104.223 44.6918C104.463 44.0942 104.433 43.38 104.157 43.1052C103.882 42.8304 103.686 43.3187 103.721 44.1911ZM195.042 47.5018C195.081 48.466 195.278 48.6622 195.543 48.0025C195.783 47.4049 195.753 46.6906 195.477 46.4159C195.202 46.1411 195.006 46.6294 195.042 47.5018ZM165.47 49.5577C165.169 50.0427 165.101 50.6179 165.319 50.8348C165.536 51.0516 165.935 50.6544 166.206 49.9517C166.767 48.4933 166.289 48.2367 165.47 49.5577ZM213.306 49.9848C213.345 50.949 213.542 51.1452 213.807 50.4855C214.047 49.8879 214.017 49.1737 213.741 48.8989C213.466 48.6241 213.27 49.1124 213.306 49.9848ZM195.042 51.6401C195.081 52.6043 195.278 52.8005 195.543 52.1409C195.783 51.5433 195.753 50.829 195.477 50.5542C195.202 50.2794 195.006 50.7677 195.042 51.6401ZM164.325 53.2954C164.365 54.2597 164.561 54.4558 164.826 53.7962C165.066 53.1986 165.036 52.4843 164.761 52.2095C164.485 51.9348 164.289 52.4231 164.325 53.2954ZM92.0282 54.2613C92.015 56.0731 90.0582 61.5871 89.243 62.1118C87.3136 63.3525 86.0924 62.8012 86.6802 60.9547C88.1463 56.3479 89.6714 53.6406 90.7987 53.6406C91.4778 53.6406 92.0307 53.9203 92.0282 54.2613ZM108.507 56.045C112.916 56.9115 118.018 57.9246 119.844 58.2954C122.41 58.816 120.332 59.0916 110.712 59.5079C103.863 59.8043 97.0749 60.3224 95.6271 60.6584L92.9938 61.2709L93.8596 57.8692C94.6658 54.705 94.9264 54.4683 97.6079 54.4683C99.1927 54.4683 104.097 55.1776 108.507 56.045ZM185.844 56.1236C185.844 56.5788 185.511 56.9513 185.103 56.9513C184.697 56.9513 184.108 57.9643 183.797 59.2034C183.02 62.2914 180.848 79.9886 180.928 82.5776L180.994 84.6782L181.693 82.609C182.077 81.471 183.204 76.0001 184.197 70.4522C185.189 64.9035 186.489 59.6991 187.085 58.8864C188.036 57.5894 188.244 58.0107 188.786 62.3344C189.126 65.0434 189.15 73.4881 188.839 81.1002L188.276 94.9405L191.939 99.9016C196.489 106.064 202.746 118.641 204.541 125.234C205.284 127.965 206.101 134.958 206.356 140.773C206.751 149.746 206.619 151.566 205.491 152.809C204.761 153.614 203.66 156.23 203.046 158.621C201.998 162.706 201.952 162.247 202.292 150.98C202.701 137.425 201.677 128.565 198.552 118.633C194.265 105.001 185.045 89.9 175.943 81.6043L171.439 77.499L173.354 69.5012C175.29 61.4141 177.012 57.0398 178.696 55.9291C180.08 55.0162 185.844 55.1734 185.844 56.1236ZM149.726 61.0896C156.607 61.5515 162.727 62.4007 164.5 63.1398C166.164 63.8325 168.472 64.4003 169.629 64.4003C172.117 64.4003 172.064 63.979 170.401 70.5805L169.071 75.8594L164.541 72.97C155.85 67.4279 144.268 63.0934 131.519 60.6145L125.656 59.4748L131.817 59.887C135.206 60.1146 143.265 60.6551 149.726 61.0896ZM212.475 61.5721C212.515 62.5364 212.712 62.7326 212.977 62.0729C213.217 61.4753 213.187 60.761 212.911 60.4862C212.636 60.2115 212.44 60.6998 212.475 61.5721ZM130.532 63.2076C144.404 65.6261 158.132 71.1425 167.689 78.1363C177.76 85.5067 188.665 99.9984 193.672 112.664C198.612 125.163 199.414 129.821 199.467 146.34C199.509 159.46 199.256 162.672 197.703 168.784C191.428 193.467 175.746 213.804 154.946 224.231C136.738 233.359 114.154 235.343 89.551 229.976C52.7473 221.947 29.5412 194.142 25.5388 153.276C22.2754 119.954 39.1123 89.0839 69.6183 72.4568C86.3747 63.3243 110.337 59.6859 130.532 63.2076ZM211.645 65.7105C211.685 66.6747 211.882 66.8709 212.147 66.2112C212.387 65.6137 212.357 64.8994 212.081 64.6246C211.805 64.3498 211.61 64.8381 211.645 65.7105ZM99.5049 69.0899C80.8133 72.0215 64.8779 79.9928 52.3936 92.6586C43.1686 102.016 37.8048 110.881 33.4297 123.993C31.2256 130.601 31.082 131.883 31.0712 145.098C31.062 156.921 31.3543 160.336 32.9051 166.477C37.0925 183.056 42.6921 193.278 53.3849 203.863C64.5973 214.962 75.3897 220.519 92.9273 224.223C105.415 226.861 123.517 226.852 133.958 224.203C164.57 216.435 186.139 191.988 190.859 159.709C192.239 150.278 191.477 133.676 189.288 125.463C179.695 89.4721 150.457 68.1927 111.226 68.6512C105.921 68.7133 100.646 68.9103 99.5049 69.0899ZM134.373 73.4376C143.466 75.7659 156.651 82.2027 163.105 87.465C175.523 97.5907 185.266 114.853 188.392 132.269C189.611 139.065 189.601 154.209 188.373 161.239C183.51 189.063 164.982 211.64 140.125 220.031C115.926 228.2 84.711 223.676 66.5532 209.366C53.6347 199.186 45.4824 186.371 40.7827 168.857C38.8832 161.779 38.6184 159.151 38.5561 146.753C38.4781 131.038 39.4926 126.142 45.2258 114.577C50.6403 103.653 60.7851 91.9021 70.4485 85.3569C79.1189 79.4854 91.4604 74.4797 101.58 72.73C104.32 72.2565 107.495 71.7061 108.637 71.5083C113.524 70.6583 127.655 71.7186 134.373 73.4376ZM81.5447 77.163C61.3397 86.6166 47.0381 102.574 39.5756 123.993C36.8684 131.764 36.8368 132.025 36.8941 146.34C36.9447 159.242 37.1888 161.705 39.1223 168.887C43.0972 183.651 49.1401 194.695 58.6955 204.66C64.5791 210.795 62.9818 209.965 55.628 203.066C46.4155 194.421 39.1497 181.658 35.5857 167.859C32.9773 157.757 32.3414 139.015 34.3089 130.198C39.6171 106.413 55.6637 87.4716 79.1729 77.24C87.625 73.5618 89.3625 73.5055 81.5447 77.163ZM121.194 84.5292C120.638 88.7711 119.97 93.0543 119.709 94.0475C119.311 95.5621 119.585 95.8518 121.408 95.8518C122.603 95.8518 123.58 95.6631 123.58 95.4321C123.58 95.202 124.146 91.2632 124.835 86.6795C125.526 82.0959 125.878 78.0014 125.617 77.5801C125.356 77.1597 124.482 76.8154 123.675 76.8154C122.449 76.8154 122.04 78.085 121.194 84.5292ZM194.976 78.4707C194.976 78.9259 195.372 79.2984 195.855 79.2984C196.338 79.2984 196.504 78.9259 196.221 78.4707C195.939 78.0155 195.544 77.643 195.342 77.643C195.14 77.643 194.976 78.0155 194.976 78.4707ZM85.6989 82.4145C84.5566 83.1553 89.2969 95.8584 90.7082 95.8394C93.4645 95.8005 93.5184 94.482 91.0188 88.1876C88.5681 82.0164 87.7254 81.1019 85.6989 82.4145ZM195.042 90.5406C195.081 91.5048 195.278 91.701 195.543 91.0414C195.783 90.4438 195.753 89.7295 195.477 89.4547C195.202 89.1799 195.006 89.6682 195.042 90.5406ZM155.127 94.8106C150.824 100.528 150.639 100.925 151.918 101.732C153.691 102.851 153.828 102.758 157.868 97.6304C160.743 93.9829 161.449 92.5535 160.73 91.8367C159.144 90.2559 158.164 90.7765 155.127 94.8106ZM57.667 104.617C56.992 106.369 57.1954 106.622 62.629 110.801C67.0497 114.202 67.376 114.319 68.4311 112.879C69.4423 111.501 69.0637 110.968 64.4969 107.327C58.9421 102.9 58.4091 102.689 57.667 104.617ZM154.176 110.518C154.014 110.902 145.549 118.719 135.363 127.889L116.844 144.563L112.196 142.969C109.639 142.091 107.462 141.374 107.358 141.374C107.255 141.374 106.989 142.064 106.768 142.908C106.466 144.059 105.248 144.589 101.897 145.029C94.6458 145.982 76.136 149.497 75.6105 150.022C74.2441 151.384 78.0114 152.229 90.817 153.429C102.785 154.553 105.178 155.008 106.745 156.46C108.094 157.712 108.873 157.935 109.651 157.293C110.461 156.624 113.118 159.289 120.877 168.553C135.253 185.715 139.902 190.722 140.718 189.923C141.11 189.539 136.976 180.508 131.506 169.797C123.662 154.439 121.824 150.221 122.736 149.659C123.706 149.061 123.711 148.736 122.765 147.599C121.804 146.446 121.873 146.035 123.233 144.773C124.109 143.96 132.203 136.673 141.222 128.58C150.24 120.485 157.618 113.593 157.618 113.263C157.618 112.262 154.491 109.769 154.176 110.518ZM155.957 113.093C155.957 113.472 153.062 116.356 149.523 119.503C145.985 122.65 135.371 132.21 125.938 140.748C116.505 149.286 108.566 156.272 108.297 156.272C106.876 156.272 108.302 154.269 112.58 150.254C125.103 138.502 154.467 112.405 155.168 112.405C155.602 112.405 155.957 112.715 155.957 113.093ZM174.429 122.052C169.343 124.126 168.582 124.987 169.943 127.124C170.467 127.95 171.857 127.634 176.156 125.711C179.202 124.348 181.693 123.063 181.693 122.854C181.693 121.896 180.631 119.858 180.151 119.895C179.858 119.917 177.283 120.887 174.429 122.052ZM210.774 126.918C211.576 127.882 211.713 131.106 211.34 140.277C210.757 154.619 209.146 158.521 209.161 145.554C209.167 140.877 208.918 134.484 208.608 131.349C208.035 125.554 208.628 124.341 210.774 126.918ZM43.0524 138.875C43.0524 140.678 43.553 140.848 52.7589 142.171C61.2293 143.388 62.1466 143.312 62.1466 141.389C62.1466 139.586 61.646 139.416 52.4401 138.094C43.9697 136.876 43.0524 136.952 43.0524 138.875ZM114.448 146.349C114.448 147.283 110.322 150.778 109.816 150.274C109.547 150.006 109.12 148.248 108.868 146.367L108.407 142.946L111.428 144.382C113.089 145.173 114.448 146.057 114.448 146.349ZM107.954 148.882C108.164 151.071 107.9 152.463 107.201 152.853C106.608 153.183 100.992 152.987 94.7197 152.417C88.4477 151.848 82.1956 151.339 80.8258 151.287C76.3602 151.119 80.8125 149.781 92.8634 147.671C108.441 144.942 107.571 144.871 107.954 148.882ZM130.588 170.641C134.952 179.001 138.51 186.171 138.494 186.575C138.46 187.405 138.532 187.486 124.482 170.673C118.813 163.89 113.587 157.655 112.869 156.816C111.65 155.395 111.812 155.081 115.269 152.141L118.976 148.99L120.814 152.215C121.825 153.99 126.224 162.281 130.588 170.641ZM167.924 155.667C167.651 156.523 167.576 157.371 167.755 157.55C167.935 157.729 171.957 158.457 176.693 159.166C183.638 160.206 185.433 160.25 185.976 159.398C187.174 157.516 186.717 156.273 184.806 156.217C183.778 156.187 179.672 155.701 175.679 155.136C168.81 154.165 168.393 154.194 167.924 155.667ZM212.825 157.627C214.195 158.261 214.627 158.586 213.785 158.349C212.945 158.113 211.263 157.732 210.05 157.502C208.426 157.195 208.598 157.374 210.7 158.184C213.885 159.409 215.027 161.203 212.686 161.303C211.814 161.34 211.607 161.546 212.202 161.786C213.759 162.412 213.451 164.534 211.787 164.644C210.403 164.735 210.403 164.759 211.787 165.119C214.484 165.821 213.265 167.031 209.712 167.176L206.183 167.32L209.712 167.637C214.827 168.097 214.044 169.514 208.674 169.514C206.163 169.514 204.108 169.142 204.108 168.687C204.108 168.232 204.575 167.829 205.146 167.794C205.976 167.742 205.976 167.645 205.146 167.311C203.003 166.449 204.096 164.549 206.806 164.424C209.317 164.309 209.346 164.276 207.221 163.956C205.637 163.717 204.938 163.121 204.938 162.011C204.938 161.13 205.277 160.41 205.69 160.41C206.105 160.41 206.247 159.665 206.009 158.755C205.757 157.793 205.983 157.099 206.55 157.099C207.088 157.099 207.271 156.687 206.959 156.183C206.315 155.144 208.752 155.744 212.825 157.627ZM208.051 160.958C208.623 161.188 209.557 161.188 210.127 160.958C210.698 160.729 210.231 160.541 209.089 160.541C207.948 160.541 207.481 160.729 208.051 160.958ZM215.805 167.638C215.082 168.875 214.949 168.718 214.937 166.618C214.929 165.252 215.198 163.203 215.535 162.065C216.086 160.199 216.171 160.299 216.402 163.086C216.543 164.785 216.275 166.834 215.805 167.638ZM202.434 173.965C203.288 174.823 199.201 186.786 195.614 193.931C189.988 205.132 178.2 218.086 167.814 224.478C163.587 227.079 162.724 227.991 162.772 229.809C162.841 232.493 157.005 254.042 155.913 255.137C154.752 256.299 154.996 251.636 156.68 240.487C158.22 230.296 157.701 227.718 155.597 235.107C153.581 242.189 152.413 250.499 152.828 254.803C153.139 258.028 152.952 258.886 151.889 259.116C149.792 259.566 144.991 258.304 144.226 257.1C143.409 255.816 143.412 236.234 144.229 233.322C144.592 232.028 145.803 230.979 147.684 230.33C167.393 223.527 186.405 204.943 195.394 183.694C196.93 180.063 198.865 174.28 199.695 170.843L201.202 164.594L201.457 168.916C201.598 171.294 202.038 173.566 202.434 173.965ZM211.387 170.934C210.139 171.123 207.898 171.126 206.406 170.942C204.914 170.758 205.934 170.603 208.674 170.599C211.414 170.594 212.635 170.744 211.387 170.934ZM50.7316 173.109C46.3798 174.88 45.7953 175.602 47.0796 177.62C47.6134 178.459 48.9077 178.204 53.0852 176.435C56.0141 175.196 58.5129 174.115 58.6383 174.035C58.7628 173.955 58.6291 173.278 58.3419 172.53C57.6736 170.793 56.1336 170.911 50.7316 173.109ZM206.966 175.93C206.796 176.726 205.313 184.211 203.671 192.563C199.083 215.882 197.684 219.419 191.863 222.411C190.314 223.208 189.995 223.152 189.995 222.083C189.995 219.828 197.525 196.101 199.931 190.777C201.204 187.959 203.106 182.973 204.156 179.696C205.207 176.42 206.339 173.906 206.67 174.11C207.001 174.315 207.135 175.133 206.966 175.93ZM161.06 184.623C159.467 186.21 159.995 187.188 164.077 190.206C166.232 191.799 168.531 193.61 169.184 194.229C170.191 195.183 170.537 195.132 171.44 193.901C172.796 192.052 172.636 191.825 166.834 187.375C163.209 184.593 161.774 183.91 161.06 184.623ZM70.133 200.925C66.3556 205.718 66.2992 205.875 68.0061 206.785C68.9707 207.3 69.8457 207.598 69.9503 207.447C70.0541 207.297 71.5169 205.459 73.1997 203.364C76.552 199.19 76.8151 198.317 75.1373 196.929C74.2507 196.196 73.1955 197.039 70.133 200.925ZM100.769 211.068C99.9474 215.754 99.1188 220.006 98.9271 220.517C98.7353 221.029 99.5057 221.623 100.639 221.839C102.639 222.22 102.739 222.009 104.029 214.703C104.761 210.562 105.544 206.336 105.769 205.311C105.994 204.287 105.828 203.449 105.4 203.449C104.972 203.449 104.091 203.246 103.442 202.998C102.523 202.646 101.933 204.426 100.769 211.068ZM134.718 203.745C134.386 204.608 137.9 215.116 139.002 216.552C139.117 216.702 139.966 216.423 140.886 215.932C142.537 215.051 142.524 214.948 140.025 208.83C137.618 202.937 135.727 201.125 134.718 203.745ZM185.848 225.919C176.031 257.997 162.896 296.531 159.226 304.02C155.923 310.76 152.876 314.357 150.468 314.357C148.69 314.357 146.589 310.428 145.436 304.945C144.302 299.55 143.994 279.541 144.872 268.296L145.398 261.551L150.345 261.664C154.509 261.759 155.525 261.491 156.759 259.971C158.045 258.387 164.184 238.27 165.592 231.025C165.989 228.985 167.16 227.701 170.785 225.333C173.361 223.652 176.306 221.515 177.331 220.584C178.357 219.654 179.444 219.14 179.748 219.442C180.051 219.745 180.707 219.3 181.204 218.453C182.507 216.235 191.185 206.015 191.499 206.328C191.644 206.473 189.102 215.289 185.848 225.919ZM56.7089 228.693C57.4013 240.125 57.4054 244.869 56.723 245.549C55.7451 246.525 51.6863 244.199 50.6668 242.079C49.0239 238.661 46.4014 224.791 45.7995 216.336L45.2715 208.916L50.6635 213.425L56.0564 217.933L56.7089 228.693ZM61.3164 227.491C61.3164 234.199 60.2463 236.807 59.3423 232.301C59.0583 230.885 58.8259 227.551 58.8259 224.891C58.8259 220.932 59.0517 220.141 60.0712 220.53C61.0317 220.898 61.3164 222.491 61.3164 227.491ZM70.5697 226.177C77.5947 229.473 89.409 233.021 95.8828 233.779C99.8801 234.247 100.335 234.503 100.335 236.282C100.335 237.372 99.8237 238.459 99.1986 238.698C97.3605 239.401 74.0075 235.894 71.326 234.511C69.9753 233.814 67.7313 233.245 66.339 233.245H63.807V228.279C63.807 225.548 63.9548 223.313 64.1357 223.313C64.3167 223.313 67.2124 224.602 70.5697 226.177ZM177.923 225.851C177.622 226.336 177.554 226.912 177.771 227.129C177.989 227.345 178.388 226.948 178.659 226.245C179.22 224.787 178.742 224.53 177.923 225.851ZM141.153 238.233L140.876 244.054L138.238 243.56C136.788 243.29 134.549 243.466 133.263 243.953C131.52 244.614 129.621 244.542 125.8 243.671C122.981 243.029 116.515 241.873 111.43 241.1L102.184 239.698L102.782 237.506C103.293 235.63 103.789 235.338 106.215 235.479C116.7 236.088 137.634 234.408 139.216 232.83C140.8 231.251 141.404 232.937 141.153 238.233ZM175.947 233.728C175.987 234.692 176.184 234.888 176.449 234.228C176.689 233.631 176.659 232.916 176.383 232.642C176.108 232.367 175.912 232.855 175.947 233.728ZM70.4103 236.95C71.7145 237.622 80.7552 239.31 90.5015 240.702C110.205 243.514 127.019 246.268 128.912 246.992C129.595 247.253 131.496 247.025 133.137 246.484C134.779 245.945 137.005 245.724 138.086 245.994C139.83 246.431 140.117 247.117 140.635 252.074C140.956 255.147 141.448 258.034 141.729 258.489C142.01 258.944 142.245 269.745 142.252 282.491C142.262 302.913 142.443 306.127 143.774 309.546C144.606 311.68 145.819 313.868 146.471 314.406C148.896 316.413 147.49 316.91 139.976 316.701C135.753 316.583 127.793 316.806 122.288 317.196C115.284 317.691 110.199 317.601 105.356 316.895C97.138 315.698 85.5603 311.925 81.1279 309.001C79.3837 307.85 77.2136 306.908 76.3062 306.908C73.5658 306.908 68.9973 302.18 67.2581 297.547C63.2491 286.861 60.2106 266.987 60.1301 250.922C60.0778 240.525 60.248 239.023 61.6527 237.473C63.5139 235.419 67.0347 235.209 70.4103 236.95ZM173.457 241.177C173.497 242.141 173.693 242.337 173.958 241.677C174.198 241.08 174.168 240.365 173.893 240.091C173.617 239.816 173.421 240.304 173.457 241.177ZM171.369 248.728C170.919 249.908 171.014 250.003 171.834 249.192C172.402 248.63 172.657 247.962 172.401 247.708C172.145 247.453 171.681 247.912 171.369 248.728ZM71.3442 249.453C71.3841 250.418 71.5808 250.614 71.8457 249.954C72.0856 249.356 72.0557 248.642 71.7801 248.367C71.5045 248.093 71.3085 248.581 71.3442 249.453ZM70.4485 257.296C70.4485 257.778 70.822 257.943 71.2786 257.661C71.7352 257.38 72.1088 256.986 72.1088 256.785C72.1088 256.584 71.7352 256.42 71.2786 256.42C70.822 256.42 70.4485 256.815 70.4485 257.296ZM128.976 259.73C128.694 260.186 128.859 260.558 129.343 260.558C129.826 260.558 130.222 260.186 130.222 259.73C130.222 259.275 130.057 258.903 129.856 258.903C129.654 258.903 129.259 259.275 128.976 259.73ZM128.627 263.524C128.667 264.488 128.864 264.684 129.128 264.024C129.368 263.427 129.338 262.713 129.063 262.438C128.787 262.163 128.591 262.651 128.627 263.524ZM166.815 263.524C166.855 264.488 167.052 264.684 167.317 264.024C167.557 263.427 167.527 262.713 167.251 262.438C166.976 262.163 166.78 262.651 166.815 263.524ZM165.558 266.937C165.108 268.116 165.202 268.212 166.023 267.4C166.59 266.839 166.845 266.171 166.59 265.916C166.334 265.662 165.87 266.121 165.558 266.937ZM70.8635 268.835C71.1458 269.29 71.541 269.663 71.7427 269.663C71.9445 269.663 72.1088 269.29 72.1088 268.835C72.1088 268.38 71.7128 268.007 71.2297 268.007C70.7465 268.007 70.5813 268.38 70.8635 268.835ZM164.325 270.973C164.365 271.937 164.561 272.133 164.826 271.473C165.066 270.876 165.036 270.162 164.761 269.887C164.485 269.612 164.289 270.1 164.325 270.973ZM127.797 271.8C127.837 272.765 128.033 272.961 128.298 272.301C128.538 271.704 128.508 270.989 128.233 270.714C127.957 270.44 127.761 270.928 127.797 271.8ZM71.3442 272.628C71.3841 273.592 71.5808 273.788 71.8457 273.129C72.0856 272.531 72.0557 271.817 71.7801 271.542C71.5045 271.267 71.3085 271.756 71.3442 272.628ZM162.98 273.856C162.679 274.341 162.61 274.917 162.828 275.133C163.045 275.35 163.445 274.953 163.715 274.25C164.277 272.792 163.798 272.535 162.98 273.856ZM127.797 275.111C127.837 276.075 128.033 276.271 128.298 275.612C128.538 275.014 128.508 274.3 128.233 274.025C127.957 273.75 127.761 274.239 127.797 275.111ZM127.797 279.249C127.837 280.214 128.033 280.41 128.298 279.75C128.538 279.153 128.508 278.438 128.233 278.164C127.957 277.889 127.761 278.377 127.797 279.249ZM160.174 281.732C160.214 282.697 160.41 282.893 160.675 282.233C160.915 281.636 160.885 280.921 160.61 280.647C160.334 280.372 160.138 280.86 160.174 281.732ZM127.797 286.698C127.837 287.663 128.033 287.859 128.298 287.199C128.538 286.602 128.508 285.887 128.233 285.613C127.957 285.338 127.761 285.826 127.797 286.698ZM73.8348 291.664C73.8746 292.629 74.0714 292.825 74.3362 292.165C74.5761 291.568 74.5462 290.853 74.2706 290.579C73.995 290.304 73.7991 290.792 73.8348 291.664ZM153.532 295.803C153.572 296.767 153.769 296.963 154.034 296.304C154.274 295.706 154.244 294.992 153.968 294.717C153.693 294.442 153.497 294.93 153.532 295.803ZM75.4951 299.114C75.535 300.078 75.7317 300.274 75.9966 299.614C76.2365 299.017 76.2066 298.302 75.931 298.028C75.6554 297.753 75.4594 298.241 75.4951 299.114ZM149.784 302.527C149.334 303.706 149.429 303.801 150.249 302.99C150.817 302.428 151.072 301.76 150.816 301.506C150.56 301.251 150.096 301.711 149.784 302.527ZM131.117 305.735C131.157 306.699 131.354 306.895 131.619 306.236C131.859 305.638 131.829 304.924 131.553 304.649C131.278 304.374 131.082 304.863 131.117 305.735ZM131.882 309.293C131.882 309.748 132.256 310.351 132.712 310.632C133.169 310.914 133.542 310.771 133.542 310.316C133.542 309.861 133.169 309.258 132.712 308.977C132.256 308.695 131.882 308.838 131.882 309.293Z" fill="#2A7575"/>
<rect width="6.63096" height="315.697" rx="3.31548" transform="matrix(0.691541 -0.722337 0.724428 0.68935 0 54.5742)" fill="#2A7575"/>
<rect width="13.4324" height="315.697" rx="6.71621" transform="matrix(0.691541 -0.722337 0.724428 0.68935 4.01562 49.5889)" fill="#0C1717"/>
</svg>
