<svg width="21" height="12" viewBox="0 0 21 12" fill="none" xmlns="http://www.w3.org/2000/svg">
<path d="M10.5 0C5.72727 0 1.65136 2.4569 0 5.925C1.65136 9.3931 5.72727 11.85 10.5 11.85C15.2727 11.85 19.3486 9.3931 21 5.925C19.3486 2.4569 15.2727 0 10.5 0ZM10.5 9.875C7.86545 9.875 5.72727 8.1054 5.72727 5.925C5.72727 3.7446 7.86545 1.975 10.5 1.975C13.1345 1.975 15.2727 3.7446 15.2727 5.925C15.2727 8.1054 13.1345 9.875 10.5 9.875ZM10.5 3.555C8.91545 3.555 7.63636 4.6136 7.63636 5.925C7.63636 7.2364 8.91545 8.295 10.5 8.295C12.0845 8.295 13.3636 7.2364 13.3636 5.925C13.3636 4.6136 12.0845 3.555 10.5 3.555Z" fill="#DADDDD"/>
</svg>
