<svg width="21" height="15" viewBox="0 0 21 15" fill="none" xmlns="http://www.w3.org/2000/svg">
<path d="M10.4998 3.15789C13.1343 3.15789 15.2724 4.92632 15.2724 7.10526C15.2724 7.61842 15.1483 8.1 14.9288 8.55L17.716 10.8553C19.1573 9.86053 20.2932 8.57368 20.99 7.10526C19.3387 3.63947 15.2629 1.18421 10.4902 1.18421C9.15389 1.18421 7.87483 1.38158 6.69122 1.73684L8.75299 3.44211C9.29707 3.26053 9.87933 3.15789 10.4998 3.15789ZM0.954525 1.00263L3.13084 2.80263L3.56992 3.16579C1.98541 4.18421 0.744529 5.54211 0 7.10526C1.65133 10.5711 5.72715 13.0263 10.4998 13.0263C11.9793 13.0263 13.392 12.7895 14.6806 12.3632L15.0815 12.6947L17.8782 15L19.0905 13.9974L2.16677 0L0.954525 1.00263ZM6.23305 5.36842L7.71256 6.59211C7.66483 6.75789 7.6362 6.93158 7.6362 7.10526C7.6362 8.41579 8.91526 9.47368 10.4998 9.47368C10.7098 9.47368 10.9198 9.45 11.1202 9.41053L12.5997 10.6342C11.9602 10.8947 11.2538 11.0526 10.4998 11.0526C7.86528 11.0526 5.72715 9.28421 5.72715 7.10526C5.72715 6.48158 5.91805 5.89737 6.23305 5.36842ZM10.347 4.75263L13.3538 7.23947L13.3729 7.11316C13.3729 5.80263 12.0938 4.74474 10.5093 4.74474L10.347 4.75263Z" fill="#DADDDD"/>
</svg>
