<svg width="20" height="20" viewBox="0 0 20 20" fill="none" xmlns="http://www.w3.org/2000/svg">
<path fill-rule="evenodd" clip-rule="evenodd" d="M20 6.94922V16.2492C20 18.3203 18.3211 19.9992 16.25 19.9992H3.75C1.67893 19.9992 0 18.3203 0 16.2492V6.94922H20ZM16.875 7.57422H3.125C2.43464 7.57422 1.875 8.13386 1.875 8.82422V16.2492C1.875 17.2848 2.71447 18.1242 3.75 18.1242H16.25C17.2855 18.1242 18.125 17.2848 18.125 16.2492V8.82422C18.125 8.13386 17.5654 7.57422 16.875 7.57422Z" fill="#62666E"/>
<path fill-rule="evenodd" clip-rule="evenodd" d="M13.7946 0C14.3124 0 14.7321 0.419733 14.7321 0.9375L14.7312 1.95H16.25C18.3211 1.95 20 3.62893 20 5.7V7.5H0V5.7C0 3.62893 1.67893 1.95 3.75 1.95H5V0.9375C5 0.419733 5.41974 0 5.9375 0C6.45526 0 6.875 0.419733 6.875 0.9375V1.95H12.8562L12.8571 0.9375C12.8571 0.419733 13.2769 0 13.7946 0Z" fill="#62666E"/>
</svg>
