<svg width="24" height="24" viewBox="0 0 24 24" fill="none" xmlns="http://www.w3.org/2000/svg">
<g clip-path="url(#clip0_11394_59317)">
<path d="M19.001 14V17H22.001V19H19L19.001 22H17.001L17 19H14.001V17H17.001V14H19.001ZM20.244 4.75698C22.506 7.02498 22.584 10.637 20.48 12.992L19.06 11.574C20.391 10.05 20.321 7.65998 18.828 6.16998C17.325 4.67098 14.908 4.60698 13.338 6.01698L12.003 7.21498L10.667 6.01798C9.09201 4.60598 6.67601 4.66798 5.17301 6.17198C3.68301 7.66198 3.60801 10.047 4.98101 11.623L13.413 20.069L12.001 21.485L3.52101 12.993C1.41701 10.637 1.49601 7.01898 3.75701 4.75698C6.02201 2.49298 9.64501 2.41698 12.001 4.52898C14.35 2.41998 17.98 2.48998 20.243 4.75698H20.244Z" fill="#2A7575"/>
</g>
<defs>
<clipPath id="clip0_11394_59317">
<rect width="24" height="24" fill="white"/>
</clipPath>
</defs>
</svg>
