<svg width="38" height="38" viewBox="0 0 38 38" fill="none" xmlns="http://www.w3.org/2000/svg">
<path d="M28.562 21.4528C27.897 22.102 27.517 23.0362 27.612 24.0337C27.7545 25.7437 29.322 26.9945 31.032 26.9945H34.0404V28.8787C34.0404 32.1562 31.3645 34.832 28.087 34.832H9.91036C6.63286 34.832 3.95703 32.1562 3.95703 28.8787V18.2229C3.95703 14.9454 6.63286 12.2695 9.91036 12.2695H28.087C31.3645 12.2695 34.0404 14.9454 34.0404 18.2229V20.5029H30.842C29.9554 20.5029 29.1479 20.8512 28.562 21.4528Z" stroke="#2A7575" stroke-width="2" stroke-linecap="round" stroke-linejoin="round"/>
<path d="M3.95703 19.6486V12.4128C3.95703 10.5287 5.11286 8.85026 6.87036 8.18526L19.442 3.43526C21.4054 2.69109 23.5112 4.1478 23.5112 6.25364V12.2703" stroke="#2A7575" stroke-width="2" stroke-linecap="round" stroke-linejoin="round"/>
<path d="M35.7188 22.1188V25.3806C35.7188 26.2514 35.0221 26.9639 34.1354 26.9955H31.0321C29.3221 26.9955 27.7546 25.7447 27.6121 24.0347C27.5171 23.0372 27.8971 22.103 28.5621 21.4539C29.1479 20.8522 29.9554 20.5039 30.8421 20.5039H34.1354C35.0221 20.5356 35.7188 21.248 35.7188 22.1188Z" stroke="#2A7575" stroke-width="2" stroke-linecap="round" stroke-linejoin="round"/>
<path d="M11.082 19H22.1654" stroke="#2A7575" stroke-width="2" stroke-linecap="round" stroke-linejoin="round"/>
</svg>
