<svg width="19" height="18" viewBox="0 0 19 18" fill="none" xmlns="http://www.w3.org/2000/svg">
<g clip-path="url(#clip0_11101_58600)">
<path d="M9.23047 15.75C5.50222 15.75 2.48047 12.7283 2.48047 9C2.48047 5.27175 5.50222 2.25 9.23047 2.25C12.9587 2.25 15.9805 5.27175 15.9805 9C15.9805 12.7283 12.9587 15.75 9.23047 15.75Z" fill="#575C5B" stroke="#575C5B" stroke-width="1.25" stroke-linecap="round" stroke-linejoin="round"/>
<path d="M9.24969 6C8.815 6 8.4622 6.3528 8.46535 6.7875C8.46535 7.2222 8.81815 7.575 9.25284 7.575C9.68754 7.575 10.0403 7.2222 10.0403 6.7875C10.0403 6.3528 9.68754 6 9.24969 6Z" fill="white"/>
<path d="M9.23047 9C9.23047 9 9.23047 10.7441 9.23047 12.15V9Z" fill="white"/>
<path d="M9.23047 9C9.23047 9 9.23047 10.7441 9.23047 12.15" stroke="white" stroke-width="1.5" stroke-linecap="round" stroke-linejoin="round"/>
</g>
<defs>
<clipPath id="clip0_11101_58600">
<rect width="18" height="18" fill="white" transform="translate(0.230469)"/>
</clipPath>
</defs>
</svg>
