<svg width="25" height="24" viewBox="0 0 25 24" fill="none" xmlns="http://www.w3.org/2000/svg">
<path fill-rule="evenodd" clip-rule="evenodd" d="M5.23047 6C4.67818 6 4.23047 6.44772 4.23047 7V8.53552C5.422 9.22431 6.23047 10.5164 6.23047 12C6.23047 13.4836 5.422 14.7757 4.23047 15.4645V17C4.23047 17.5523 4.67818 18 5.23047 18H19.2305C19.7828 18 20.2305 17.5523 20.2305 17V15.4645C19.0389 14.7757 18.2305 13.4836 18.2305 12C18.2305 10.5164 19.0389 9.22431 20.2305 8.53552V7C20.2305 6.44772 19.7828 6 19.2305 6H5.23047ZM5.23047 4C3.57361 4 2.23047 5.34315 2.23047 7V9C2.23047 9.55228 2.70499 9.97928 3.18944 10.2445C3.80979 10.5841 4.23047 11.2429 4.23047 12C4.23047 12.7571 3.80979 13.4159 3.18944 13.7555C2.70499 14.0207 2.23047 14.4477 2.23047 15V17C2.23047 18.6569 3.57361 20 5.23047 20H19.2305C20.8873 20 22.2305 18.6569 22.2305 17V15C22.2305 14.4477 21.7559 14.0207 21.2715 13.7555C20.6511 13.4159 20.2305 12.7571 20.2305 12C20.2305 11.2429 20.6511 10.5841 21.2715 10.2445C21.7559 9.97928 22.2305 9.55228 22.2305 9V7C22.2305 5.34315 20.8873 4 19.2305 4H5.23047Z" fill="#4E4E4E"/>
<path fill-rule="evenodd" clip-rule="evenodd" d="M12.2304 11.1899C12.0048 11.4165 11.7441 11.6059 11.4588 11.7505C11.6047 12.0351 11.7042 12.3415 11.7535 12.6575C12.0693 12.6068 12.3915 12.6068 12.7073 12.6575C12.7566 12.3415 12.8561 12.0351 13.002 11.7505C12.7167 11.6059 12.4561 11.4165 12.2304 11.1899ZM13.175 8.71854C12.8637 7.82298 11.5971 7.82299 11.2858 8.71855L11.0482 9.40223C10.9109 9.7973 10.5422 10.0652 10.124 10.0737L9.40035 10.0884C8.45242 10.1078 8.06104 11.3123 8.81658 11.8851L9.39336 12.3224C9.72666 12.5751 9.86749 13.0085 9.74637 13.4088L9.53677 14.1016C9.26222 15.0091 10.2869 15.7536 11.0651 15.212L11.6592 14.7986C12.0025 14.5597 12.4583 14.5597 12.8016 14.7986L13.3957 15.212C14.174 15.7536 15.1986 15.0091 14.9241 14.1016L14.7145 13.4088C14.5933 13.0085 14.7342 12.5751 15.0675 12.3224L15.6442 11.8851C16.3998 11.3123 16.0084 10.1078 15.0605 10.0884L14.3368 10.0737C13.9186 10.0652 13.55 9.7973 13.4126 9.40223L13.175 8.71854Z" fill="#4E4E4E"/>
</svg>
