<svg width="25" height="24" viewBox="0 0 25 24" fill="none" xmlns="http://www.w3.org/2000/svg">
<path fill-rule="evenodd" clip-rule="evenodd" d="M16.9426 13.8056C17.7711 12.7721 18.2654 11.4639 18.2654 10.0348C18.2654 6.70186 15.5635 4 12.2306 4C8.89767 4 6.1958 6.70186 6.1958 10.0348C6.1958 11.4637 6.68996 12.7718 7.51833 13.8053L7.52429 13.8127C7.69967 14.0312 7.86204 14.2613 8.03073 14.4849C8.32372 14.8734 8.73687 15.4189 9.21691 16.0462C10.1114 17.2153 11.2289 18.6565 12.2313 19.8938C13.2368 18.6539 14.3568 17.2104 15.2531 16.0398C15.734 15.4117 16.1478 14.8657 16.4412 14.4769C16.6091 14.2545 16.7684 14.023 16.9426 13.8056ZM18.506 15.0589C18.506 15.0589 18.5043 15.0611 18.5031 15.0627C18.4519 15.1312 17.9816 15.7595 17.3002 16.6544C16.2893 17.9819 14.8137 19.8961 13.5521 21.4393C12.8619 22.2834 11.5995 22.2831 10.9098 21.4386C8.75341 18.7985 5.96456 15.0646 5.96456 15.0646L5.95806 15.0565C4.85537 13.681 4.1958 11.9349 4.1958 10.0348C4.1958 5.5973 7.7931 2 12.2306 2C16.6681 2 20.2654 5.5973 20.2654 10.0348C20.2654 11.217 20.01 12.3396 19.5515 13.3505C19.2741 13.962 18.9223 14.5326 18.5078 15.0507L18.5048 15.0543L18.5031 15.0565H18.5078L18.506 15.0589Z" fill="#4E4E4E"/>
<path fill-rule="evenodd" clip-rule="evenodd" d="M12.2305 11C12.7828 11 13.2305 10.5523 13.2305 10C13.2305 9.44771 12.7828 9 12.2305 9C11.6782 9 11.2305 9.44771 11.2305 10C11.2305 10.5523 11.6782 11 12.2305 11ZM15.2305 10C15.2305 11.6569 13.8873 13 12.2305 13C10.5736 13 9.23047 11.6569 9.23047 10C9.23047 8.34315 10.5736 7 12.2305 7C13.8873 7 15.2305 8.34315 15.2305 10Z" fill="#4E4E4E"/>
</svg>
