<svg width="25" height="24" viewBox="0 0 25 24" fill="none" xmlns="http://www.w3.org/2000/svg">
<path fill-rule="evenodd" clip-rule="evenodd" d="M7.23047 2C7.78275 2 8.23047 2.44772 8.23047 3V4H16.2305V3C16.2305 2.44772 16.6782 2 17.2305 2C17.7828 2 18.2305 2.44772 18.2305 3V4H19.2305C20.8873 4 22.2305 5.34315 22.2305 7V19C22.2305 20.6569 20.8873 22 19.2305 22H5.23047C3.57361 22 2.23047 20.6569 2.23047 19V7C2.23047 5.34315 3.57361 4 5.23047 4H6.23047V3C6.23047 2.44772 6.67818 2 7.23047 2ZM16.2305 6V7C16.2305 7.55228 16.6782 8 17.2305 8C17.7828 8 18.2305 7.55228 18.2305 7V6H19.2305C19.7828 6 20.2305 6.44771 20.2305 7V10H4.23047V7C4.23047 6.44772 4.67818 6 5.23047 6H6.23047V7C6.23047 7.55228 6.67818 8 7.23047 8C7.78275 8 8.23047 7.55228 8.23047 7V6H16.2305ZM4.23047 12V19C4.23047 19.5523 4.67818 20 5.23047 20H19.2305C19.7828 20 20.2305 19.5523 20.2305 19V12H4.23047Z" fill="#4E4E4E"/>
</svg>
