<svg width="26" height="26" viewBox="0 0 26 26" fill="none" xmlns="http://www.w3.org/2000/svg">
<path d="M13.0013 2.16663C10.1281 2.16663 7.37262 3.30799 5.34098 5.33964C3.30933 7.37128 2.16797 10.1268 2.16797 13C2.16797 15.8731 3.30933 18.6286 5.34098 20.6603C7.37262 22.6919 10.1281 23.8333 13.0013 23.8333C15.8745 23.8333 18.63 22.6919 20.6616 20.6603C22.6933 18.6286 23.8346 15.8731 23.8346 13C23.8346 10.1268 22.6933 7.37128 20.6616 5.33964C18.63 3.30799 15.8745 2.16663 13.0013 2.16663Z" fill="#3A559F"/>
<path d="M15.9077 13H14.0833V19.5H11.375V13H9.75V10.8333H11.375V9.52792C11.3761 7.62775 12.1653 6.5 14.404 6.5H16.25V8.66667H15.0112C14.1397 8.66667 14.0833 8.99167 14.0833 9.59996V10.8333H16.25L15.9077 13Z" fill="white"/>
</svg>
