<svg width="26" height="26" viewBox="0 0 26 26" fill="none" xmlns="http://www.w3.org/2000/svg">
<path d="M23.6239 10.8783H22.7513V10.8333H13.0013V15.1666H19.1238C18.2306 17.6892 15.8304 19.5 13.0013 19.5C9.41168 19.5 6.5013 16.5896 6.5013 13C6.5013 9.41033 9.41168 6.49996 13.0013 6.49996C14.6583 6.49996 16.1657 7.12504 17.3135 8.14608L20.3777 5.08188C18.4429 3.27867 15.8548 2.16663 13.0013 2.16663C7.01859 2.16663 2.16797 7.01725 2.16797 13C2.16797 18.9827 7.01859 23.8333 13.0013 23.8333C18.984 23.8333 23.8346 18.9827 23.8346 13C23.8346 12.2736 23.7599 11.5645 23.6239 10.8783Z" fill="#FFC107"/>
<path d="M3.41797 7.95758L6.97726 10.5679C7.94034 8.18346 10.2728 6.49996 13.0022 6.49996C14.6592 6.49996 16.1666 7.12504 17.3144 8.14608L20.3786 5.08188C18.4438 3.27867 15.8557 2.16663 13.0022 2.16663C8.84114 2.16663 5.23255 4.51583 3.41797 7.95758Z" fill="#FF3D00"/>
<path d="M12.9959 23.8332C15.7942 23.8332 18.3368 22.7623 20.2591 21.0209L16.9062 18.1836C15.8186 19.0075 14.4666 19.4999 12.9959 19.4999C10.1782 19.4999 7.78565 17.7032 6.88431 15.1958L3.35156 17.9177C5.14448 21.426 8.78556 23.8332 12.9959 23.8332Z" fill="#4CAF50"/>
<path d="M23.6226 10.8783H22.75V10.8334H13V15.1667H19.1225C18.6935 16.3784 17.914 17.4233 16.9087 18.1843C16.9092 18.1838 16.9097 18.1838 16.9103 18.1832L20.2632 21.0205C20.026 21.2361 23.8333 18.4167 23.8333 13C23.8333 12.2737 23.7586 11.5646 23.6226 10.8783Z" fill="#1976D2"/>
</svg>
