<svg width="17" height="16" viewBox="0 0 17 16" fill="none" xmlns="http://www.w3.org/2000/svg">
<path d="M8.49559 1.58544C10.3552 -0.0841827 13.229 -0.0287659 15.0205 1.76594C16.8113 3.56144 16.873 6.42094 15.2073 8.28611L8.494 15.0089L1.78225 8.28611C0.116588 6.42094 0.17913 3.55669 1.96909 1.76594C3.76221 -0.0263909 6.63042 -0.0865577 8.49559 1.58544ZM13.8995 2.88457C12.712 1.69548 10.7962 1.64719 9.55326 2.76344L8.49638 3.71186L7.43871 2.76423C6.19184 1.6464 4.27996 1.69548 3.0893 2.88615C1.90971 4.06573 1.85034 5.95386 2.9373 7.20153L8.4948 12.7677L14.0523 7.20232C15.14 5.95386 15.0807 4.06811 13.8995 2.88457Z" fill="white"/>
</svg>
