<svg width="18" height="18" viewBox="0 0 18 18" fill="none" xmlns="http://www.w3.org/2000/svg">
<g clip-path="url(#clip0_11599_61899)">
<path d="M9 15.75C5.27175 15.75 2.25 12.7283 2.25 9C2.25 5.27175 5.27175 2.25 9 2.25C12.7283 2.25 15.75 5.27175 15.75 9C15.75 12.7283 12.7283 15.75 9 15.75Z" fill="#575C5B" stroke="#575C5B" stroke-width="1.25" stroke-linecap="round" stroke-linejoin="round"/>
<path d="M9.01873 6C8.58404 6 8.23125 6.3528 8.2344 6.7875C8.2344 7.2222 8.58719 7.575 9.02189 7.575C9.45658 7.575 9.80937 7.2222 9.80937 6.7875C9.80937 6.3528 9.45658 6 9.01873 6Z" fill="white"/>
<path d="M9 9C9 9 9 10.7441 9 12.15V9Z" fill="white"/>
<path d="M9 9C9 9 9 10.7441 9 12.15" stroke="white" stroke-width="1.5" stroke-linecap="round" stroke-linejoin="round"/>
</g>
<defs>
<clipPath id="clip0_11599_61899">
<rect width="18" height="18" fill="white"/>
</clipPath>
</defs>
</svg>
