<svg width="19" height="18" viewBox="0 0 19 18" fill="none" xmlns="http://www.w3.org/2000/svg">
<path d="M4.16667 8.16602H10.8333V9.83269H4.16667V12.3327L0 8.99935L4.16667 5.66602V8.16602ZM3.33333 13.9994H5.59C6.55224 14.848 7.73891 15.4009 9.00761 15.5918C10.2763 15.7827 11.5731 15.6035 12.7425 15.0756C13.9119 14.5477 14.9041 13.6937 15.6001 12.6159C16.296 11.5381 16.6663 10.2823 16.6663 8.99935C16.6663 7.71637 16.296 6.46064 15.6001 5.38284C14.9041 4.30504 13.9119 3.45097 12.7425 2.9231C11.5731 2.39523 10.2763 2.216 9.00761 2.4069C7.73891 2.5978 6.55224 3.15074 5.59 3.99935H3.33333C4.10888 2.96366 5.11528 2.12311 6.27256 1.54447C7.42984 0.965828 8.70612 0.665046 10 0.666018C14.6025 0.666018 18.3333 4.39685 18.3333 8.99935C18.3333 13.6019 14.6025 17.3327 10 17.3327C8.70612 17.3337 7.42984 17.0329 6.27256 16.4542C5.11528 15.8756 4.10888 15.035 3.33333 13.9994Z" fill="#2A7575"/>
</svg>
