<svg width="19" height="18" viewBox="0 0 19 18" fill="none" xmlns="http://www.w3.org/2000/svg">
<path d="M4.16667 8.167H10.8333V9.83366H4.16667V12.3337L0 9.00033L4.16667 5.667V8.167ZM3.33333 14.0003H5.59C6.55224 14.8489 7.73891 15.4019 9.00761 15.5928C10.2763 15.7837 11.5731 15.6044 12.7425 15.0766C13.9119 14.5487 14.9041 13.6946 15.6001 12.6168C16.296 11.539 16.6663 10.2833 16.6663 9.00033C16.6663 7.71734 16.296 6.46161 15.6001 5.38382C14.9041 4.30602 13.9119 3.45194 12.7425 2.92408C11.5731 2.39621 10.2763 2.21697 9.00761 2.40788C7.73891 2.59878 6.55224 3.15171 5.59 4.00033H3.33333C4.10888 2.96464 5.11528 2.12409 6.27256 1.54545C7.42984 0.966805 8.70612 0.666022 10 0.666995C14.6025 0.666995 18.3333 4.39783 18.3333 9.00033C18.3333 13.6028 14.6025 17.3337 10 17.3337C8.70612 17.3346 7.42984 17.0338 6.27256 16.4552C5.11528 15.8766 4.10888 15.036 3.33333 14.0003Z" fill="#0E1818"/>
</svg>
