<svg width="20" height="18" viewBox="0 0 20 18" fill="none" xmlns="http://www.w3.org/2000/svg">
<path d="M1.7487 0.75H18.2487C18.4918 0.75 18.725 0.846577 18.8969 1.01849C19.0688 1.19039 19.1654 1.42355 19.1654 1.66667V16.3333C19.1654 16.5764 19.0688 16.8096 18.8969 16.9815C18.725 17.1534 18.4918 17.25 18.2487 17.25H1.7487C1.50558 17.25 1.27242 17.1534 1.10052 16.9815C0.928608 16.8096 0.832031 16.5764 0.832031 16.3333V1.66667C0.832031 1.42355 0.928608 1.19039 1.10052 1.01849C1.27242 0.846577 1.50558 0.75 1.7487 0.75ZM17.332 9H2.66536V15.4167H17.332V9ZM17.332 5.33333V2.58333H2.66536V5.33333H17.332Z" fill="#AAB0BA"/>
</svg>
