<svg width="252" height="252" viewBox="0 0 252 252" fill="none" xmlns="http://www.w3.org/2000/svg">
<circle cx="126" cy="126" r="109" fill="#2A7575" fill-opacity="0.4"/>
<circle cx="126" cy="126" r="92" fill="#2A7575"/>
<path d="M138.601 90.666H113.401C100.801 90.666 97.668 94.0327 97.668 107.466V144.999C97.668 153.866 102.535 155.966 108.435 149.633L108.468 149.599C111.201 146.699 115.368 146.933 117.735 150.099L121.101 154.599C123.801 158.166 128.168 158.166 130.868 154.599L134.235 150.099C136.635 146.899 140.801 146.666 143.535 149.599C149.468 155.933 154.301 153.833 154.301 144.966V107.466C154.335 94.0327 151.201 90.666 138.601 90.666ZM135.168 119.833H116.835C115.468 119.833 114.335 118.699 114.335 117.333C114.335 115.966 115.468 114.833 116.835 114.833H135.168C136.535 114.833 137.668 115.966 137.668 117.333C137.668 118.699 136.535 119.833 135.168 119.833Z" fill="white"/>
</svg>
