<svg width="56" height="56" viewBox="0 0 56 56" fill="none" xmlns="http://www.w3.org/2000/svg">
<circle cx="28" cy="28" r="28" fill="#2A7575" fill-opacity="0.1"/>
<path fill-rule="evenodd" clip-rule="evenodd" d="M35.6667 25.3333C33.0895 25.3333 31 23.2438 31 20.6667C31 18.142 33.1467 15.9977 35.6713 16C38.2473 16.0023 40.3333 18.0907 40.3333 20.6667C40.3333 23.2438 38.245 25.3333 35.6667 25.3333ZM35.668 17.8841C36.1098 17.8841 36.468 18.2423 36.468 18.6841V19.8665H37.4169C37.8588 19.8665 38.2169 20.2247 38.2169 20.6665C38.2169 21.1083 37.8588 21.4665 37.4169 21.4665H36.468V22.4174C36.468 22.8592 36.1098 23.2174 35.668 23.2174C35.2261 23.2174 34.868 22.8592 34.868 22.4174V21.4665H33.6836C33.2418 21.4665 32.8836 21.1083 32.8836 20.6665C32.8836 20.2247 33.2418 19.8665 33.6836 19.8665H34.868V18.6841C34.868 18.2423 35.2261 17.8841 35.668 17.8841Z" fill="#2A7575"/>
<path d="M28.3333 19.833H21.5C19.2909 19.833 17.5 21.6239 17.5 23.833V34.4997C17.5 36.7088 19.2909 38.4997 21.5 38.4997H33.3333C35.5425 38.4997 37.3333 36.7088 37.3333 34.4997V27.833" stroke="#2A7575" stroke-width="1.6" stroke-linecap="round" stroke-linejoin="round"/>
<path d="M22.1272 30.8777L23.8818 28.094C24.289 27.4489 25.1955 27.3614 25.7182 27.9167L26.9723 29.249L28.2872 26.4549C28.692 25.5939 29.903 25.5542 30.3638 26.3872L32.8768 30.9349C33.3062 31.713 32.7427 32.6662 31.8548 32.6662H23.1142C22.1948 32.6662 21.6372 31.6547 22.1272 30.8777Z" fill="#2A7575"/>
</svg>
