<svg width="252" height="257" viewBox="0 0 252 257" fill="none" xmlns="http://www.w3.org/2000/svg">
<circle cx="127" cy="131" r="109" fill="#2A7575" fill-opacity="0.4"/>
<circle cx="127" cy="131" r="92" fill="#2A7575"/>
<path d="M159.065 144.833C157.965 153.7 150.698 160.966 141.832 162.066C136.465 162.733 131.465 161.266 127.565 158.4C125.332 156.766 125.865 153.3 128.532 152.5C138.565 149.466 146.465 141.533 149.532 131.5C150.332 128.866 153.798 128.333 155.432 130.533C158.265 134.466 159.732 139.466 159.065 144.833Z" fill="white"/>
<path d="M119.301 95.6665C104.601 95.6665 92.668 107.6 92.668 122.3C92.668 137 104.601 148.933 119.301 148.933C134.001 148.933 145.935 137 145.935 122.3C145.901 107.6 134.001 95.6665 119.301 95.6665ZM116.168 118.567L124.201 121.367C127.101 122.4 128.501 124.433 128.501 127.567C128.501 131.167 125.635 134.133 122.135 134.133H121.835V134.3C121.835 135.667 120.701 136.8 119.335 136.8C117.968 136.8 116.835 135.667 116.835 134.3V134.1C113.135 133.933 110.168 130.833 110.168 126.967C110.168 125.6 111.301 124.467 112.668 124.467C114.035 124.467 115.168 125.6 115.168 126.967C115.168 128.167 116.035 129.133 117.101 129.133H122.101C122.868 129.133 123.468 128.433 123.468 127.567C123.468 126.4 123.268 126.333 122.501 126.067L114.468 123.267C111.601 122.267 110.168 120.233 110.168 117.067C110.168 113.467 113.035 110.5 116.535 110.5H116.835V110.367C116.835 109 117.968 107.867 119.335 107.867C120.701 107.867 121.835 109 121.835 110.367V110.567C125.535 110.733 128.501 113.833 128.501 117.7C128.501 119.067 127.368 120.2 126.001 120.2C124.635 120.2 123.501 119.067 123.501 117.7C123.501 116.5 122.635 115.533 121.568 115.533H116.568C115.801 115.533 115.201 116.233 115.201 117.1C115.168 118.233 115.368 118.3 116.168 118.567Z" fill="white"/>
</svg>
