<svg width="252" height="252" viewBox="0 0 252 252" fill="none" xmlns="http://www.w3.org/2000/svg">
<circle cx="124" cy="126" r="109" fill="#2A7575" fill-opacity="0.4"/>
<circle cx="124" cy="126" r="92" fill="#2A7575"/>
<path d="M144.667 103.7L125.834 93.5666C123.834 92.4999 121.467 92.4999 119.467 93.5666L100.667 103.7C99.3003 104.467 98.4336 105.933 98.4336 107.533C98.4336 109.167 99.2669 110.633 100.667 111.367L119.5 121.5C120.5 122.033 121.6 122.3 122.667 122.3C123.734 122.3 124.867 122.033 125.834 121.5L144.667 111.367C146.034 110.633 146.9 109.167 146.9 107.533C146.9 105.933 146.034 104.467 144.667 103.7Z" fill="white"/>
<path d="M116.401 125.033L98.9013 116.3C97.5346 115.6 96.0013 115.7 94.7013 116.466C93.4346 117.266 92.668 118.633 92.668 120.133V136.666C92.668 139.533 94.268 142.1 96.8346 143.4L114.335 152.133C114.935 152.433 115.601 152.6 116.268 152.6C117.035 152.6 117.835 152.366 118.535 151.966C119.801 151.166 120.568 149.8 120.568 148.3V131.766C120.535 128.9 118.935 126.333 116.401 125.033Z" fill="white"/>
<path d="M152.667 120.133V128.333C151.067 127.866 149.367 127.666 147.667 127.666C143.134 127.666 138.701 129.233 135.201 132.033C130.401 135.8 127.667 141.5 127.667 147.666C127.667 149.3 127.867 150.933 128.301 152.5C127.801 152.433 127.301 152.233 126.834 151.933C125.567 151.166 124.801 149.8 124.801 148.3V131.766C124.801 128.9 126.401 126.333 128.934 125.033L146.434 116.3C147.801 115.6 149.334 115.7 150.634 116.466C151.901 117.266 152.667 118.633 152.667 120.133Z" fill="white"/>
<path d="M159.268 138.233C156.535 134.867 152.368 132.733 147.668 132.733C144.135 132.733 140.868 133.967 138.301 136.033C134.835 138.767 132.668 143 132.668 147.733C132.668 150.533 133.468 153.2 134.835 155.467C135.735 156.967 136.868 158.267 138.201 159.333H138.235C140.801 161.467 144.101 162.733 147.668 162.733C151.468 162.733 154.901 161.333 157.535 159C158.701 158 159.701 156.8 160.501 155.467C161.868 153.2 162.668 150.533 162.668 147.733C162.668 144.133 161.401 140.8 159.268 138.233ZM155.201 145.867L147.201 153.267C146.735 153.7 146.101 153.933 145.501 153.933C144.868 153.933 144.235 153.7 143.735 153.2L140.035 149.5C139.068 148.533 139.068 146.933 140.035 145.967C141.001 145 142.601 145 143.568 145.967L145.568 147.967L151.801 142.2C152.801 141.267 154.401 141.333 155.335 142.333C156.301 143.367 156.235 144.933 155.201 145.867Z" fill="white"/>
</svg>
