<svg width="25" height="24" viewBox="0 0 25 24" fill="none" xmlns="http://www.w3.org/2000/svg">
<path fill-rule="evenodd" clip-rule="evenodd" d="M5.76953 6C5.21725 6 4.76953 6.44772 4.76953 7V8.53552C5.96106 9.22431 6.76953 10.5164 6.76953 12C6.76953 13.4836 5.96106 14.7757 4.76953 15.4645V17C4.76953 17.5523 5.21725 18 5.76953 18H19.7695C20.3218 18 20.7695 17.5523 20.7695 17V15.4645C19.578 14.7757 18.7695 13.4836 18.7695 12C18.7695 10.5164 19.578 9.22431 20.7695 8.53552V7C20.7695 6.44772 20.3218 6 19.7695 6H5.76953ZM5.76953 4C4.11268 4 2.76953 5.34315 2.76953 7V9C2.76953 9.55228 3.24405 9.97928 3.7285 10.2445C4.34886 10.5841 4.76953 11.2429 4.76953 12C4.76953 12.7571 4.34886 13.4159 3.7285 13.7555C3.24405 14.0207 2.76953 14.4477 2.76953 15V17C2.76953 18.6569 4.11268 20 5.76953 20H19.7695C21.4264 20 22.7695 18.6569 22.7695 17V15C22.7695 14.4477 22.295 14.0207 21.8106 13.7555C21.1902 13.4159 20.7695 12.7571 20.7695 12C20.7695 11.2429 21.1902 10.5841 21.8106 10.2445C22.295 9.97928 22.7695 9.55228 22.7695 9V7C22.7695 5.34315 21.4264 4 19.7695 4H5.76953Z" fill="#4E4E4E"/>
<path fill-rule="evenodd" clip-rule="evenodd" d="M12.7695 11.1899C12.5438 11.4165 12.2832 11.6059 11.9979 11.7505C12.1437 12.0351 12.2433 12.3415 12.2926 12.6575C12.6084 12.6068 12.9306 12.6068 13.2463 12.6575C13.2957 12.3415 13.3952 12.0351 13.5411 11.7505C13.2557 11.6059 12.9951 11.4165 12.7695 11.1899ZM13.714 8.71854C13.4027 7.82298 12.1362 7.82299 11.8249 8.71855L11.5873 9.40223C11.4499 9.7973 11.0812 10.0652 10.6631 10.0737L9.93941 10.0884C8.99149 10.1078 8.60011 11.3123 9.35564 11.8851L9.93243 12.3224C10.2657 12.5751 10.4066 13.0085 10.2854 13.4088L10.0758 14.1016C9.80128 15.0091 10.8259 15.7536 11.6042 15.212L12.1983 14.7986C12.5416 14.5597 12.9973 14.5597 13.3407 14.7986L13.9348 15.212C14.713 15.7536 15.7377 15.0091 15.4631 14.1016L15.2535 13.4088C15.1324 13.0085 15.2732 12.5751 15.6065 12.3224L16.1833 11.8851C16.9388 11.3123 16.5475 10.1078 15.5995 10.0884L14.8759 10.0737C14.4577 10.0652 14.089 9.7973 13.9517 9.40223L13.714 8.71854Z" fill="#4E4E4E"/>
</svg>
