<svg width="22" height="22" viewBox="0 0 22 22" fill="none" xmlns="http://www.w3.org/2000/svg">
<path d="M3.39538 20.2632L3.78738 19.6238L3.39538 20.2632ZM1.74541 18.6125L2.38496 18.2207L1.74541 18.6125ZM20.2635 18.6125L19.624 18.2207L20.2635 18.6125ZM18.6136 20.2632L18.2216 19.6238L18.6136 20.2632ZM18.6136 4.7368L18.2216 5.3762L18.6136 4.7368ZM20.2635 6.38751L19.624 6.77925L20.2635 6.38751ZM3.39538 4.7368L3.78738 5.3762L3.39538 4.7368ZM1.74541 6.38751L2.38496 6.77925L1.74541 6.38751ZM17.4783 1.54645L18.0197 1.0274V1.0274L17.4783 1.54645ZM2.85233 1.89079L3.3053 2.48855V2.48855L2.85233 1.89079ZM1.863 2.92267L2.47841 3.35135L1.863 2.92267ZM18.0013 4.13032H18.7514L18.7513 4.12662L18.0013 4.13032ZM17.3653 12.6137C17.7795 12.6137 18.1153 12.2779 18.1153 11.8637C18.1153 11.4494 17.7795 11.1137 17.3653 11.1137V12.6137ZM14.6392 11.1137C14.225 11.1137 13.8892 11.4494 13.8892 11.8637C13.8892 12.2779 14.225 12.6137 14.6392 12.6137V11.1137ZM18.0013 4.43781L17.735 5.13891L18.0013 4.43781ZM9.50514 4.75H12.5038V3.25H9.50514V4.75ZM12.5038 20.25H9.50514V21.75H12.5038V20.25ZM9.50514 20.25C7.85463 20.25 6.66943 20.2492 5.74497 20.1613C4.83168 20.0744 4.25061 19.9078 3.78738 19.6238L3.00337 20.9026C3.74195 21.3554 4.57978 21.5572 5.60293 21.6545C6.6149 21.7508 7.88368 21.75 9.50514 21.75V20.25ZM0.258936 12.5C0.258936 14.1222 0.258145 15.3915 0.354359 16.4039C0.451632 17.4274 0.653314 18.2654 1.10585 19.0042L2.38496 18.2207C2.10103 17.7572 1.93447 17.1757 1.84763 16.2619C1.75973 15.337 1.75894 14.1512 1.75894 12.5H0.258936ZM3.78738 19.6238C3.21583 19.2734 2.73525 18.7926 2.38496 18.2207L1.10585 19.0042C1.57975 19.7779 2.22997 20.4284 3.00337 20.9026L3.78738 19.6238ZM12.5038 21.75C14.1253 21.75 15.394 21.7508 16.406 21.6545C17.4292 21.5572 18.267 21.3554 19.0056 20.9026L18.2216 19.6238C17.7583 19.9078 17.1773 20.0744 16.264 20.1613C15.3395 20.2492 14.1543 20.25 12.5038 20.25V21.75ZM19.624 18.2207C19.2737 18.7926 18.7931 19.2734 18.2216 19.6238L19.0056 20.9026C19.779 20.4284 20.4292 19.7779 20.9031 19.0042L19.624 18.2207ZM18.2216 5.3762C18.7931 5.7266 19.2737 6.20738 19.624 6.77925L20.9031 5.99576C20.4292 5.22207 19.779 4.57155 19.0056 4.0974L18.2216 5.3762ZM9.50514 3.25C7.88368 3.25 6.6149 3.24921 5.60293 3.34547C4.57978 3.4428 3.74195 3.64459 3.00337 4.0974L3.78738 5.3762C4.25061 5.0922 4.83168 4.9256 5.74497 4.83873C6.66943 4.75079 7.85463 4.75 9.50514 4.75V3.25ZM1.75894 12.5C1.75894 10.8488 1.75973 9.66299 1.84763 8.73806C1.93447 7.82427 2.10103 7.2428 2.38496 6.77925L1.10585 5.99576C0.653314 6.73456 0.451632 7.57262 0.354359 8.59614C0.258145 9.60851 0.258936 10.8778 0.258936 12.5H1.75894ZM3.00337 4.0974C2.22997 4.57155 1.57975 5.22208 1.10585 5.99576L2.38496 6.77925C2.73525 6.20738 3.21583 5.7266 3.78738 5.3762L3.00337 4.0974ZM9.05841 1.75H14.4247V0.25H9.05841V1.75ZM14.4247 1.75C15.2901 1.75 15.8604 1.75173 16.2833 1.81104C16.6814 1.86685 16.8361 1.96032 16.937 2.0655L18.0197 1.0274C17.5966 0.586126 17.0678 0.406372 16.4916 0.325573C15.9404 0.24827 15.2459 0.25 14.4247 0.25V1.75ZM9.05841 0.25C7.39897 0.25 6.09157 0.248881 5.05433 0.366092C4.00111 0.485108 3.13742 0.733739 2.39936 1.29303L3.3053 2.48855C3.74276 2.15705 4.30525 1.96029 5.22276 1.85661C6.15626 1.75112 7.36414 1.75 9.05841 1.75V0.25ZM1.75894 9.39563C1.75894 7.63064 1.75988 6.36467 1.86168 5.38469C1.9622 4.41697 2.15427 3.81667 2.47841 3.35135L1.24759 2.49398C0.717662 3.25473 0.4827 4.14195 0.369707 5.22971C0.257988 6.30521 0.258936 7.66269 0.258936 9.39563H1.75894ZM2.39936 1.29303C1.95621 1.62884 1.56777 2.03435 1.24759 2.49398L2.47841 3.35135C2.70988 3.01905 2.98916 2.72812 3.3053 2.48855L2.39936 1.29303ZM18.7513 4.12662C18.748 3.44995 18.7336 2.8636 18.6489 2.37752C18.5609 1.87239 18.3869 1.41039 18.0197 1.0274L16.937 2.0655C17.0303 2.16282 17.1145 2.30977 17.1711 2.635C17.2311 2.97929 17.2479 3.44473 17.2514 4.13403L18.7513 4.12662ZM0.258936 9.39563C0.258936 10.3713 0.238784 11.2642 0.259192 12.0202L1.75865 11.9798C1.7389 11.2482 1.75894 10.424 1.75894 9.39563H0.258936ZM20.5002 13.8409H14.6392V15.3409H20.5002V13.8409ZM11.1632 11.8637C11.1632 13.7838 12.7191 15.3409 14.6392 15.3409V13.8409C13.5482 13.8409 12.6632 12.956 12.6632 11.8637H11.1632ZM12.6632 11.8637C12.6632 10.7713 13.5482 9.88638 14.6392 9.88638V8.38638C12.7191 8.38638 11.1632 9.94352 11.1632 11.8637H12.6632ZM17.3653 11.1137C17.3632 11.1137 17.3611 11.1137 17.359 11.1137C17.3569 11.1137 17.3548 11.1137 17.3528 11.1137C17.3507 11.1137 17.3486 11.1137 17.3465 11.1137C17.3444 11.1137 17.3423 11.1137 17.3402 11.1137C17.3381 11.1137 17.336 11.1137 17.3339 11.1137C17.3318 11.1137 17.3297 11.1137 17.3276 11.1137C17.3255 11.1137 17.3234 11.1137 17.3213 11.1137C17.3192 11.1137 17.317 11.1137 17.3149 11.1137C17.3128 11.1137 17.3107 11.1137 17.3086 11.1137C17.3065 11.1137 17.3043 11.1137 17.3022 11.1137C17.3001 11.1137 17.298 11.1137 17.2958 11.1137C17.2937 11.1137 17.2916 11.1137 17.2895 11.1137C17.2873 11.1137 17.2852 11.1137 17.2831 11.1137C17.2809 11.1137 17.2788 11.1137 17.2766 11.1137C17.2745 11.1137 17.2724 11.1137 17.2702 11.1137C17.2681 11.1137 17.2659 11.1137 17.2638 11.1137C17.2616 11.1137 17.2595 11.1137 17.2573 11.1137C17.2552 11.1137 17.253 11.1137 17.2509 11.1137C17.2487 11.1137 17.2466 11.1137 17.2444 11.1137C17.2422 11.1137 17.2401 11.1137 17.2379 11.1137C17.2357 11.1137 17.2336 11.1137 17.2314 11.1137C17.2292 11.1137 17.2271 11.1137 17.2249 11.1137C17.2227 11.1137 17.2206 11.1137 17.2184 11.1137C17.2162 11.1137 17.214 11.1137 17.2119 11.1137C17.2097 11.1137 17.2075 11.1137 17.2053 11.1137C17.2031 11.1137 17.2009 11.1137 17.1988 11.1137C17.1966 11.1137 17.1944 11.1137 17.1922 11.1137C17.19 11.1137 17.1878 11.1137 17.1856 11.1137C17.1834 11.1137 17.1812 11.1137 17.179 11.1137C17.1768 11.1137 17.1746 11.1137 17.1724 11.1137C17.1702 11.1137 17.168 11.1137 17.1658 11.1137C17.1636 11.1137 17.1614 11.1137 17.1592 11.1137C17.157 11.1137 17.1548 11.1137 17.1526 11.1137C17.1504 11.1137 17.1482 11.1137 17.1459 11.1137C17.1437 11.1137 17.1415 11.1137 17.1393 11.1137C17.1371 11.1137 17.1349 11.1137 17.1326 11.1137C17.1304 11.1137 17.1282 11.1137 17.126 11.1137C17.1237 11.1137 17.1215 11.1137 17.1193 11.1137C17.1171 11.1137 17.1148 11.1137 17.1126 11.1137C17.1104 11.1137 17.1081 11.1137 17.1059 11.1137C17.1037 11.1137 17.1014 11.1137 17.0992 11.1137C17.0969 11.1137 17.0947 11.1137 17.0925 11.1137C17.0902 11.1137 17.088 11.1137 17.0857 11.1137C17.0835 11.1137 17.0813 11.1137 17.079 11.1137C17.0768 11.1137 17.0745 11.1137 17.0723 11.1137C17.07 11.1137 17.0678 11.1137 17.0655 11.1137C17.0633 11.1137 17.061 11.1137 17.0587 11.1137C17.0565 11.1137 17.0542 11.1137 17.052 11.1137C17.0497 11.1137 17.0474 11.1137 17.0452 11.1137C17.0429 11.1137 17.0407 11.1137 17.0384 11.1137C17.0361 11.1137 17.0339 11.1137 17.0316 11.1137C17.0293 11.1137 17.0271 11.1137 17.0248 11.1137C17.0225 11.1137 17.0202 11.1137 17.018 11.1137C17.0157 11.1137 17.0134 11.1137 17.0111 11.1137C17.0089 11.1137 17.0066 11.1137 17.0043 11.1137C17.002 11.1137 16.9998 11.1137 16.9975 11.1137C16.9952 11.1137 16.9929 11.1137 16.9906 11.1137C16.9883 11.1137 16.9861 11.1137 16.9838 11.1137C16.9815 11.1137 16.9792 11.1137 16.9769 11.1137C16.9746 11.1137 16.9723 11.1137 16.97 11.1137C16.9677 11.1137 16.9655 11.1137 16.9632 11.1137C16.9609 11.1137 16.9586 11.1137 16.9563 11.1137C16.954 11.1137 16.9517 11.1137 16.9494 11.1137C16.9471 11.1137 16.9448 11.1137 16.9425 11.1137C16.9402 11.1137 16.9379 11.1137 16.9356 11.1137C16.9333 11.1137 16.931 11.1137 16.9286 11.1137C16.9263 11.1137 16.924 11.1137 16.9217 11.1137C16.9194 11.1137 16.9171 11.1137 16.9148 11.1137C16.9125 11.1137 16.9102 11.1137 16.9079 11.1137C16.9055 11.1137 16.9032 11.1137 16.9009 11.1137C16.8986 11.1137 16.8963 11.1137 16.894 11.1137C16.8916 11.1137 16.8893 11.1137 16.887 11.1137C16.8847 11.1137 16.8824 11.1137 16.88 11.1137C16.8777 11.1137 16.8754 11.1137 16.8731 11.1137C16.8708 11.1137 16.8684 11.1137 16.8661 11.1137C16.8638 11.1137 16.8614 11.1137 16.8591 11.1137C16.8568 11.1137 16.8545 11.1137 16.8521 11.1137C16.8498 11.1137 16.8475 11.1137 16.8451 11.1137C16.8428 11.1137 16.8405 11.1137 16.8381 11.1137C16.8358 11.1137 16.8335 11.1137 16.8311 11.1137C16.8288 11.1137 16.8265 11.1137 16.8241 11.1137C16.8218 11.1137 16.8194 11.1137 16.8171 11.1137C16.8148 11.1137 16.8124 11.1137 16.8101 11.1137C16.8077 11.1137 16.8054 11.1137 16.8031 11.1137C16.8007 11.1137 16.7984 11.1137 16.796 11.1137C16.7937 11.1137 16.7913 11.1137 16.789 11.1137C16.7866 11.1137 16.7843 11.1137 16.7819 11.1137C16.7796 11.1137 16.7773 11.1137 16.7749 11.1137C16.7726 11.1137 16.7702 11.1137 16.7678 11.1137C16.7655 11.1137 16.7631 11.1137 16.7608 11.1137C16.7584 11.1137 16.7561 11.1137 16.7537 11.1137C16.7514 11.1137 16.749 11.1137 16.7467 11.1137C16.7443 11.1137 16.742 11.1137 16.7396 11.1137C16.7372 11.1137 16.7349 11.1137 16.7325 11.1137C16.7302 11.1137 16.7278 11.1137 16.7254 11.1137C16.7231 11.1137 16.7207 11.1137 16.7184 11.1137C16.716 11.1137 16.7136 11.1137 16.7113 11.1137C16.7089 11.1137 16.7066 11.1137 16.7042 11.1137C16.7018 11.1137 16.6995 11.1137 16.6971 11.1137C16.6947 11.1137 16.6924 11.1137 16.69 11.1137C16.6876 11.1137 16.6853 11.1137 16.6829 11.1137C16.6805 11.1137 16.6782 11.1137 16.6758 11.1137C16.6734 11.1137 16.6711 11.1137 16.6687 11.1137C16.6663 11.1137 16.6639 11.1137 16.6616 11.1137C16.6592 11.1137 16.6568 11.1137 16.6545 11.1137C16.6521 11.1137 16.6497 11.1137 16.6473 11.1137C16.645 11.1137 16.6426 11.1137 16.6402 11.1137C16.6378 11.1137 16.6355 11.1137 16.6331 11.1137C16.6307 11.1137 16.6283 11.1137 16.626 11.1137C16.6236 11.1137 16.6212 11.1137 16.6188 11.1137C16.6165 11.1137 16.6141 11.1137 16.6117 11.1137C16.6093 11.1137 16.607 11.1137 16.6046 11.1137C16.6022 11.1137 16.5998 11.1137 16.5974 11.1137C16.5951 11.1137 16.5927 11.1137 16.5903 11.1137C16.5879 11.1137 16.5855 11.1137 16.5832 11.1137C16.5808 11.1137 16.5784 11.1137 16.576 11.1137C16.5736 11.1137 16.5713 11.1137 16.5689 11.1137C16.5665 11.1137 16.5641 11.1137 16.5617 11.1137C16.5593 11.1137 16.557 11.1137 16.5546 11.1137C16.5522 11.1137 16.5498 11.1137 16.5474 11.1137C16.5451 11.1137 16.5427 11.1137 16.5403 11.1137C16.5379 11.1137 16.5355 11.1137 16.5331 11.1137C16.5307 11.1137 16.5284 11.1137 16.526 11.1137C16.5236 11.1137 16.5212 11.1137 16.5188 11.1137C16.5164 11.1137 16.5141 11.1137 16.5117 11.1137C16.5093 11.1137 16.5069 11.1137 16.5045 11.1137C16.5021 11.1137 16.4997 11.1137 16.4973 11.1137C16.495 11.1137 16.4926 11.1137 16.4902 11.1137C16.4878 11.1137 16.4854 11.1137 16.483 11.1137C16.4806 11.1137 16.4783 11.1137 16.4759 11.1137C16.4735 11.1137 16.4711 11.1137 16.4687 11.1137C16.4663 11.1137 16.4639 11.1137 16.4615 11.1137C16.4592 11.1137 16.4568 11.1137 16.4544 11.1137C16.452 11.1137 16.4496 11.1137 16.4472 11.1137C16.4448 11.1137 16.4424 11.1137 16.4401 11.1137C16.4377 11.1137 16.4353 11.1137 16.4329 11.1137C16.4305 11.1137 16.4281 11.1137 16.4257 11.1137C16.4234 11.1137 16.421 11.1137 16.4186 11.1137C16.4162 11.1137 16.4138 11.1137 16.4114 11.1137C16.409 11.1137 16.4066 11.1137 16.4043 11.1137C16.4019 11.1137 16.3995 11.1137 16.3971 11.1137C16.3947 11.1137 16.3923 11.1137 16.3899 11.1137C16.3875 11.1137 16.3852 11.1137 16.3828 11.1137C16.3804 11.1137 16.378 11.1137 16.3756 11.1137C16.3732 11.1137 16.3708 11.1137 16.3685 11.1137C16.3661 11.1137 16.3637 11.1137 16.3613 11.1137C16.3589 11.1137 16.3565 11.1137 16.3541 11.1137C16.3518 11.1137 16.3494 11.1137 16.347 11.1137C16.3446 11.1137 16.3422 11.1137 16.3398 11.1137C16.3375 11.1137 16.3351 11.1137 16.3327 11.1137C16.3303 11.1137 16.3279 11.1137 16.3255 11.1137C16.3231 11.1137 16.3208 11.1137 16.3184 11.1137C16.316 11.1137 16.3136 11.1137 16.3112 11.1137C16.3089 11.1137 16.3065 11.1137 16.3041 11.1137C16.3017 11.1137 16.2993 11.1137 16.2969 11.1137C16.2946 11.1137 16.2922 11.1137 16.2898 11.1137C16.2874 11.1137 16.285 11.1137 16.2827 11.1137C16.2803 11.1137 16.2779 11.1137 16.2755 11.1137C16.2732 11.1137 16.2708 11.1137 16.2684 11.1137C16.266 11.1137 16.2636 11.1137 16.2613 11.1137C16.2589 11.1137 16.2565 11.1137 16.2541 11.1137C16.2518 11.1137 16.2494 11.1137 16.247 11.1137C16.2446 11.1137 16.2423 11.1137 16.2399 11.1137C16.2375 11.1137 16.2351 11.1137 16.2328 11.1137C16.2304 11.1137 16.228 11.1137 16.2256 11.1137C16.2233 11.1137 16.2209 11.1137 16.2185 11.1137C16.2161 11.1137 16.2138 11.1137 16.2114 11.1137C16.209 11.1137 16.2067 11.1137 16.2043 11.1137C16.2019 11.1137 16.1996 11.1137 16.1972 11.1137C16.1948 11.1137 16.1925 11.1137 16.1901 11.1137C16.1877 11.1137 16.1854 11.1137 16.183 11.1137C16.1806 11.1137 16.1783 11.1137 16.1759 11.1137C16.1735 11.1137 16.1712 11.1137 16.1688 11.1137C16.1664 11.1137 16.1641 11.1137 16.1617 11.1137C16.1593 11.1137 16.157 11.1137 16.1546 11.1137C16.1523 11.1137 16.1499 11.1137 16.1475 11.1137C16.1452 11.1137 16.1428 11.1137 16.1405 11.1137C16.1381 11.1137 16.1358 11.1137 16.1334 11.1137C16.131 11.1137 16.1287 11.1137 16.1263 11.1137C16.124 11.1137 16.1216 11.1137 16.1193 11.1137C16.1169 11.1137 16.1146 11.1137 16.1122 11.1137C16.1099 11.1137 16.1075 11.1137 16.1052 11.1137C16.1028 11.1137 16.1005 11.1137 16.0981 11.1137C16.0958 11.1137 16.0934 11.1137 16.0911 11.1137C16.0887 11.1137 16.0864 11.1137 16.084 11.1137C16.0817 11.1137 16.0793 11.1137 16.077 11.1137C16.0746 11.1137 16.0723 11.1137 16.07 11.1137C16.0676 11.1137 16.0653 11.1137 16.0629 11.1137C16.0606 11.1137 16.0582 11.1137 16.0559 11.1137C16.0536 11.1137 16.0512 11.1137 16.0489 11.1137C16.0466 11.1137 16.0442 11.1137 16.0419 11.1137C16.0396 11.1137 16.0372 11.1137 16.0349 11.1137C16.0325 11.1137 16.0302 11.1137 16.0279 11.1137C16.0256 11.1137 16.0232 11.1137 16.0209 11.1137C16.0186 11.1137 16.0162 11.1137 16.0139 11.1137C16.0116 11.1137 16.0093 11.1137 16.0069 11.1137C16.0046 11.1137 16.0023 11.1137 16 11.1137C15.9976 11.1137 15.9953 11.1137 15.993 11.1137C15.9907 11.1137 15.9883 11.1137 15.986 11.1137C15.9837 11.1137 15.9814 11.1137 15.9791 11.1137C15.9768 11.1137 15.9744 11.1137 15.9721 11.1137C15.9698 11.1137 15.9675 11.1137 15.9652 11.1137C15.9629 11.1137 15.9606 11.1137 15.9583 11.1137C15.9559 11.1137 15.9536 11.1137 15.9513 11.1137C15.949 11.1137 15.9467 11.1137 15.9444 11.1137C15.9421 11.1137 15.9398 11.1137 15.9375 11.1137C15.9352 11.1137 15.9329 11.1137 15.9306 11.1137C15.9283 11.1137 15.926 11.1137 15.9237 11.1137C15.9214 11.1137 15.9191 11.1137 15.9168 11.1137C15.9145 11.1137 15.9122 11.1137 15.9099 11.1137C15.9076 11.1137 15.9053 11.1137 15.903 11.1137C15.9007 11.1137 15.8984 11.1137 15.8962 11.1137C15.8939 11.1137 15.8916 11.1137 15.8893 11.1137C15.887 11.1137 15.8847 11.1137 15.8824 11.1137C15.8802 11.1137 15.8779 11.1137 15.8756 11.1137C15.8733 11.1137 15.871 11.1137 15.8688 11.1137C15.8665 11.1137 15.8642 11.1137 15.8619 11.1137C15.8597 11.1137 15.8574 11.1137 15.8551 11.1137C15.8528 11.1137 15.8506 11.1137 15.8483 11.1137C15.846 11.1137 15.8438 11.1137 15.8415 11.1137C15.8392 11.1137 15.837 11.1137 15.8347 11.1137C15.8324 11.1137 15.8302 11.1137 15.8279 11.1137C15.8257 11.1137 15.8234 11.1137 15.8211 11.1137C15.8189 11.1137 15.8166 11.1137 15.8144 11.1137C15.8121 11.1137 15.8099 11.1137 15.8076 11.1137C15.8054 11.1137 15.8031 11.1137 15.8009 11.1137C15.7986 11.1137 15.7964 11.1137 15.7941 11.1137C15.7919 11.1137 15.7896 11.1137 15.7874 11.1137C15.7851 11.1137 15.7829 11.1137 15.7807 11.1137C15.7784 11.1137 15.7762 11.1137 15.7739 11.1137C15.7717 11.1137 15.7695 11.1137 15.7672 11.1137C15.765 11.1137 15.7628 11.1137 15.7605 11.1137C15.7583 11.1137 15.7561 11.1137 15.7539 11.1137C15.7516 11.1137 15.7494 11.1137 15.7472 11.1137C15.745 11.1137 15.7427 11.1137 15.7405 11.1137C15.7383 11.1137 15.7361 11.1137 15.7339 11.1137C15.7316 11.1137 15.7294 11.1137 15.7272 11.1137C15.725 11.1137 15.7228 11.1137 15.7206 11.1137C15.7184 11.1137 15.7162 11.1137 15.714 11.1137C15.7117 11.1137 15.7095 11.1137 15.7073 11.1137C15.7051 11.1137 15.7029 11.1137 15.7007 11.1137C15.6985 11.1137 15.6963 11.1137 15.6941 11.1137C15.6919 11.1137 15.6897 11.1137 15.6876 11.1137C15.6854 11.1137 15.6832 11.1137 15.681 11.1137C15.6788 11.1137 15.6766 11.1137 15.6744 11.1137C15.6722 11.1137 15.6701 11.1137 15.6679 11.1137C15.6657 11.1137 15.6635 11.1137 15.6613 11.1137C15.6592 11.1137 15.657 11.1137 15.6548 11.1137C15.6526 11.1137 15.6505 11.1137 15.6483 11.1137C15.6461 11.1137 15.644 11.1137 15.6418 11.1137C15.6396 11.1137 15.6375 11.1137 15.6353 11.1137C15.6331 11.1137 15.631 11.1137 15.6288 11.1137C15.6267 11.1137 15.6245 11.1137 15.6223 11.1137C15.6202 11.1137 15.618 11.1137 15.6159 11.1137C15.6137 11.1137 15.6116 11.1137 15.6094 11.1137C15.6073 11.1137 15.6052 11.1137 15.603 11.1137C15.6009 11.1137 15.5987 11.1137 15.5966 11.1137C15.5945 11.1137 15.5923 11.1137 15.5902 11.1137C15.588 11.1137 15.5859 11.1137 15.5838 11.1137C15.5817 11.1137 15.5795 11.1137 15.5774 11.1137C15.5753 11.1137 15.5732 11.1137 15.571 11.1137C15.5689 11.1137 15.5668 11.1137 15.5647 11.1137C15.5626 11.1137 15.5604 11.1137 15.5583 11.1137C15.5562 11.1137 15.5541 11.1137 15.552 11.1137C15.5499 11.1137 15.5478 11.1137 15.5457 11.1137C15.5436 11.1137 15.5415 11.1137 15.5394 11.1137C15.5373 11.1137 15.5352 11.1137 15.5331 11.1137C15.531 11.1137 15.5289 11.1137 15.5268 11.1137C15.5247 11.1137 15.5226 11.1137 15.5205 11.1137C15.5184 11.1137 15.5164 11.1137 15.5143 11.1137C15.5122 11.1137 15.5101 11.1137 15.508 11.1137C15.506 11.1137 15.5039 11.1137 15.5018 11.1137C15.4997 11.1137 15.4977 11.1137 15.4956 11.1137C15.4935 11.1137 15.4915 11.1137 15.4894 11.1137C15.4873 11.1137 15.4853 11.1137 15.4832 11.1137C15.4812 11.1137 15.4791 11.1137 15.477 11.1137C15.475 11.1137 15.4729 11.1137 15.4709 11.1137C15.4688 11.1137 15.4668 11.1137 15.4647 11.1137C15.4627 11.1137 15.4607 11.1137 15.4586 11.1137C15.4566 11.1137 15.4545 11.1137 15.4525 11.1137C15.4505 11.1137 15.4484 11.1137 15.4464 11.1137C15.4444 11.1137 15.4423 11.1137 15.4403 11.1137C15.4383 11.1137 15.4363 11.1137 15.4343 11.1137C15.4322 11.1137 15.4302 11.1137 15.4282 11.1137C15.4262 11.1137 15.4242 11.1137 15.4222 11.1137C15.4202 11.1137 15.4181 11.1137 15.4161 11.1137C15.4141 11.1137 15.4121 11.1137 15.4101 11.1137C15.4081 11.1137 15.4061 11.1137 15.4041 11.1137C15.4021 11.1137 15.4001 11.1137 15.3982 11.1137C15.3962 11.1137 15.3942 11.1137 15.3922 11.1137C15.3902 11.1137 15.3882 11.1137 15.3863 11.1137C15.3843 11.1137 15.3823 11.1137 15.3803 11.1137C15.3783 11.1137 15.3764 11.1137 15.3744 11.1137C15.3724 11.1137 15.3705 11.1137 15.3685 11.1137C15.3665 11.1137 15.3646 11.1137 15.3626 11.1137C15.3607 11.1137 15.3587 11.1137 15.3568 11.1137C15.3548 11.1137 15.3529 11.1137 15.3509 11.1137C15.349 11.1137 15.347 11.1137 15.3451 11.1137C15.3431 11.1137 15.3412 11.1137 15.3393 11.1137C15.3373 11.1137 15.3354 11.1137 15.3335 11.1137C15.3315 11.1137 15.3296 11.1137 15.3277 11.1137C15.3257 11.1137 15.3238 11.1137 15.3219 11.1137C15.32 11.1137 15.3181 11.1137 15.3161 11.1137C15.3142 11.1137 15.3123 11.1137 15.3104 11.1137C15.3085 11.1137 15.3066 11.1137 15.3047 11.1137C15.3028 11.1137 15.3009 11.1137 15.299 11.1137C15.2971 11.1137 15.2952 11.1137 15.2933 11.1137C15.2914 11.1137 15.2895 11.1137 15.2876 11.1137C15.2858 11.1137 15.2839 11.1137 15.282 11.1137C15.2801 11.1137 15.2782 11.1137 15.2764 11.1137C15.2745 11.1137 15.2726 11.1137 15.2708 11.1137C15.2689 11.1137 15.267 11.1137 15.2652 11.1137C15.2633 11.1137 15.2614 11.1137 15.2596 11.1137C15.2577 11.1137 15.2559 11.1137 15.254 11.1137C15.2522 11.1137 15.2503 11.1137 15.2485 11.1137C15.2466 11.1137 15.2448 11.1137 15.243 11.1137C15.2411 11.1137 15.2393 11.1137 15.2374 11.1137C15.2356 11.1137 15.2338 11.1137 15.232 11.1137C15.2301 11.1137 15.2283 11.1137 15.2265 11.1137C15.2247 11.1137 15.2229 11.1137 15.221 11.1137C15.2192 11.1137 15.2174 11.1137 15.2156 11.1137C15.2138 11.1137 15.212 11.1137 15.2102 11.1137C15.2084 11.1137 15.2066 11.1137 15.2048 11.1137C15.203 11.1137 15.2012 11.1137 15.1994 11.1137C15.1976 11.1137 15.1959 11.1137 15.1941 11.1137C15.1923 11.1137 15.1905 11.1137 15.1887 11.1137C15.187 11.1137 15.1852 11.1137 15.1834 11.1137C15.1817 11.1137 15.1799 11.1137 15.1781 11.1137C15.1764 11.1137 15.1746 11.1137 15.1728 11.1137C15.1711 11.1137 15.1693 11.1137 15.1676 11.1137C15.1658 11.1137 15.1641 11.1137 15.1623 11.1137C15.1606 11.1137 15.1589 11.1137 15.1571 11.1137C15.1554 11.1137 15.1537 11.1137 15.1519 11.1137C15.1502 11.1137 15.1485 11.1137 15.1468 11.1137C15.145 11.1137 15.1433 11.1137 15.1416 11.1137C15.1399 11.1137 15.1382 11.1137 15.1365 11.1137C15.1347 11.1137 15.133 11.1137 15.1313 11.1137C15.1296 11.1137 15.1279 11.1137 15.1262 11.1137C15.1245 11.1137 15.1228 11.1137 15.1212 11.1137C15.1195 11.1137 15.1178 11.1137 15.1161 11.1137C15.1144 11.1137 15.1127 11.1137 15.1111 11.1137C15.1094 11.1137 15.1077 11.1137 15.106 11.1137C15.1044 11.1137 15.1027 11.1137 15.101 11.1137C15.0994 11.1137 15.0977 11.1137 15.0961 11.1137C15.0944 11.1137 15.0928 11.1137 15.0911 11.1137C15.0895 11.1137 15.0878 11.1137 15.0862 11.1137C15.0845 11.1137 15.0829 11.1137 15.0813 11.1137C15.0796 11.1137 15.078 11.1137 15.0764 11.1137C15.0748 11.1137 15.0731 11.1137 15.0715 11.1137C15.0699 11.1137 15.0683 11.1137 15.0667 11.1137C15.0651 11.1137 15.0635 11.1137 15.0618 11.1137C15.0602 11.1137 15.0586 11.1137 15.057 11.1137C15.0554 11.1137 15.0539 11.1137 15.0523 11.1137C15.0507 11.1137 15.0491 11.1137 15.0475 11.1137C15.0459 11.1137 15.0443 11.1137 15.0428 11.1137C15.0412 11.1137 15.0396 11.1137 15.0381 11.1137C15.0365 11.1137 15.0349 11.1137 15.0334 11.1137C15.0318 11.1137 15.0302 11.1137 15.0287 11.1137C15.0271 11.1137 15.0256 11.1137 15.024 11.1137C15.0225 11.1137 15.021 11.1137 15.0194 11.1137C15.0179 11.1137 15.0163 11.1137 15.0148 11.1137C15.0133 11.1137 15.0118 11.1137 15.0102 11.1137C15.0087 11.1137 15.0072 11.1137 15.0057 11.1137C15.0042 11.1137 15.0026 11.1137 15.0011 11.1137C14.9996 11.1137 14.9981 11.1137 14.9966 11.1137C14.9951 11.1137 14.9936 11.1137 14.9921 11.1137C14.9907 11.1137 14.9892 11.1137 14.9877 11.1137C14.9862 11.1137 14.9847 11.1137 14.9832 11.1137C14.9818 11.1137 14.9803 11.1137 14.9788 11.1137C14.9774 11.1137 14.9759 11.1137 14.9744 11.1137C14.973 11.1137 14.9715 11.1137 14.9701 11.1137C14.9686 11.1137 14.9672 11.1137 14.9657 11.1137C14.9643 11.1137 14.9628 11.1137 14.9614 11.1137C14.96 11.1137 14.9585 11.1137 14.9571 11.1137C14.9557 11.1137 14.9542 11.1137 14.9528 11.1137C14.9514 11.1137 14.95 11.1137 14.9486 11.1137C14.9472 11.1137 14.9457 11.1137 14.9443 11.1137C14.9429 11.1137 14.9415 11.1137 14.9401 11.1137C14.9387 11.1137 14.9373 11.1137 14.936 11.1137C14.9346 11.1137 14.9332 11.1137 14.9318 11.1137C14.9304 11.1137 14.9291 11.1137 14.9277 11.1137C14.9263 11.1137 14.9249 11.1137 14.9236 11.1137C14.9222 11.1137 14.9209 11.1137 14.9195 11.1137C14.9181 11.1137 14.9168 11.1137 14.9154 11.1137C14.9141 11.1137 14.9128 11.1137 14.9114 11.1137C14.9101 11.1137 14.9087 11.1137 14.9074 11.1137C14.9061 11.1137 14.9048 11.1137 14.9034 11.1137C14.9021 11.1137 14.9008 11.1137 14.8995 11.1137C14.8982 11.1137 14.8969 11.1137 14.8956 11.1137C14.8943 11.1137 14.893 11.1137 14.8917 11.1137C14.8904 11.1137 14.8891 11.1137 14.8878 11.1137C14.8865 11.1137 14.8852 11.1137 14.8839 11.1137C14.8827 11.1137 14.8814 11.1137 14.8801 11.1137C14.8788 11.1137 14.8776 11.1137 14.8763 11.1137C14.875 11.1137 14.8738 11.1137 14.8725 11.1137C14.8713 11.1137 14.87 11.1137 14.8688 11.1137C14.8676 11.1137 14.8663 11.1137 14.8651 11.1137C14.8638 11.1137 14.8626 11.1137 14.8614 11.1137C14.8602 11.1137 14.8589 11.1137 14.8577 11.1137C14.8565 11.1137 14.8553 11.1137 14.8541 11.1137C14.8529 11.1137 14.8517 11.1137 14.8505 11.1137C14.8493 11.1137 14.8481 11.1137 14.8469 11.1137C14.8457 11.1137 14.8445 11.1137 14.8433 11.1137C14.8421 11.1137 14.841 11.1137 14.8398 11.1137C14.8386 11.1137 14.8374 11.1137 14.8363 11.1137C14.8351 11.1137 14.834 11.1137 14.8328 11.1137C14.8317 11.1137 14.8305 11.1137 14.8294 11.1137C14.8282 11.1137 14.8271 11.1137 14.8259 11.1137C14.8248 11.1137 14.8237 11.1137 14.8225 11.1137C14.8214 11.1137 14.8203 11.1137 14.8192 11.1137C14.8181 11.1137 14.8169 11.1137 14.8158 11.1137C14.8147 11.1137 14.8136 11.1137 14.8125 11.1137C14.8114 11.1137 14.8103 11.1137 14.8092 11.1137C14.8081 11.1137 14.8071 11.1137 14.806 11.1137C14.8049 11.1137 14.8038 11.1137 14.8028 11.1137C14.8017 11.1137 14.8006 11.1137 14.7996 11.1137C14.7985 11.1137 14.7974 11.1137 14.7964 11.1137C14.7953 11.1137 14.7943 11.1137 14.7932 11.1137C14.7922 11.1137 14.7912 11.1137 14.7901 11.1137C14.7891 11.1137 14.7881 11.1137 14.787 11.1137C14.786 11.1137 14.785 11.1137 14.784 11.1137C14.783 11.1137 14.782 11.1137 14.781 11.1137C14.7799 11.1137 14.7789 11.1137 14.778 11.1137C14.777 11.1137 14.776 11.1137 14.775 11.1137C14.774 11.1137 14.773 11.1137 14.772 11.1137C14.7711 11.1137 14.7701 11.1137 14.7691 11.1137C14.7682 11.1137 14.7672 11.1137 14.7662 11.1137C14.7653 11.1137 14.7643 11.1137 14.7634 11.1137C14.7625 11.1137 14.7615 11.1137 14.7606 11.1137C14.7596 11.1137 14.7587 11.1137 14.7578 11.1137C14.7569 11.1137 14.7559 11.1137 14.755 11.1137C14.7541 11.1137 14.7532 11.1137 14.7523 11.1137C14.7514 11.1137 14.7505 11.1137 14.7496 11.1137C14.7487 11.1137 14.7478 11.1137 14.7469 11.1137C14.746 11.1137 14.7451 11.1137 14.7443 11.1137C14.7434 11.1137 14.7425 11.1137 14.7416 11.1137C14.7408 11.1137 14.7399 11.1137 14.7391 11.1137C14.7382 11.1137 14.7374 11.1137 14.7365 11.1137C14.7357 11.1137 14.7348 11.1137 14.734 11.1137C14.7332 11.1137 14.7323 11.1137 14.7315 11.1137C14.7307 11.1137 14.7298 11.1137 14.729 11.1137C14.7282 11.1137 14.7274 11.1137 14.7266 11.1137C14.7258 11.1137 14.725 11.1137 14.7242 11.1137C14.7234 11.1137 14.7226 11.1137 14.7218 11.1137C14.7211 11.1137 14.7203 11.1137 14.7195 11.1137C14.7187 11.1137 14.718 11.1137 14.7172 11.1137C14.7164 11.1137 14.7157 11.1137 14.7149 11.1137C14.7142 11.1137 14.7134 11.1137 14.7127 11.1137C14.7119 11.1137 14.7112 11.1137 14.7105 11.1137C14.7097 11.1137 14.709 11.1137 14.7083 11.1137C14.7076 11.1137 14.7068 11.1137 14.7061 11.1137C14.7054 11.1137 14.7047 11.1137 14.704 11.1137C14.7033 11.1137 14.7026 11.1137 14.7019 11.1137C14.7012 11.1137 14.7006 11.1137 14.6999 11.1137C14.6992 11.1137 14.6985 11.1137 14.6979 11.1137C14.6972 11.1137 14.6965 11.1137 14.6959 11.1137C14.6952 11.1137 14.6946 11.1137 14.6939 11.1137C14.6933 11.1137 14.6926 11.1137 14.692 11.1137C14.6914 11.1137 14.6907 11.1137 14.6901 11.1137C14.6895 11.1137 14.6889 11.1137 14.6883 11.1137C14.6876 11.1137 14.687 11.1137 14.6864 11.1137C14.6858 11.1137 14.6852 11.1137 14.6846 11.1137C14.684 11.1137 14.6835 11.1137 14.6829 11.1137C14.6823 11.1137 14.6817 11.1137 14.6812 11.1137C14.6806 11.1137 14.68 11.1137 14.6795 11.1137C14.6789 11.1137 14.6784 11.1137 14.6778 11.1137C14.6773 11.1137 14.6767 11.1137 14.6762 11.1137C14.6756 11.1137 14.6751 11.1137 14.6746 11.1137C14.6741 11.1137 14.6735 11.1137 14.673 11.1137C14.6725 11.1137 14.672 11.1137 14.6715 11.1137C14.671 11.1137 14.6705 11.1137 14.67 11.1137C14.6695 11.1137 14.669 11.1137 14.6686 11.1137C14.6681 11.1137 14.6676 11.1137 14.6671 11.1137C14.6667 11.1137 14.6662 11.1137 14.6657 11.1137C14.6653 11.1137 14.6648 11.1137 14.6644 11.1137C14.6639 11.1137 14.6635 11.1137 14.6631 11.1137C14.6626 11.1137 14.6622 11.1137 14.6618 11.1137C14.6614 11.1137 14.6609 11.1137 14.6605 11.1137C14.6601 11.1137 14.6597 11.1137 14.6593 11.1137C14.6589 11.1137 14.6585 11.1137 14.6581 11.1137C14.6577 11.1137 14.6574 11.1137 14.657 11.1137C14.6566 11.1137 14.6562 11.1137 14.6559 11.1137C14.6555 11.1137 14.6551 11.1137 14.6548 11.1137C14.6544 11.1137 14.6541 11.1137 14.6537 11.1137C14.6534 11.1137 14.6531 11.1137 14.6527 11.1137C14.6524 11.1137 14.6521 11.1137 14.6518 11.1137C14.6514 11.1137 14.6511 11.1137 14.6508 11.1137C14.6505 11.1137 14.6502 11.1137 14.6499 11.1137C14.6496 11.1137 14.6493 11.1137 14.6491 11.1137C14.6488 11.1137 14.6485 11.1137 14.6482 11.1137C14.648 11.1137 14.6477 11.1137 14.6474 11.1137C14.6472 11.1137 14.6469 11.1137 14.6467 11.1137C14.6464 11.1137 14.6462 11.1137 14.646 11.1137C14.6457 11.1137 14.6455 11.1137 14.6453 11.1137C14.645 11.1137 14.6448 11.1137 14.6446 11.1137C14.6444 11.1137 14.6442 11.1137 14.644 11.1137C14.6438 11.1137 14.6436 11.1137 14.6434 11.1137C14.6432 11.1137 14.6431 11.1137 14.6429 11.1137C14.6427 11.1137 14.6425 11.1137 14.6424 11.1137C14.6422 11.1137 14.6421 11.1137 14.6419 11.1137C14.6418 11.1137 14.6416 11.1137 14.6415 11.1137C14.6413 11.1137 14.6412 11.1137 14.6411 11.1137C14.641 11.1137 14.6408 11.1137 14.6407 11.1137C14.6406 11.1137 14.6405 11.1137 14.6404 11.1137C14.6403 11.1137 14.6402 11.1137 14.6401 11.1137C14.64 11.1137 14.64 11.1137 14.6399 11.1137C14.6398 11.1137 14.6397 11.1137 14.6397 11.1137C14.6396 11.1137 14.6396 11.1137 14.6395 11.1137C14.6395 11.1137 14.6394 11.1137 14.6394 11.1137C14.6393 11.1137 14.6393 11.1137 14.6393 11.1137C14.6393 11.1137 14.6392 11.1137 14.6392 11.1137C14.6392 11.1137 14.6392 11.1137 14.6392 11.8637C14.6392 12.6137 14.6392 12.6137 14.6392 12.6137C14.6392 12.6137 14.6393 12.6137 14.6393 12.6137C14.6393 12.6137 14.6393 12.6137 14.6394 12.6137C14.6394 12.6137 14.6395 12.6137 14.6395 12.6137C14.6396 12.6137 14.6396 12.6137 14.6397 12.6137C14.6397 12.6137 14.6398 12.6137 14.6399 12.6137C14.64 12.6137 14.64 12.6137 14.6401 12.6137C14.6402 12.6137 14.6403 12.6137 14.6404 12.6137C14.6405 12.6137 14.6406 12.6137 14.6407 12.6137C14.6408 12.6137 14.641 12.6137 14.6411 12.6137C14.6412 12.6137 14.6413 12.6137 14.6415 12.6137C14.6416 12.6137 14.6418 12.6137 14.6419 12.6137C14.6421 12.6137 14.6422 12.6137 14.6424 12.6137C14.6425 12.6137 14.6427 12.6137 14.6429 12.6137C14.6431 12.6137 14.6432 12.6137 14.6434 12.6137C14.6436 12.6137 14.6438 12.6137 14.644 12.6137C14.6442 12.6137 14.6444 12.6137 14.6446 12.6137C14.6448 12.6137 14.645 12.6137 14.6453 12.6137C14.6455 12.6137 14.6457 12.6137 14.646 12.6137C14.6462 12.6137 14.6464 12.6137 14.6467 12.6137C14.6469 12.6137 14.6472 12.6137 14.6474 12.6137C14.6477 12.6137 14.648 12.6137 14.6482 12.6137C14.6485 12.6137 14.6488 12.6137 14.6491 12.6137C14.6493 12.6137 14.6496 12.6137 14.6499 12.6137C14.6502 12.6137 14.6505 12.6137 14.6508 12.6137C14.6511 12.6137 14.6514 12.6137 14.6518 12.6137C14.6521 12.6137 14.6524 12.6137 14.6527 12.6137C14.6531 12.6137 14.6534 12.6137 14.6537 12.6137C14.6541 12.6137 14.6544 12.6137 14.6548 12.6137C14.6551 12.6137 14.6555 12.6137 14.6559 12.6137C14.6562 12.6137 14.6566 12.6137 14.657 12.6137C14.6574 12.6137 14.6577 12.6137 14.6581 12.6137C14.6585 12.6137 14.6589 12.6137 14.6593 12.6137C14.6597 12.6137 14.6601 12.6137 14.6605 12.6137C14.6609 12.6137 14.6614 12.6137 14.6618 12.6137C14.6622 12.6137 14.6626 12.6137 14.6631 12.6137C14.6635 12.6137 14.6639 12.6137 14.6644 12.6137C14.6648 12.6137 14.6653 12.6137 14.6657 12.6137C14.6662 12.6137 14.6667 12.6137 14.6671 12.6137C14.6676 12.6137 14.6681 12.6137 14.6686 12.6137C14.669 12.6137 14.6695 12.6137 14.67 12.6137C14.6705 12.6137 14.671 12.6137 14.6715 12.6137C14.672 12.6137 14.6725 12.6137 14.673 12.6137C14.6735 12.6137 14.6741 12.6137 14.6746 12.6137C14.6751 12.6137 14.6756 12.6137 14.6762 12.6137C14.6767 12.6137 14.6773 12.6137 14.6778 12.6137C14.6784 12.6137 14.6789 12.6137 14.6795 12.6137C14.68 12.6137 14.6806 12.6137 14.6812 12.6137C14.6817 12.6137 14.6823 12.6137 14.6829 12.6137C14.6835 12.6137 14.684 12.6137 14.6846 12.6137C14.6852 12.6137 14.6858 12.6137 14.6864 12.6137C14.687 12.6137 14.6876 12.6137 14.6883 12.6137C14.6889 12.6137 14.6895 12.6137 14.6901 12.6137C14.6907 12.6137 14.6914 12.6137 14.692 12.6137C14.6926 12.6137 14.6933 12.6137 14.6939 12.6137C14.6946 12.6137 14.6952 12.6137 14.6959 12.6137C14.6965 12.6137 14.6972 12.6137 14.6979 12.6137C14.6985 12.6137 14.6992 12.6137 14.6999 12.6137C14.7006 12.6137 14.7012 12.6137 14.7019 12.6137C14.7026 12.6137 14.7033 12.6137 14.704 12.6137C14.7047 12.6137 14.7054 12.6137 14.7061 12.6137C14.7068 12.6137 14.7076 12.6137 14.7083 12.6137C14.709 12.6137 14.7097 12.6137 14.7105 12.6137C14.7112 12.6137 14.7119 12.6137 14.7127 12.6137C14.7134 12.6137 14.7142 12.6137 14.7149 12.6137C14.7157 12.6137 14.7164 12.6137 14.7172 12.6137C14.718 12.6137 14.7187 12.6137 14.7195 12.6137C14.7203 12.6137 14.7211 12.6137 14.7218 12.6137C14.7226 12.6137 14.7234 12.6137 14.7242 12.6137C14.725 12.6137 14.7258 12.6137 14.7266 12.6137C14.7274 12.6137 14.7282 12.6137 14.729 12.6137C14.7298 12.6137 14.7307 12.6137 14.7315 12.6137C14.7323 12.6137 14.7332 12.6137 14.734 12.6137C14.7348 12.6137 14.7357 12.6137 14.7365 12.6137C14.7374 12.6137 14.7382 12.6137 14.7391 12.6137C14.7399 12.6137 14.7408 12.6137 14.7416 12.6137C14.7425 12.6137 14.7434 12.6137 14.7443 12.6137C14.7451 12.6137 14.746 12.6137 14.7469 12.6137C14.7478 12.6137 14.7487 12.6137 14.7496 12.6137C14.7505 12.6137 14.7514 12.6137 14.7523 12.6137C14.7532 12.6137 14.7541 12.6137 14.755 12.6137C14.7559 12.6137 14.7569 12.6137 14.7578 12.6137C14.7587 12.6137 14.7596 12.6137 14.7606 12.6137C14.7615 12.6137 14.7625 12.6137 14.7634 12.6137C14.7643 12.6137 14.7653 12.6137 14.7662 12.6137C14.7672 12.6137 14.7682 12.6137 14.7691 12.6137C14.7701 12.6137 14.7711 12.6137 14.772 12.6137C14.773 12.6137 14.774 12.6137 14.775 12.6137C14.776 12.6137 14.777 12.6137 14.778 12.6137C14.7789 12.6137 14.7799 12.6137 14.781 12.6137C14.782 12.6137 14.783 12.6137 14.784 12.6137C14.785 12.6137 14.786 12.6137 14.787 12.6137C14.7881 12.6137 14.7891 12.6137 14.7901 12.6137C14.7912 12.6137 14.7922 12.6137 14.7932 12.6137C14.7943 12.6137 14.7953 12.6137 14.7964 12.6137C14.7974 12.6137 14.7985 12.6137 14.7996 12.6137C14.8006 12.6137 14.8017 12.6137 14.8028 12.6137C14.8038 12.6137 14.8049 12.6137 14.806 12.6137C14.8071 12.6137 14.8081 12.6137 14.8092 12.6137C14.8103 12.6137 14.8114 12.6137 14.8125 12.6137C14.8136 12.6137 14.8147 12.6137 14.8158 12.6137C14.8169 12.6137 14.8181 12.6137 14.8192 12.6137C14.8203 12.6137 14.8214 12.6137 14.8225 12.6137C14.8237 12.6137 14.8248 12.6137 14.8259 12.6137C14.8271 12.6137 14.8282 12.6137 14.8294 12.6137C14.8305 12.6137 14.8317 12.6137 14.8328 12.6137C14.834 12.6137 14.8351 12.6137 14.8363 12.6137C14.8374 12.6137 14.8386 12.6137 14.8398 12.6137C14.841 12.6137 14.8421 12.6137 14.8433 12.6137C14.8445 12.6137 14.8457 12.6137 14.8469 12.6137C14.8481 12.6137 14.8493 12.6137 14.8505 12.6137C14.8517 12.6137 14.8529 12.6137 14.8541 12.6137C14.8553 12.6137 14.8565 12.6137 14.8577 12.6137C14.8589 12.6137 14.8602 12.6137 14.8614 12.6137C14.8626 12.6137 14.8638 12.6137 14.8651 12.6137C14.8663 12.6137 14.8676 12.6137 14.8688 12.6137C14.87 12.6137 14.8713 12.6137 14.8725 12.6137C14.8738 12.6137 14.875 12.6137 14.8763 12.6137C14.8776 12.6137 14.8788 12.6137 14.8801 12.6137C14.8814 12.6137 14.8827 12.6137 14.8839 12.6137C14.8852 12.6137 14.8865 12.6137 14.8878 12.6137C14.8891 12.6137 14.8904 12.6137 14.8917 12.6137C14.893 12.6137 14.8943 12.6137 14.8956 12.6137C14.8969 12.6137 14.8982 12.6137 14.8995 12.6137C14.9008 12.6137 14.9021 12.6137 14.9034 12.6137C14.9048 12.6137 14.9061 12.6137 14.9074 12.6137C14.9087 12.6137 14.9101 12.6137 14.9114 12.6137C14.9128 12.6137 14.9141 12.6137 14.9154 12.6137C14.9168 12.6137 14.9181 12.6137 14.9195 12.6137C14.9209 12.6137 14.9222 12.6137 14.9236 12.6137C14.9249 12.6137 14.9263 12.6137 14.9277 12.6137C14.9291 12.6137 14.9304 12.6137 14.9318 12.6137C14.9332 12.6137 14.9346 12.6137 14.936 12.6137C14.9373 12.6137 14.9387 12.6137 14.9401 12.6137C14.9415 12.6137 14.9429 12.6137 14.9443 12.6137C14.9457 12.6137 14.9472 12.6137 14.9486 12.6137C14.95 12.6137 14.9514 12.6137 14.9528 12.6137C14.9542 12.6137 14.9557 12.6137 14.9571 12.6137C14.9585 12.6137 14.96 12.6137 14.9614 12.6137C14.9628 12.6137 14.9643 12.6137 14.9657 12.6137C14.9672 12.6137 14.9686 12.6137 14.9701 12.6137C14.9715 12.6137 14.973 12.6137 14.9744 12.6137C14.9759 12.6137 14.9774 12.6137 14.9788 12.6137C14.9803 12.6137 14.9818 12.6137 14.9832 12.6137C14.9847 12.6137 14.9862 12.6137 14.9877 12.6137C14.9892 12.6137 14.9907 12.6137 14.9921 12.6137C14.9936 12.6137 14.9951 12.6137 14.9966 12.6137C14.9981 12.6137 14.9996 12.6137 15.0011 12.6137C15.0026 12.6137 15.0042 12.6137 15.0057 12.6137C15.0072 12.6137 15.0087 12.6137 15.0102 12.6137C15.0118 12.6137 15.0133 12.6137 15.0148 12.6137C15.0163 12.6137 15.0179 12.6137 15.0194 12.6137C15.021 12.6137 15.0225 12.6137 15.024 12.6137C15.0256 12.6137 15.0271 12.6137 15.0287 12.6137C15.0302 12.6137 15.0318 12.6137 15.0334 12.6137C15.0349 12.6137 15.0365 12.6137 15.0381 12.6137C15.0396 12.6137 15.0412 12.6137 15.0428 12.6137C15.0443 12.6137 15.0459 12.6137 15.0475 12.6137C15.0491 12.6137 15.0507 12.6137 15.0523 12.6137C15.0539 12.6137 15.0554 12.6137 15.057 12.6137C15.0586 12.6137 15.0602 12.6137 15.0618 12.6137C15.0635 12.6137 15.0651 12.6137 15.0667 12.6137C15.0683 12.6137 15.0699 12.6137 15.0715 12.6137C15.0731 12.6137 15.0748 12.6137 15.0764 12.6137C15.078 12.6137 15.0796 12.6137 15.0813 12.6137C15.0829 12.6137 15.0845 12.6137 15.0862 12.6137C15.0878 12.6137 15.0895 12.6137 15.0911 12.6137C15.0928 12.6137 15.0944 12.6137 15.0961 12.6137C15.0977 12.6137 15.0994 12.6137 15.101 12.6137C15.1027 12.6137 15.1044 12.6137 15.106 12.6137C15.1077 12.6137 15.1094 12.6137 15.1111 12.6137C15.1127 12.6137 15.1144 12.6137 15.1161 12.6137C15.1178 12.6137 15.1195 12.6137 15.1212 12.6137C15.1228 12.6137 15.1245 12.6137 15.1262 12.6137C15.1279 12.6137 15.1296 12.6137 15.1313 12.6137C15.133 12.6137 15.1347 12.6137 15.1365 12.6137C15.1382 12.6137 15.1399 12.6137 15.1416 12.6137C15.1433 12.6137 15.145 12.6137 15.1468 12.6137C15.1485 12.6137 15.1502 12.6137 15.1519 12.6137C15.1537 12.6137 15.1554 12.6137 15.1571 12.6137C15.1589 12.6137 15.1606 12.6137 15.1623 12.6137C15.1641 12.6137 15.1658 12.6137 15.1676 12.6137C15.1693 12.6137 15.1711 12.6137 15.1728 12.6137C15.1746 12.6137 15.1764 12.6137 15.1781 12.6137C15.1799 12.6137 15.1817 12.6137 15.1834 12.6137C15.1852 12.6137 15.187 12.6137 15.1887 12.6137C15.1905 12.6137 15.1923 12.6137 15.1941 12.6137C15.1959 12.6137 15.1976 12.6137 15.1994 12.6137C15.2012 12.6137 15.203 12.6137 15.2048 12.6137C15.2066 12.6137 15.2084 12.6137 15.2102 12.6137C15.212 12.6137 15.2138 12.6137 15.2156 12.6137C15.2174 12.6137 15.2192 12.6137 15.221 12.6137C15.2229 12.6137 15.2247 12.6137 15.2265 12.6137C15.2283 12.6137 15.2301 12.6137 15.232 12.6137C15.2338 12.6137 15.2356 12.6137 15.2374 12.6137C15.2393 12.6137 15.2411 12.6137 15.243 12.6137C15.2448 12.6137 15.2466 12.6137 15.2485 12.6137C15.2503 12.6137 15.2522 12.6137 15.254 12.6137C15.2559 12.6137 15.2577 12.6137 15.2596 12.6137C15.2614 12.6137 15.2633 12.6137 15.2652 12.6137C15.267 12.6137 15.2689 12.6137 15.2708 12.6137C15.2726 12.6137 15.2745 12.6137 15.2764 12.6137C15.2782 12.6137 15.2801 12.6137 15.282 12.6137C15.2839 12.6137 15.2858 12.6137 15.2876 12.6137C15.2895 12.6137 15.2914 12.6137 15.2933 12.6137C15.2952 12.6137 15.2971 12.6137 15.299 12.6137C15.3009 12.6137 15.3028 12.6137 15.3047 12.6137C15.3066 12.6137 15.3085 12.6137 15.3104 12.6137C15.3123 12.6137 15.3142 12.6137 15.3161 12.6137C15.3181 12.6137 15.32 12.6137 15.3219 12.6137C15.3238 12.6137 15.3257 12.6137 15.3277 12.6137C15.3296 12.6137 15.3315 12.6137 15.3335 12.6137C15.3354 12.6137 15.3373 12.6137 15.3393 12.6137C15.3412 12.6137 15.3431 12.6137 15.3451 12.6137C15.347 12.6137 15.349 12.6137 15.3509 12.6137C15.3529 12.6137 15.3548 12.6137 15.3568 12.6137C15.3587 12.6137 15.3607 12.6137 15.3626 12.6137C15.3646 12.6137 15.3665 12.6137 15.3685 12.6137C15.3705 12.6137 15.3724 12.6137 15.3744 12.6137C15.3764 12.6137 15.3783 12.6137 15.3803 12.6137C15.3823 12.6137 15.3843 12.6137 15.3863 12.6137C15.3882 12.6137 15.3902 12.6137 15.3922 12.6137C15.3942 12.6137 15.3962 12.6137 15.3982 12.6137C15.4001 12.6137 15.4021 12.6137 15.4041 12.6137C15.4061 12.6137 15.4081 12.6137 15.4101 12.6137C15.4121 12.6137 15.4141 12.6137 15.4161 12.6137C15.4181 12.6137 15.4202 12.6137 15.4222 12.6137C15.4242 12.6137 15.4262 12.6137 15.4282 12.6137C15.4302 12.6137 15.4322 12.6137 15.4343 12.6137C15.4363 12.6137 15.4383 12.6137 15.4403 12.6137C15.4423 12.6137 15.4444 12.6137 15.4464 12.6137C15.4484 12.6137 15.4505 12.6137 15.4525 12.6137C15.4545 12.6137 15.4566 12.6137 15.4586 12.6137C15.4607 12.6137 15.4627 12.6137 15.4647 12.6137C15.4668 12.6137 15.4688 12.6137 15.4709 12.6137C15.4729 12.6137 15.475 12.6137 15.477 12.6137C15.4791 12.6137 15.4812 12.6137 15.4832 12.6137C15.4853 12.6137 15.4873 12.6137 15.4894 12.6137C15.4915 12.6137 15.4935 12.6137 15.4956 12.6137C15.4977 12.6137 15.4997 12.6137 15.5018 12.6137C15.5039 12.6137 15.506 12.6137 15.508 12.6137C15.5101 12.6137 15.5122 12.6137 15.5143 12.6137C15.5164 12.6137 15.5184 12.6137 15.5205 12.6137C15.5226 12.6137 15.5247 12.6137 15.5268 12.6137C15.5289 12.6137 15.531 12.6137 15.5331 12.6137C15.5352 12.6137 15.5373 12.6137 15.5394 12.6137C15.5415 12.6137 15.5436 12.6137 15.5457 12.6137C15.5478 12.6137 15.5499 12.6137 15.552 12.6137C15.5541 12.6137 15.5562 12.6137 15.5583 12.6137C15.5604 12.6137 15.5626 12.6137 15.5647 12.6137C15.5668 12.6137 15.5689 12.6137 15.571 12.6137C15.5732 12.6137 15.5753 12.6137 15.5774 12.6137C15.5795 12.6137 15.5817 12.6137 15.5838 12.6137C15.5859 12.6137 15.588 12.6137 15.5902 12.6137C15.5923 12.6137 15.5945 12.6137 15.5966 12.6137C15.5987 12.6137 15.6009 12.6137 15.603 12.6137C15.6052 12.6137 15.6073 12.6137 15.6094 12.6137C15.6116 12.6137 15.6137 12.6137 15.6159 12.6137C15.618 12.6137 15.6202 12.6137 15.6223 12.6137C15.6245 12.6137 15.6267 12.6137 15.6288 12.6137C15.631 12.6137 15.6331 12.6137 15.6353 12.6137C15.6375 12.6137 15.6396 12.6137 15.6418 12.6137C15.644 12.6137 15.6461 12.6137 15.6483 12.6137C15.6505 12.6137 15.6526 12.6137 15.6548 12.6137C15.657 12.6137 15.6592 12.6137 15.6613 12.6137C15.6635 12.6137 15.6657 12.6137 15.6679 12.6137C15.6701 12.6137 15.6722 12.6137 15.6744 12.6137C15.6766 12.6137 15.6788 12.6137 15.681 12.6137C15.6832 12.6137 15.6854 12.6137 15.6876 12.6137C15.6897 12.6137 15.6919 12.6137 15.6941 12.6137C15.6963 12.6137 15.6985 12.6137 15.7007 12.6137C15.7029 12.6137 15.7051 12.6137 15.7073 12.6137C15.7095 12.6137 15.7117 12.6137 15.714 12.6137C15.7162 12.6137 15.7184 12.6137 15.7206 12.6137C15.7228 12.6137 15.725 12.6137 15.7272 12.6137C15.7294 12.6137 15.7316 12.6137 15.7339 12.6137C15.7361 12.6137 15.7383 12.6137 15.7405 12.6137C15.7427 12.6137 15.745 12.6137 15.7472 12.6137C15.7494 12.6137 15.7516 12.6137 15.7539 12.6137C15.7561 12.6137 15.7583 12.6137 15.7605 12.6137C15.7628 12.6137 15.765 12.6137 15.7672 12.6137C15.7695 12.6137 15.7717 12.6137 15.7739 12.6137C15.7762 12.6137 15.7784 12.6137 15.7807 12.6137C15.7829 12.6137 15.7851 12.6137 15.7874 12.6137C15.7896 12.6137 15.7919 12.6137 15.7941 12.6137C15.7964 12.6137 15.7986 12.6137 15.8009 12.6137C15.8031 12.6137 15.8054 12.6137 15.8076 12.6137C15.8099 12.6137 15.8121 12.6137 15.8144 12.6137C15.8166 12.6137 15.8189 12.6137 15.8211 12.6137C15.8234 12.6137 15.8257 12.6137 15.8279 12.6137C15.8302 12.6137 15.8324 12.6137 15.8347 12.6137C15.837 12.6137 15.8392 12.6137 15.8415 12.6137C15.8438 12.6137 15.846 12.6137 15.8483 12.6137C15.8506 12.6137 15.8528 12.6137 15.8551 12.6137C15.8574 12.6137 15.8597 12.6137 15.8619 12.6137C15.8642 12.6137 15.8665 12.6137 15.8688 12.6137C15.871 12.6137 15.8733 12.6137 15.8756 12.6137C15.8779 12.6137 15.8802 12.6137 15.8824 12.6137C15.8847 12.6137 15.887 12.6137 15.8893 12.6137C15.8916 12.6137 15.8939 12.6137 15.8962 12.6137C15.8984 12.6137 15.9007 12.6137 15.903 12.6137C15.9053 12.6137 15.9076 12.6137 15.9099 12.6137C15.9122 12.6137 15.9145 12.6137 15.9168 12.6137C15.9191 12.6137 15.9214 12.6137 15.9237 12.6137C15.926 12.6137 15.9283 12.6137 15.9306 12.6137C15.9329 12.6137 15.9352 12.6137 15.9375 12.6137C15.9398 12.6137 15.9421 12.6137 15.9444 12.6137C15.9467 12.6137 15.949 12.6137 15.9513 12.6137C15.9536 12.6137 15.9559 12.6137 15.9583 12.6137C15.9606 12.6137 15.9629 12.6137 15.9652 12.6137C15.9675 12.6137 15.9698 12.6137 15.9721 12.6137C15.9744 12.6137 15.9768 12.6137 15.9791 12.6137C15.9814 12.6137 15.9837 12.6137 15.986 12.6137C15.9883 12.6137 15.9907 12.6137 15.993 12.6137C15.9953 12.6137 15.9976 12.6137 16 12.6137C16.0023 12.6137 16.0046 12.6137 16.0069 12.6137C16.0093 12.6137 16.0116 12.6137 16.0139 12.6137C16.0162 12.6137 16.0186 12.6137 16.0209 12.6137C16.0232 12.6137 16.0256 12.6137 16.0279 12.6137C16.0302 12.6137 16.0325 12.6137 16.0349 12.6137C16.0372 12.6137 16.0396 12.6137 16.0419 12.6137C16.0442 12.6137 16.0466 12.6137 16.0489 12.6137C16.0512 12.6137 16.0536 12.6137 16.0559 12.6137C16.0582 12.6137 16.0606 12.6137 16.0629 12.6137C16.0653 12.6137 16.0676 12.6137 16.07 12.6137C16.0723 12.6137 16.0746 12.6137 16.077 12.6137C16.0793 12.6137 16.0817 12.6137 16.084 12.6137C16.0864 12.6137 16.0887 12.6137 16.0911 12.6137C16.0934 12.6137 16.0958 12.6137 16.0981 12.6137C16.1005 12.6137 16.1028 12.6137 16.1052 12.6137C16.1075 12.6137 16.1099 12.6137 16.1122 12.6137C16.1146 12.6137 16.1169 12.6137 16.1193 12.6137C16.1216 12.6137 16.124 12.6137 16.1263 12.6137C16.1287 12.6137 16.131 12.6137 16.1334 12.6137C16.1358 12.6137 16.1381 12.6137 16.1405 12.6137C16.1428 12.6137 16.1452 12.6137 16.1475 12.6137C16.1499 12.6137 16.1523 12.6137 16.1546 12.6137C16.157 12.6137 16.1593 12.6137 16.1617 12.6137C16.1641 12.6137 16.1664 12.6137 16.1688 12.6137C16.1712 12.6137 16.1735 12.6137 16.1759 12.6137C16.1783 12.6137 16.1806 12.6137 16.183 12.6137C16.1854 12.6137 16.1877 12.6137 16.1901 12.6137C16.1925 12.6137 16.1948 12.6137 16.1972 12.6137C16.1996 12.6137 16.2019 12.6137 16.2043 12.6137C16.2067 12.6137 16.209 12.6137 16.2114 12.6137C16.2138 12.6137 16.2161 12.6137 16.2185 12.6137C16.2209 12.6137 16.2233 12.6137 16.2256 12.6137C16.228 12.6137 16.2304 12.6137 16.2328 12.6137C16.2351 12.6137 16.2375 12.6137 16.2399 12.6137C16.2423 12.6137 16.2446 12.6137 16.247 12.6137C16.2494 12.6137 16.2518 12.6137 16.2541 12.6137C16.2565 12.6137 16.2589 12.6137 16.2613 12.6137C16.2636 12.6137 16.266 12.6137 16.2684 12.6137C16.2708 12.6137 16.2732 12.6137 16.2755 12.6137C16.2779 12.6137 16.2803 12.6137 16.2827 12.6137C16.285 12.6137 16.2874 12.6137 16.2898 12.6137C16.2922 12.6137 16.2946 12.6137 16.2969 12.6137C16.2993 12.6137 16.3017 12.6137 16.3041 12.6137C16.3065 12.6137 16.3089 12.6137 16.3112 12.6137C16.3136 12.6137 16.316 12.6137 16.3184 12.6137C16.3208 12.6137 16.3231 12.6137 16.3255 12.6137C16.3279 12.6137 16.3303 12.6137 16.3327 12.6137C16.3351 12.6137 16.3375 12.6137 16.3398 12.6137C16.3422 12.6137 16.3446 12.6137 16.347 12.6137C16.3494 12.6137 16.3518 12.6137 16.3541 12.6137C16.3565 12.6137 16.3589 12.6137 16.3613 12.6137C16.3637 12.6137 16.3661 12.6137 16.3685 12.6137C16.3708 12.6137 16.3732 12.6137 16.3756 12.6137C16.378 12.6137 16.3804 12.6137 16.3828 12.6137C16.3852 12.6137 16.3875 12.6137 16.3899 12.6137C16.3923 12.6137 16.3947 12.6137 16.3971 12.6137C16.3995 12.6137 16.4019 12.6137 16.4043 12.6137C16.4066 12.6137 16.409 12.6137 16.4114 12.6137C16.4138 12.6137 16.4162 12.6137 16.4186 12.6137C16.421 12.6137 16.4234 12.6137 16.4257 12.6137C16.4281 12.6137 16.4305 12.6137 16.4329 12.6137C16.4353 12.6137 16.4377 12.6137 16.4401 12.6137C16.4424 12.6137 16.4448 12.6137 16.4472 12.6137C16.4496 12.6137 16.452 12.6137 16.4544 12.6137C16.4568 12.6137 16.4592 12.6137 16.4615 12.6137C16.4639 12.6137 16.4663 12.6137 16.4687 12.6137C16.4711 12.6137 16.4735 12.6137 16.4759 12.6137C16.4783 12.6137 16.4806 12.6137 16.483 12.6137C16.4854 12.6137 16.4878 12.6137 16.4902 12.6137C16.4926 12.6137 16.495 12.6137 16.4973 12.6137C16.4997 12.6137 16.5021 12.6137 16.5045 12.6137C16.5069 12.6137 16.5093 12.6137 16.5117 12.6137C16.5141 12.6137 16.5164 12.6137 16.5188 12.6137C16.5212 12.6137 16.5236 12.6137 16.526 12.6137C16.5284 12.6137 16.5307 12.6137 16.5331 12.6137C16.5355 12.6137 16.5379 12.6137 16.5403 12.6137C16.5427 12.6137 16.5451 12.6137 16.5474 12.6137C16.5498 12.6137 16.5522 12.6137 16.5546 12.6137C16.557 12.6137 16.5593 12.6137 16.5617 12.6137C16.5641 12.6137 16.5665 12.6137 16.5689 12.6137C16.5713 12.6137 16.5736 12.6137 16.576 12.6137C16.5784 12.6137 16.5808 12.6137 16.5832 12.6137C16.5855 12.6137 16.5879 12.6137 16.5903 12.6137C16.5927 12.6137 16.5951 12.6137 16.5974 12.6137C16.5998 12.6137 16.6022 12.6137 16.6046 12.6137C16.607 12.6137 16.6093 12.6137 16.6117 12.6137C16.6141 12.6137 16.6165 12.6137 16.6188 12.6137C16.6212 12.6137 16.6236 12.6137 16.626 12.6137C16.6283 12.6137 16.6307 12.6137 16.6331 12.6137C16.6355 12.6137 16.6378 12.6137 16.6402 12.6137C16.6426 12.6137 16.645 12.6137 16.6473 12.6137C16.6497 12.6137 16.6521 12.6137 16.6545 12.6137C16.6568 12.6137 16.6592 12.6137 16.6616 12.6137C16.6639 12.6137 16.6663 12.6137 16.6687 12.6137C16.6711 12.6137 16.6734 12.6137 16.6758 12.6137C16.6782 12.6137 16.6805 12.6137 16.6829 12.6137C16.6853 12.6137 16.6876 12.6137 16.69 12.6137C16.6924 12.6137 16.6947 12.6137 16.6971 12.6137C16.6995 12.6137 16.7018 12.6137 16.7042 12.6137C16.7066 12.6137 16.7089 12.6137 16.7113 12.6137C16.7136 12.6137 16.716 12.6137 16.7184 12.6137C16.7207 12.6137 16.7231 12.6137 16.7254 12.6137C16.7278 12.6137 16.7302 12.6137 16.7325 12.6137C16.7349 12.6137 16.7372 12.6137 16.7396 12.6137C16.742 12.6137 16.7443 12.6137 16.7467 12.6137C16.749 12.6137 16.7514 12.6137 16.7537 12.6137C16.7561 12.6137 16.7584 12.6137 16.7608 12.6137C16.7631 12.6137 16.7655 12.6137 16.7678 12.6137C16.7702 12.6137 16.7726 12.6137 16.7749 12.6137C16.7773 12.6137 16.7796 12.6137 16.7819 12.6137C16.7843 12.6137 16.7866 12.6137 16.789 12.6137C16.7913 12.6137 16.7937 12.6137 16.796 12.6137C16.7984 12.6137 16.8007 12.6137 16.8031 12.6137C16.8054 12.6137 16.8077 12.6137 16.8101 12.6137C16.8124 12.6137 16.8148 12.6137 16.8171 12.6137C16.8194 12.6137 16.8218 12.6137 16.8241 12.6137C16.8265 12.6137 16.8288 12.6137 16.8311 12.6137C16.8335 12.6137 16.8358 12.6137 16.8381 12.6137C16.8405 12.6137 16.8428 12.6137 16.8451 12.6137C16.8475 12.6137 16.8498 12.6137 16.8521 12.6137C16.8545 12.6137 16.8568 12.6137 16.8591 12.6137C16.8614 12.6137 16.8638 12.6137 16.8661 12.6137C16.8684 12.6137 16.8708 12.6137 16.8731 12.6137C16.8754 12.6137 16.8777 12.6137 16.88 12.6137C16.8824 12.6137 16.8847 12.6137 16.887 12.6137C16.8893 12.6137 16.8916 12.6137 16.894 12.6137C16.8963 12.6137 16.8986 12.6137 16.9009 12.6137C16.9032 12.6137 16.9055 12.6137 16.9079 12.6137C16.9102 12.6137 16.9125 12.6137 16.9148 12.6137C16.9171 12.6137 16.9194 12.6137 16.9217 12.6137C16.924 12.6137 16.9263 12.6137 16.9286 12.6137C16.931 12.6137 16.9333 12.6137 16.9356 12.6137C16.9379 12.6137 16.9402 12.6137 16.9425 12.6137C16.9448 12.6137 16.9471 12.6137 16.9494 12.6137C16.9517 12.6137 16.954 12.6137 16.9563 12.6137C16.9586 12.6137 16.9609 12.6137 16.9632 12.6137C16.9655 12.6137 16.9677 12.6137 16.97 12.6137C16.9723 12.6137 16.9746 12.6137 16.9769 12.6137C16.9792 12.6137 16.9815 12.6137 16.9838 12.6137C16.9861 12.6137 16.9883 12.6137 16.9906 12.6137C16.9929 12.6137 16.9952 12.6137 16.9975 12.6137C16.9998 12.6137 17.002 12.6137 17.0043 12.6137C17.0066 12.6137 17.0089 12.6137 17.0111 12.6137C17.0134 12.6137 17.0157 12.6137 17.018 12.6137C17.0202 12.6137 17.0225 12.6137 17.0248 12.6137C17.0271 12.6137 17.0293 12.6137 17.0316 12.6137C17.0339 12.6137 17.0361 12.6137 17.0384 12.6137C17.0407 12.6137 17.0429 12.6137 17.0452 12.6137C17.0474 12.6137 17.0497 12.6137 17.052 12.6137C17.0542 12.6137 17.0565 12.6137 17.0587 12.6137C17.061 12.6137 17.0633 12.6137 17.0655 12.6137C17.0678 12.6137 17.07 12.6137 17.0723 12.6137C17.0745 12.6137 17.0768 12.6137 17.079 12.6137C17.0813 12.6137 17.0835 12.6137 17.0857 12.6137C17.088 12.6137 17.0902 12.6137 17.0925 12.6137C17.0947 12.6137 17.0969 12.6137 17.0992 12.6137C17.1014 12.6137 17.1037 12.6137 17.1059 12.6137C17.1081 12.6137 17.1104 12.6137 17.1126 12.6137C17.1148 12.6137 17.1171 12.6137 17.1193 12.6137C17.1215 12.6137 17.1237 12.6137 17.126 12.6137C17.1282 12.6137 17.1304 12.6137 17.1326 12.6137C17.1349 12.6137 17.1371 12.6137 17.1393 12.6137C17.1415 12.6137 17.1437 12.6137 17.1459 12.6137C17.1482 12.6137 17.1504 12.6137 17.1526 12.6137C17.1548 12.6137 17.157 12.6137 17.1592 12.6137C17.1614 12.6137 17.1636 12.6137 17.1658 12.6137C17.168 12.6137 17.1702 12.6137 17.1724 12.6137C17.1746 12.6137 17.1768 12.6137 17.179 12.6137C17.1812 12.6137 17.1834 12.6137 17.1856 12.6137C17.1878 12.6137 17.19 12.6137 17.1922 12.6137C17.1944 12.6137 17.1966 12.6137 17.1988 12.6137C17.2009 12.6137 17.2031 12.6137 17.2053 12.6137C17.2075 12.6137 17.2097 12.6137 17.2119 12.6137C17.214 12.6137 17.2162 12.6137 17.2184 12.6137C17.2206 12.6137 17.2227 12.6137 17.2249 12.6137C17.2271 12.6137 17.2292 12.6137 17.2314 12.6137C17.2336 12.6137 17.2357 12.6137 17.2379 12.6137C17.2401 12.6137 17.2422 12.6137 17.2444 12.6137C17.2466 12.6137 17.2487 12.6137 17.2509 12.6137C17.253 12.6137 17.2552 12.6137 17.2573 12.6137C17.2595 12.6137 17.2616 12.6137 17.2638 12.6137C17.2659 12.6137 17.2681 12.6137 17.2702 12.6137C17.2724 12.6137 17.2745 12.6137 17.2766 12.6137C17.2788 12.6137 17.2809 12.6137 17.2831 12.6137C17.2852 12.6137 17.2873 12.6137 17.2895 12.6137C17.2916 12.6137 17.2937 12.6137 17.2958 12.6137C17.298 12.6137 17.3001 12.6137 17.3022 12.6137C17.3043 12.6137 17.3065 12.6137 17.3086 12.6137C17.3107 12.6137 17.3128 12.6137 17.3149 12.6137C17.317 12.6137 17.3192 12.6137 17.3213 12.6137C17.3234 12.6137 17.3255 12.6137 17.3276 12.6137C17.3297 12.6137 17.3318 12.6137 17.3339 12.6137C17.336 12.6137 17.3381 12.6137 17.3402 12.6137C17.3423 12.6137 17.3444 12.6137 17.3465 12.6137C17.3486 12.6137 17.3507 12.6137 17.3528 12.6137C17.3548 12.6137 17.3569 12.6137 17.359 12.6137C17.3611 12.6137 17.3632 12.6137 17.3653 12.6137V11.1137ZM12.5038 4.75C13.8878 4.75 14.9476 4.75032 15.8058 4.8033C16.6632 4.85623 17.2625 4.95941 17.735 5.13891L18.2677 3.73671C17.5879 3.4784 16.8138 3.36268 15.8982 3.30615C14.9834 3.24968 13.8706 3.25 12.5038 3.25V4.75ZM17.735 5.13891C17.9119 5.20614 18.072 5.28454 18.2216 5.3762L19.0056 4.0974C18.7722 3.95433 18.5274 3.83539 18.2677 3.73671L17.735 5.13891ZM17.2513 4.13032V4.43781H18.7513V4.13032H17.2513ZM14.6392 9.88638H20.9444V8.38638H14.6392V9.88638ZM21.75 12.5C21.75 11.1255 21.7503 10.0077 21.693 9.08961L20.1959 9.18314C20.2497 10.0439 20.25 11.108 20.25 12.5H21.75ZM21.693 9.08961C21.6146 7.83481 21.4249 6.84759 20.9031 5.99576L19.624 6.77925C19.9527 7.316 20.1224 8.00702 20.1959 9.18314L21.693 9.08961ZM20.25 12.5C20.25 13.2875 20.25 13.9722 20.2399 14.5785L21.7397 14.6034C21.75 13.9821 21.75 13.2839 21.75 12.5H20.25ZM20.2399 14.5785C20.2074 16.537 20.0635 17.5032 19.624 18.2207L20.9031 19.0042C21.5829 17.8943 21.7077 16.5312 21.7397 14.6034L20.2399 14.5785ZM20.5002 15.3409H20.9898V13.8409H20.5002V15.3409Z" fill="#0E1818"/>
</svg>
