<svg width="20" height="21" viewBox="0 0 20 21" fill="none" xmlns="http://www.w3.org/2000/svg">
<path d="M19.1663 17.4229H0.833008V15.5895H1.74967V9.20127C1.74967 4.62893 5.44384 0.922852 9.99967 0.922852C14.5555 0.922852 18.2497 4.62893 18.2497 9.20127V15.5895H19.1663V17.4229ZM3.58301 15.5895H16.4163V9.20127C16.4163 5.64185 13.5435 2.75618 9.99967 2.75618C6.45584 2.75618 3.58301 5.64185 3.58301 9.20127V15.5895ZM7.70801 18.3395H12.2913C12.2913 18.9473 12.0499 19.5302 11.6201 19.96C11.1904 20.3897 10.6075 20.6312 9.99967 20.6312C9.39189 20.6312 8.80899 20.3897 8.37922 19.96C7.94945 19.5302 7.70801 18.9473 7.70801 18.3395Z" fill="black"/>
</svg>
