<svg width="25" height="24" viewBox="0 0 25 24" fill="none" xmlns="http://www.w3.org/2000/svg">
<path fill-rule="evenodd" clip-rule="evenodd" d="M12.2306 19.4229C15.7535 19.4229 18.6094 16.567 18.6094 13.0441C18.6094 9.5212 15.7535 6.66532 12.2306 6.66532C8.70772 6.66532 5.85185 9.5212 5.85185 13.0441C5.85185 16.567 8.70772 19.4229 12.2306 19.4229ZM12.2306 21.5491C16.9278 21.5491 20.7357 17.7413 20.7357 13.0441C20.7357 8.3469 16.9278 4.53906 12.2306 4.53906C7.53342 4.53906 3.72559 8.3469 3.72559 13.0441C3.72559 17.7413 7.53342 21.5491 12.2306 21.5491Z" fill="#4E4E4E"/>
<path d="M7.41048 3.56811C7.14478 3.04567 6.5027 2.83353 6.00649 3.14548C4.52588 4.07628 3.27264 5.32763 2.3396 6.80682C2.0269 7.30256 2.23806 7.94496 2.7601 8.21145C3.28214 8.47794 3.91661 8.2667 4.23922 7.77735C4.95564 6.69068 5.88639 5.76135 6.97414 5.04657C7.46398 4.7247 7.67617 4.09055 7.41048 3.56811Z" fill="#4E4E4E"/>
<path d="M17.0511 3.56811C17.3168 3.04567 17.9588 2.83353 18.4551 3.14548C19.9357 4.07628 21.1889 5.32763 22.1219 6.80682C22.4346 7.30256 22.2235 7.94496 21.7014 8.21145C21.1794 8.47794 20.5449 8.2667 20.2223 7.77735C19.5059 6.69068 18.5752 5.76135 17.4874 5.04657C16.9976 4.7247 16.7854 4.09055 17.0511 3.56811Z" fill="#4E4E4E"/>
<path fill-rule="evenodd" clip-rule="evenodd" d="M12.2306 7.73047C12.8178 7.73047 13.2937 8.20645 13.2937 8.7936V12.6058L15.1086 14.4206C15.5238 14.8358 15.5238 15.5089 15.1086 15.9241C14.6934 16.3393 14.0203 16.3393 13.6051 15.9241L11.7902 14.1092C11.3915 13.7105 11.1675 13.1697 11.1675 12.6058V8.7936C11.1675 8.20645 11.6435 7.73047 12.2306 7.73047Z" fill="#4E4E4E"/>
</svg>
