<svg width="14" height="14" viewBox="0 0 14 14" fill="none" xmlns="http://www.w3.org/2000/svg">
<path d="M11.0003 10.8867C10.61 10.749 10.272 10.4936 10.0329 10.1557C9.79376 9.81777 9.66537 9.41402 9.66537 9.00008C9.66537 8.58614 9.79376 8.18239 10.0329 7.84448C10.272 7.50657 10.61 7.25115 11.0003 7.11342V0.333416H12.3337V7.11342C12.724 7.25115 13.062 7.50657 13.3011 7.84448C13.5402 8.18239 13.6686 8.58614 13.6686 9.00008C13.6686 9.41402 13.5402 9.81777 13.3011 10.1557C13.062 10.4936 12.724 10.749 12.3337 10.8867V13.6667H11.0003V10.8867ZM6.33367 6.88675C5.94331 6.74901 5.60529 6.49359 5.36619 6.15568C5.1271 5.81778 4.9987 5.41402 4.9987 5.00008C4.9987 4.58614 5.1271 4.18239 5.36619 3.84448C5.60529 3.50657 5.94331 3.25115 6.33367 3.11342V0.333416H7.667V3.11342C8.05735 3.25115 8.39538 3.50657 8.63447 3.84448C8.87357 4.18239 9.00197 4.58614 9.00197 5.00008C9.00197 5.41402 8.87357 5.81778 8.63447 6.15568C8.39538 6.49359 8.05735 6.74901 7.667 6.88675V13.6667H6.33367V6.88675ZM1.667 10.8867C1.27664 10.749 0.938621 10.4936 0.699525 10.1557C0.460429 9.81777 0.332031 9.41402 0.332031 9.00008C0.332031 8.58614 0.460429 8.18239 0.699525 7.84448C0.938621 7.50657 1.27664 7.25115 1.667 7.11342L1.667 0.333416H3.00033L3.00033 7.11342C3.39069 7.25115 3.72871 7.50657 3.96781 7.84448C4.2069 8.18239 4.3353 8.58614 4.3353 9.00008C4.3353 9.41402 4.2069 9.81777 3.96781 10.1557C3.72871 10.4936 3.39069 10.749 3.00033 10.8867V13.6667H1.667L1.667 10.8867ZM3.00033 9.00008C3.00033 8.82327 2.93009 8.6537 2.80507 8.52868C2.68005 8.40365 2.51048 8.33342 2.33367 8.33342C2.15685 8.33342 1.98728 8.40365 1.86226 8.52868C1.73724 8.6537 1.667 8.82327 1.667 9.00008C1.667 9.17689 1.73724 9.34646 1.86226 9.47149C1.98728 9.59651 2.15685 9.66675 2.33367 9.66675C2.51048 9.66675 2.68005 9.59651 2.80507 9.47149C2.93009 9.34646 3.00033 9.17689 3.00033 9.00008V9.00008ZM7.667 5.00008C7.667 4.82327 7.59676 4.6537 7.47174 4.52868C7.34671 4.40365 7.17714 4.33342 7.00033 4.33342C6.82352 4.33342 6.65395 4.40365 6.52893 4.52868C6.4039 4.6537 6.33367 4.82327 6.33367 5.00008C6.33367 5.17689 6.4039 5.34646 6.52893 5.47149C6.65395 5.59651 6.82352 5.66675 7.00033 5.66675C7.17714 5.66675 7.34671 5.59651 7.47174 5.47149C7.59676 5.34646 7.667 5.17689 7.667 5.00008V5.00008ZM12.3337 9.00008C12.3337 8.82327 12.2634 8.6537 12.1384 8.52868C12.0134 8.40365 11.8438 8.33342 11.667 8.33342C11.4902 8.33342 11.3206 8.40365 11.1956 8.52868C11.0706 8.6537 11.0003 8.82327 11.0003 9.00008C11.0003 9.17689 11.0706 9.34646 11.1956 9.47149C11.3206 9.59651 11.4902 9.66675 11.667 9.66675C11.8438 9.66675 12.0134 9.59651 12.1384 9.47149C12.2634 9.34646 12.3337 9.17689 12.3337 9.00008V9.00008Z" fill="#637082"/>
</svg>
