<svg width="16" height="14" viewBox="0 0 16 14" fill="none" xmlns="http://www.w3.org/2000/svg">
<path d="M10.3043 5.45198L10.2097 5.35731C9.76351 4.92713 9.21518 4.61762 8.61633 4.45798C6.67833 3.93931 4.81699 5.03731 4.28833 7.01131C4.25966 7.11798 4.24433 7.23798 4.21899 7.53865C4.11633 8.78531 3.82299 9.71531 3.01899 10.6586C4.52566 11.2506 6.31099 11.668 7.66833 11.668C8.47518 11.667 9.25921 11.4001 9.89913 10.9087C10.539 10.4172 10.9992 9.72859 11.2083 8.94931C11.3726 8.33793 11.3756 7.69444 11.2172 7.08153C11.0587 6.46862 10.7442 5.9072 10.3043 5.45198ZM8.86033 3.14398L12.153 0.583314C12.2812 0.483728 12.4413 0.434334 12.6033 0.444399C12.7653 0.454463 12.9181 0.523295 13.033 0.637981L15.0297 2.63398C15.1445 2.7489 15.2135 2.90181 15.2235 3.06398C15.2336 3.22614 15.1841 3.38641 15.0843 3.51465L12.5243 6.80665C12.7048 7.54292 12.7157 8.31058 12.556 9.05165C12.3964 9.79272 12.0704 10.4878 11.6028 11.0845C11.1351 11.6811 10.538 12.1637 9.85656 12.4958C9.17508 12.8278 8.42706 13.0007 7.66899 13.0013C5.33366 13.0013 2.33366 12 0.666992 11C3.32033 8.99998 2.69833 7.79331 3.00033 6.66665C3.70566 4.03331 6.22833 2.49531 8.85966 3.14398H8.86033ZM11.1357 4.39665C11.179 4.43865 11.2223 4.48198 11.2643 4.52598L12.021 5.28198L13.671 3.16065L12.507 1.99665L10.3857 3.64665L11.1357 4.39665Z" fill="#A0A0A0"/>
</svg>
