<svg width="16" height="14" viewBox="0 0 16 14" fill="none" xmlns="http://www.w3.org/2000/svg">
<path d="M14.75 13.75C14.9489 13.75 15.1397 13.671 15.2803 13.5303C15.421 13.3897 15.5 13.1989 15.5 13V1C15.5 0.801087 15.421 0.610322 15.2803 0.469669C15.1397 0.329017 14.9489 0.25 14.75 0.25H1.25C1.05109 0.25 0.860322 0.329017 0.71967 0.469669C0.579018 0.610322 0.5 0.801087 0.5 1V13C0.5 13.1989 0.579018 13.3897 0.71967 13.5303C0.860322 13.671 1.05109 13.75 1.25 13.75H14.75ZM2 8.5V1.75H14V8.5H2ZM2 10H14V12.25H2V10Z" fill="#A0A0A0"/>
</svg>
