<svg width="21" height="21" viewBox="0 0 21 21" fill="none" xmlns="http://www.w3.org/2000/svg">
<path d="M0.899858 0.300414L19.7049 6.56841C19.8022 6.60068 19.8873 6.66208 19.9485 6.74432C20.0098 6.82655 20.0443 6.92562 20.0473 7.02812C20.0504 7.13061 20.0218 7.23157 19.9656 7.31731C19.9093 7.40304 19.8281 7.46941 19.7329 7.50741L10.9999 11.0004L6.57486 19.8504C6.52983 19.9405 6.45863 20.0149 6.37058 20.0639C6.28254 20.1129 6.18176 20.1341 6.08145 20.1248C5.98113 20.1155 5.88597 20.0761 5.80842 20.0118C5.73087 19.9475 5.67456 19.8613 5.64686 19.7644L0.259858 0.911414C0.234904 0.823829 0.234346 0.731091 0.258244 0.643212C0.282141 0.555333 0.329586 0.475649 0.395458 0.412762C0.46133 0.349875 0.543126 0.306173 0.632019 0.286374C0.720911 0.266574 0.813523 0.271429 0.899858 0.300414Z" fill="white"/>
</svg>
