<svg width="16" height="16" viewBox="0 0 16 16" fill="none" xmlns="http://www.w3.org/2000/svg">
<path d="M1.50498 11.7501C1.18794 11.2018 0.941483 10.6157 0.771484 10.0056C1.14146 9.81744 1.45218 9.53058 1.66926 9.17678C1.88633 8.82298 2.00131 8.41603 2.00146 8.00095C2.00162 7.58586 1.88695 7.17882 1.67014 6.82486C1.45332 6.4709 1.14282 6.18381 0.772984 5.99536C1.11201 4.76948 1.75753 3.65008 2.64873 2.74261C2.9968 2.9689 3.4007 3.09448 3.81572 3.10545C4.23074 3.11641 4.6407 3.01233 5.00023 2.80474C5.35976 2.59714 5.65485 2.29411 5.85283 1.92919C6.05081 1.56427 6.14396 1.15169 6.12198 0.737111C7.35357 0.418828 8.64591 0.419344 9.87723 0.738611C9.85545 1.15318 9.94879 1.5657 10.1469 1.93052C10.345 2.29533 10.6403 2.59822 10.9999 2.80566C11.3595 3.0131 11.7694 3.117 12.1844 3.10588C12.5994 3.09475 13.0033 2.96902 13.3512 2.74261C13.7855 3.18511 14.171 3.68836 14.495 4.25011C14.8197 4.81186 15.0627 5.39761 15.2285 5.99461C14.8585 6.18279 14.5478 6.46964 14.3307 6.82344C14.1136 7.17724 13.9987 7.58419 13.9985 7.99928C13.9983 8.41436 14.113 8.8214 14.3298 9.17536C14.5466 9.52932 14.8571 9.81641 15.227 10.0049C14.888 11.2307 14.2424 12.3501 13.3512 13.2576C13.0032 13.0313 12.5993 12.9057 12.1842 12.8948C11.7692 12.8838 11.3593 12.9879 10.9997 13.1955C10.6402 13.4031 10.3451 13.7061 10.1471 14.071C9.94916 14.4359 9.856 14.8485 9.87798 15.2631C8.6464 15.5814 7.35406 15.5809 6.12273 15.2616C6.14452 14.847 6.05118 14.4345 5.85305 14.0697C5.65492 13.7049 5.35972 13.402 5.00011 13.1946C4.64051 12.9871 4.23053 12.8832 3.81553 12.8943C3.40053 12.9055 2.9967 13.0312 2.64873 13.2576C2.20548 12.8053 1.82118 12.2988 1.50498 11.7501ZM5.74998 11.8971C6.5492 12.3581 7.15012 13.0979 7.43748 13.9746C7.81173 14.0099 8.18748 14.0106 8.56173 13.9754C8.84928 13.0985 9.45048 12.3587 10.25 11.8979C11.0489 11.4356 11.9904 11.2847 12.8937 11.4741C13.1112 11.1681 13.2987 10.8419 13.4547 10.5006C12.8393 9.81319 12.4993 8.92277 12.5 8.00011C12.5 7.05511 12.8525 6.17236 13.4547 5.49961C13.2976 5.15847 13.1093 4.83259 12.8922 4.52611C11.9894 4.71534 11.0486 4.56472 10.25 4.10311C9.45076 3.64214 8.84985 2.90235 8.56248 2.02561C8.18823 1.99036 7.81248 1.98961 7.43823 2.02486C7.15068 2.90172 6.54949 3.64153 5.74998 4.10236C4.95107 4.5646 4.00959 4.7155 3.10623 4.52611C2.88916 4.83233 2.70133 5.15826 2.54523 5.49961C3.16066 6.18703 3.50065 7.07745 3.49998 8.00011C3.49998 8.94511 3.14748 9.82786 2.54523 10.5006C2.70234 10.8418 2.89064 11.1676 3.10773 11.4741C4.01052 11.2849 4.95139 11.4355 5.74998 11.8971ZM7.99998 10.2501C7.40325 10.2501 6.83095 10.0131 6.40899 9.5911C5.98704 9.16915 5.74998 8.59685 5.74998 8.00011C5.74998 7.40337 5.98704 6.83108 6.40899 6.40912C6.83095 5.98716 7.40325 5.75011 7.99998 5.75011C8.59672 5.75011 9.16902 5.98716 9.59097 6.40912C10.0129 6.83108 10.25 7.40337 10.25 8.00011C10.25 8.59685 10.0129 9.16915 9.59097 9.5911C9.16902 10.0131 8.59672 10.2501 7.99998 10.2501ZM7.99998 8.75011C8.1989 8.75011 8.38966 8.67109 8.53031 8.53044C8.67097 8.38979 8.74998 8.19902 8.74998 8.00011C8.74998 7.8012 8.67097 7.61043 8.53031 7.46978C8.38966 7.32913 8.1989 7.25011 7.99998 7.25011C7.80107 7.25011 7.61031 7.32913 7.46965 7.46978C7.329 7.61043 7.24998 7.8012 7.24998 8.00011C7.24998 8.19902 7.329 8.38979 7.46965 8.53044C7.61031 8.67109 7.80107 8.75011 7.99998 8.75011Z" fill="white"/>
</svg>
