<svg width="16" height="12" viewBox="0 0 16 12" fill="none" xmlns="http://www.w3.org/2000/svg">
<path d="M7.49772 8.00008H3.16972L1.83639 11.3334H0.400391L4.66706 0.666748H6.00039L10.2671 11.3334H8.83106L7.49772 8.00008ZM6.96439 6.66675L5.33372 2.59008L3.70306 6.66675H6.96439ZM14.0004 6.35675V6.00008H15.3337V11.3334H14.0004V10.9767C13.595 11.2106 13.1352 11.3336 12.6672 11.3334C12.1992 11.3333 11.7395 11.2099 11.3342 10.9758C10.929 10.7418 10.5925 10.4051 10.3585 9.99982C10.1246 9.5945 10.0014 9.13474 10.0014 8.66675C10.0014 8.19875 10.1246 7.739 10.3585 7.33367C10.5925 6.92835 10.929 6.59174 11.3342 6.35765C11.7395 6.12356 12.1992 6.00024 12.6672 6.00008C13.1352 5.99992 13.595 6.12293 14.0004 6.35675ZM12.6671 10.0001C13.0207 10.0001 13.3598 9.85961 13.6099 9.60956C13.8599 9.35951 14.0004 9.02037 14.0004 8.66675C14.0004 8.31313 13.8599 7.97399 13.6099 7.72394C13.3598 7.47389 13.0207 7.33342 12.6671 7.33342C12.3134 7.33342 11.9743 7.47389 11.7242 7.72394C11.4742 7.97399 11.3337 8.31313 11.3337 8.66675C11.3337 9.02037 11.4742 9.35951 11.7242 9.60956C11.9743 9.85961 12.3134 10.0001 12.6671 10.0001Z" fill="#A0A0A0" fill-opacity="0.4"/>
</svg>
