<svg width="21" height="22" viewBox="0 0 21 22" fill="none" xmlns="http://www.w3.org/2000/svg">
<path fill-rule="evenodd" clip-rule="evenodd" d="M16.3456 11.3162H18.2316C19.2732 11.3162 20.1176 12.1606 20.1176 13.2022C20.1176 14.2438 19.2732 15.0882 18.2316 15.0882H1.88603C0.844404 15.0882 0 14.2438 0 13.2022C0 12.1606 0.844404 11.3162 1.88603 11.3162H3.77206L4.47401 4.99865C4.7902 2.15291 7.19557 0 10.0588 0C12.9221 0 15.3274 2.15291 15.6436 4.99865L16.3456 11.3162Z" fill="#B0B7C3"/>
<path opacity="0.3" d="M12.5734 18.8603C12.5734 17.4715 11.4475 16.3456 10.0587 16.3456C8.66982 16.3456 7.54395 17.4715 7.54395 18.8603C7.54395 20.2491 8.66982 21.375 10.0587 21.375C11.4475 21.375 12.5734 20.2491 12.5734 18.8603Z" fill="#B0B7C3"/>
</svg>
