<svg width="151" height="243" viewBox="0 0 151 243" fill="none" xmlns="http://www.w3.org/2000/svg">
<g filter="url(#filter0_f_8752_42705)">
<path d="M114.12 58.0028C115.278 57.965 115.863 58.5312 115.884 59.3509L116.491 81.3831C116.512 82.1697 116.867 82.7976 117.333 83.2271C117.808 83.6625 118.431 83.8444 119.02 83.8331C120.2 83.8165 121.435 82.9344 121.652 81.5099L124.663 61.8499C124.912 60.7314 125.515 60.3305 126.433 60.452C127.548 60.596 127.885 61.427 127.793 62.2249L125.138 84.7703C124.788 87.7273 124.936 89.7531 125.755 91.8128C121.8 91.9628 119.02 92.6013 116.426 94.0974C115.154 94.7266 116.246 96.6257 117.421 95.8218C120.168 94.2188 122.478 94.0648 124.599 93.956C125.658 93.9062 126.668 93.8843 127.657 93.6474C128.853 93.3606 129.81 92.7891 130.432 92.0125C133.464 88.2623 136.384 86.5551 138.455 86.208C139.875 85.971 140.644 86.4164 140.902 86.8949C141.152 87.3748 141.136 88.261 139.929 89.5162C135.528 93.7622 132.277 101.577 127.236 104.457C125.388 105.509 123.893 106.351 122.872 107.64C121.845 108.928 121.358 110.855 121.354 111.89L121.341 117.97C121.341 120.333 120.299 121.991 118.628 123.179C116.956 124.368 114.635 125.002 112.303 125.002C109.97 125.002 107.639 124.368 105.972 123.179C104.301 121.989 103.252 120.333 103.252 117.97V115.066C103.252 111.533 102.079 109.274 101.564 107.544C100.572 104.196 100.512 101.321 100.233 98.2173C99.9581 95.1109 99.4399 91.7908 97.4965 87.8367C97.4965 87.8367 93.289 79.3458 91.2257 75.0824C90.7787 74.1691 90.8946 73.585 91.5694 73.1881C92.1158 72.8702 92.8973 72.9631 93.5524 74.0636C95.8093 77.8357 100.369 85.2765 100.382 85.2931C101.103 86.4992 102.522 86.8842 103.587 86.4501C104.652 86.0146 105.412 84.7376 105.089 83.3716L100.392 63.3207C100.14 62.2699 100.71 61.6911 101.55 61.4979C102.637 61.2463 103.205 61.8185 103.398 62.5719L108.357 82.65C108.734 84.164 110.104 84.758 111.263 84.5669C112.415 84.3797 113.528 83.4259 113.459 81.8348C113.125 74.4393 112.46 59.6361 112.46 59.6361C112.509 58.4467 113.18 58.0331 114.121 58.0013L114.12 58.0028ZM114.032 56.0035C111.924 56.0699 110.411 57.5959 110.472 59.7306C110.525 61.4604 111.137 74.5324 111.471 81.9293C111.471 82.3521 111.259 82.5406 110.941 82.5944C110.619 82.6429 110.378 82.5679 110.279 82.1663L105.31 62.0865C104.829 60.155 102.983 59.0857 101.067 59.5582C99.1046 60.0487 98.0295 61.955 98.4615 63.7823L103.159 83.8332C103.284 84.3563 103.083 84.5003 102.841 84.5985C102.3 84.6915 102.224 84.5003 102.077 84.258L95.2493 73.0345C94.1683 71.2178 92.1241 70.5998 90.7146 71.3817C88.9443 72.3733 88.5907 74.2352 89.4427 75.9749C91.5177 80.2302 95.718 88.7291 95.718 88.7291C97.5312 92.413 97.9894 95.3813 98.2579 98.3994C98.5265 101.417 98.5799 104.495 99.6569 108.124C100.263 110.161 101.267 111.979 101.267 115.066V117.97C101.267 120.965 102.737 123.328 104.828 124.814C106.925 126.306 109.618 127 112.299 127C114.981 127 117.674 126.306 119.771 124.814C121.862 123.328 123.321 120.965 123.321 117.97L123.327 112.044C123.338 111.152 123.639 109.753 124.415 108.889C125.562 107.616 126.817 107.056 128.233 106.179C133.546 102.875 136.672 96.0856 141.352 90.9036C142.915 89.2721 143.411 87.385 142.647 85.9473C141.882 84.5116 139.872 83.8007 137.928 84.2633C133.46 85.3313 130.909 88.2757 128.915 90.7277C128.631 91.0682 128.178 91.4273 127.877 91.3178C127.097 89.5329 126.769 87.9141 127.108 85.0055L129.758 62.455C129.8 60.1419 128.643 58.8202 126.714 58.4744C124.649 58.104 123.04 59.5637 122.706 61.5417C122.427 63.2104 120.697 74.647 119.691 81.2001C119.549 82.1592 118.484 81.822 118.472 81.2837L117.866 59.2957C117.806 57.0721 116.129 55.9363 114.032 56.0028L114.032 56.0035Z" fill="url(#paint0_linear_8752_42705)"/>
</g>
<circle cx="57" cy="57" r="56" transform="matrix(-1 0 0 1 171 31)" stroke="url(#paint1_linear_8752_42705)" stroke-width="2"/>
<path fill-rule="evenodd" clip-rule="evenodd" d="M107.226 64.5068C107.621 62.3841 109.151 60.4095 111.076 59.4716C113.199 58.435 115.272 58.435 117.395 59.521C119.32 60.4589 121.344 63.174 121.344 64.803C121.344 66.1852 122.776 66.5307 128.996 66.5307C134.278 66.5307 137.684 65.6422 139.659 63.7663C141.09 62.3841 142.571 62.4335 142.571 63.8157C142.571 64.803 139.708 67.4687 138.326 67.8142C137.338 68.061 137.635 68.7521 142.62 77.539C148.199 87.4119 148.495 88.2511 147.409 91.904C146.619 94.5697 142.818 98.3708 140.3 99.0619C131.958 101.382 123.763 96.1988 123.813 88.646C123.862 86.8689 124.701 85.0424 128.749 77.8846C132.698 70.9735 133.488 69.2458 132.797 69.147C132.353 69.0977 129.489 68.9496 126.478 68.9002L120.999 68.7521L119.913 70.3318C118.925 71.9115 118.876 72.4051 118.876 89.2384V106.516H117.642H116.408V89.732V72.9481H114.433H112.459V89.732V106.516H111.225H109.99V89.0903L109.941 71.714L108.608 70.2331L107.275 68.7521L101.253 68.999L95.2305 69.2458L100.118 77.9833C105.597 87.7081 105.943 89.0409 104.017 93.0394C101.993 97.2848 97.8962 99.6049 92.6636 99.6049C86.6905 99.5555 81.6553 95.1621 81.0629 89.3371C80.8161 87.1157 81.0629 86.6221 86.1968 77.5884L91.5282 68.1598L89.4055 67.0244C88.2208 66.3826 86.9867 65.4447 86.7398 64.9511C85.7032 63.0259 87.4309 61.693 88.8131 63.3714C90.3434 65.2473 93.3547 66.1852 98.4886 66.432C105.4 66.7282 106.831 66.432 107.226 64.5068ZM118.136 67.9623C119.172 65.9877 119.074 64.3093 117.79 62.8778C115.815 60.6564 112.459 60.8045 110.78 63.174C109.793 64.5562 109.793 66.1852 110.731 67.9623C111.521 69.542 112.36 69.9862 114.433 69.9862C116.507 69.9862 117.346 69.542 118.136 67.9623ZM101.599 86.0297L97.6 78.8718C95.3786 74.9227 93.4534 71.5659 93.2559 71.3684C93.1078 71.171 91.0345 74.3797 88.7144 78.5263L84.4691 86.0297L88.5663 86.1778C90.8371 86.2271 94.6875 86.2271 97.1557 86.1778L101.599 86.0297ZM144.496 86.2765L140.251 78.7237C139.466 77.3378 138.726 76.0253 138.087 74.8914C136.837 72.6729 135.972 71.1376 135.907 71.0723C135.759 70.9242 127.86 84.6475 127.367 85.8816C127.268 86.079 131.069 86.2765 135.857 86.2765H144.496ZM89.1093 96.2481C94.5394 98.6176 101.006 95.6557 102.339 90.0776L102.685 88.7447H93.2559H83.8273V89.8801C83.8273 91.8053 86.5917 95.1127 89.1093 96.2481ZM137.24 96.9886C141.337 96.4949 144.348 93.928 145.237 90.0776L145.533 88.7447H135.907C129.638 88.7447 126.281 88.9422 126.281 89.2384C126.281 90.5712 127.762 93.0888 129.391 94.5204C131.711 96.5443 134.228 97.3341 137.24 96.9886ZM85.0604 113.252H144.791C145.569 113.252 146.2 113.883 146.2 114.661C146.2 115.439 145.569 116.07 144.791 116.07H85.0603C84.2824 116.07 83.6517 115.439 83.6517 114.661C83.6517 113.883 84.2824 113.252 85.0604 113.252ZM81.8517 114.661C81.8517 112.889 83.2882 111.452 85.0604 111.452H144.791C146.563 111.452 148 112.889 148 114.661C148 116.433 146.563 117.87 144.791 117.87H85.0603C83.2882 117.87 81.8517 116.433 81.8517 114.661Z" fill="url(#paint2_linear_8752_42705)"/>
<line x1="4.3818" y1="-41.3228" x2="119.382" y2="94.6772" stroke="url(#paint3_linear_8752_42705)"/>
<line y1="92.5" x2="168" y2="92.5" stroke="url(#paint4_linear_8752_42705)"/>
<line x1="113.5" y1="243" x2="113.5" y2="-35" stroke="url(#paint5_linear_8752_42705)"/>
<defs>
<filter id="filter0_f_8752_42705" x="62" y="29" width="108" height="125" filterUnits="userSpaceOnUse" color-interpolation-filters="sRGB">
<feFlood flood-opacity="0" result="BackgroundImageFix"/>
<feBlend mode="normal" in="SourceGraphic" in2="BackgroundImageFix" result="shape"/>
<feGaussianBlur stdDeviation="13.5" result="effect1_foregroundBlur_8752_42705"/>
</filter>
<linearGradient id="paint0_linear_8752_42705" x1="116" y1="55" x2="116" y2="119.604" gradientUnits="userSpaceOnUse">
<stop stop-color="#40BCBC"/>
<stop offset="1" stop-color="#2A7575" stop-opacity="0"/>
</linearGradient>
<linearGradient id="paint1_linear_8752_42705" x1="23.5" y1="-9" x2="88" y2="114" gradientUnits="userSpaceOnUse">
<stop stop-color="#40BCBC"/>
<stop offset="1" stop-color="#2A7575" stop-opacity="0"/>
</linearGradient>
<linearGradient id="paint2_linear_8752_42705" x1="114.5" y1="58.7002" x2="114.5" y2="117.87" gradientUnits="userSpaceOnUse">
<stop stop-color="#40BCBC"/>
<stop offset="1" stop-opacity="0"/>
</linearGradient>
<linearGradient id="paint3_linear_8752_42705" x1="-8.8136" y1="-50.3662" x2="76.7784" y2="49.0931" gradientUnits="userSpaceOnUse">
<stop stop-color="#137E8A" stop-opacity="0"/>
<stop offset="0.500762" stop-color="#40BCBC" stop-opacity="0.859615"/>
<stop offset="1" stop-color="#137E8A" stop-opacity="0"/>
</linearGradient>
<linearGradient id="paint4_linear_8752_42705" x1="-14.5506" y1="96.7368" x2="109.22" y2="95.7242" gradientUnits="userSpaceOnUse">
<stop stop-color="#137E8A" stop-opacity="0"/>
<stop offset="0.500762" stop-color="#40BCBC" stop-opacity="0.859615"/>
<stop offset="1" stop-color="#137E8A" stop-opacity="0"/>
</linearGradient>
<linearGradient id="paint5_linear_8752_42705" x1="117" y1="243" x2="114.46" y2="-56.9785" gradientUnits="userSpaceOnUse">
<stop stop-color="#40BCBC" stop-opacity="0"/>
<stop offset="0.262674" stop-color="#40BCBC" stop-opacity="0.607985"/>
<stop offset="0.325186" stop-color="#137E8A" stop-opacity="0.0384285"/>
<stop offset="0.544052" stop-color="#137E8A" stop-opacity="0"/>
<stop offset="0.69875" stop-color="#137E8A" stop-opacity="0.0404399"/>
<stop offset="0.792903" stop-color="#40BCBC" stop-opacity="0.859615"/>
<stop offset="1" stop-color="#137E8A" stop-opacity="0"/>
</linearGradient>
</defs>
</svg>
