<svg width="1920" height="333" viewBox="0 0 1920 333" fill="none" xmlns="http://www.w3.org/2000/svg">
<path d="M-230.72 326V327H-229.72V326H-230.72ZM-230.72 180.08V179.08H-231.72V180.08H-230.72ZM-64.16 180.08V181.08H-63.16V180.08H-64.16ZM-64.16 144.56H-63.16V143.56H-64.16V144.56ZM-230.72 144.56H-231.72V145.56H-230.72V144.56ZM-230.72 41.36V40.36H-231.72V41.36H-230.72ZM-60.8 41.36V42.36H-59.8V41.36H-60.8ZM-60.8 5.83997H-59.8V4.83997H-60.8V5.83997ZM-270.56 5.83997V4.83997H-271.56V5.83997H-270.56ZM-270.56 326H-271.56V327H-270.56V326ZM-229.72 326V180.08H-231.72V326H-229.72ZM-230.72 181.08H-64.16V179.08H-230.72V181.08ZM-63.16 180.08V144.56H-65.16V180.08H-63.16ZM-64.16 143.56H-230.72V145.56H-64.16V143.56ZM-229.72 144.56V41.36H-231.72V144.56H-229.72ZM-230.72 42.36H-60.8V40.36H-230.72V42.36ZM-59.8 41.36V5.83997H-61.8V41.36H-59.8ZM-60.8 4.83997H-270.56V6.83997H-60.8V4.83997ZM-271.56 5.83997V326H-269.56V5.83997H-271.56ZM-270.56 327H-230.72V325H-270.56V327ZM256.866 5.83997H257.866V4.83997H256.866V5.83997ZM217.026 5.83997V4.83997H216.026V5.83997H217.026ZM35.5862 5.83997H36.5862V4.83997H35.5862V5.83997ZM-4.25375 5.83997V4.83997H-5.25375V5.83997H-4.25375ZM126.306 332.76C169.943 332.76 202.872 319.978 224.888 297.053C246.896 274.135 257.866 241.216 257.866 201.2H255.866C255.866 240.864 244.996 273.225 223.445 295.667C201.9 318.102 169.55 330.76 126.306 330.76V332.76ZM257.866 201.2V5.83997H255.866V201.2H257.866ZM256.866 4.83997H217.026V6.83997H256.866V4.83997ZM216.026 5.83997V200.72H218.026V5.83997H216.026ZM216.026 200.72C216.026 229.827 208.154 253.437 193.072 269.761C178 286.074 155.611 295.24 126.306 295.24V297.24C156.041 297.24 179.012 287.926 194.541 271.119C210.058 254.323 218.026 230.173 218.026 200.72H216.026ZM126.306 295.24C97.0014 295.24 74.6121 286.074 59.5407 269.761C44.4584 253.437 36.5862 229.827 36.5862 200.72H34.5862C34.5862 230.173 42.5541 254.323 58.0717 271.119C73.6004 287.926 96.5711 297.24 126.306 297.24V295.24ZM36.5862 200.72V5.83997H34.5862V200.72H36.5862ZM35.5862 4.83997H-4.25375V6.83997H35.5862V4.83997ZM-5.25375 5.83997V201.68H-3.25375V5.83997H-5.25375ZM-5.25375 201.68C-5.25375 241.219 5.71777 274.016 27.725 296.933C49.739 319.856 82.6674 332.76 126.306 332.76V330.76C83.0651 330.76 50.7136 317.984 29.1675 295.547C7.61472 273.104 -3.25375 240.861 -3.25375 201.68H-5.25375ZM453.28 326V327H454.28V326H453.28ZM453.28 41.36V40.36H452.28V41.36H453.28ZM555.04 41.36V42.36H556.04V41.36H555.04ZM555.04 5.83997H556.04V4.83997H555.04V5.83997ZM312.16 5.83997V4.83997H311.16V5.83997H312.16ZM312.16 41.36H311.16V42.36H312.16V41.36ZM413.44 41.36H414.44V40.36H413.44V41.36ZM413.44 326H412.44V327H413.44V326ZM454.28 326V41.36H452.28V326H454.28ZM453.28 42.36H555.04V40.36H453.28V42.36ZM556.04 41.36V5.83997H554.04V41.36H556.04ZM555.04 4.83997H312.16V6.83997H555.04V4.83997ZM311.16 5.83997V41.36H313.16V5.83997H311.16ZM312.16 42.36H413.44V40.36H312.16V42.36ZM412.44 41.36V326H414.44V41.36H412.44ZM413.44 327H453.28V325H413.44V327ZM871.51 5.83997H872.51V4.83997H871.51V5.83997ZM831.67 5.83997V4.83997H830.67V5.83997H831.67ZM650.23 5.83997H651.23V4.83997H650.23V5.83997ZM610.39 5.83997V4.83997H609.39V5.83997H610.39ZM740.95 332.76C784.586 332.76 817.516 319.978 839.531 297.053C861.54 274.135 872.51 241.216 872.51 201.2H870.51C870.51 240.864 859.64 273.225 838.089 295.667C816.544 318.102 784.194 330.76 740.95 330.76V332.76ZM872.51 201.2V5.83997H870.51V201.2H872.51ZM871.51 4.83997H831.67V6.83997H871.51V4.83997ZM830.67 5.83997V200.72H832.67V5.83997H830.67ZM830.67 200.72C830.67 229.827 822.798 253.437 807.716 269.761C792.644 286.074 770.255 295.24 740.95 295.24V297.24C770.685 297.24 793.656 287.926 809.185 271.119C824.702 254.323 832.67 230.173 832.67 200.72H830.67ZM740.95 295.24C711.645 295.24 689.256 286.074 674.185 269.761C659.102 253.437 651.23 229.827 651.23 200.72H649.23C649.23 230.173 657.198 254.323 672.716 271.119C688.244 287.926 711.215 297.24 740.95 297.24V295.24ZM651.23 200.72V5.83997H649.23V200.72H651.23ZM650.23 4.83997H610.39V6.83997H650.23V4.83997ZM609.39 5.83997V201.68H611.39V5.83997H609.39ZM609.39 201.68C609.39 241.219 620.362 274.016 642.369 296.933C664.383 319.856 697.311 332.76 740.95 332.76V330.76C697.709 330.76 665.357 317.984 643.811 295.547C622.258 273.104 611.39 240.861 611.39 201.68H609.39ZM1181.2 326V327H1183.06L1182.04 325.448L1181.2 326ZM1094.8 195.44L1094.72 194.444L1093.04 194.591L1093.97 195.992L1094.8 195.44ZM948.884 5.83997V4.83997H947.884V5.83997H948.884ZM948.884 326H947.884V327H948.884V326ZM988.724 326V327H989.724V326H988.724ZM988.724 198.8V197.8H987.724V198.8H988.724ZM1052.56 198.8L1053.41 198.26L1053.11 197.8H1052.56V198.8ZM1134.16 326L1133.32 326.54L1133.62 327H1134.16V326ZM988.724 163.76H987.724V164.76H988.724V163.76ZM988.724 41.36V40.36H987.724V41.36H988.724ZM1182.04 325.448L1095.64 194.888L1093.97 195.992L1180.37 326.552L1182.04 325.448ZM1094.89 196.436C1116.94 194.498 1137.93 185.53 1153.42 169.74C1168.91 153.94 1178.84 131.362 1178.84 102.32H1176.84C1176.84 130.878 1167.09 152.94 1151.99 168.34C1136.88 183.75 1116.35 192.542 1094.72 194.444L1094.89 196.436ZM1178.84 102.32C1178.84 72.5532 1168.31 48.16 1150.33 31.2123C1132.36 14.2707 1107.02 4.83997 1077.52 4.83997V6.83997C1106.59 6.83997 1131.41 16.1292 1148.96 32.6677C1166.5 49.1999 1176.84 73.0468 1176.84 102.32H1178.84ZM1077.52 4.83997H948.884V6.83997H1077.52V4.83997ZM947.884 5.83997V326H949.884V5.83997H947.884ZM948.884 327H988.724V325H948.884V327ZM989.724 326V198.8H987.724V326H989.724ZM988.724 199.8H1052.56V197.8H988.724V199.8ZM1051.72 199.34L1133.32 326.54L1135.01 325.46L1053.41 198.26L1051.72 199.34ZM1134.16 327H1181.2V325H1134.16V327ZM1072.72 162.76H988.724V164.76H1072.72V162.76ZM989.724 163.76V41.36H987.724V163.76H989.724ZM988.724 42.36H1072.72V40.36H988.724V42.36ZM1072.72 42.36C1091.46 42.36 1107.16 48.5236 1118.17 59.0624C1129.18 69.598 1135.56 84.5692 1135.56 102.32H1137.56C1137.56 84.0708 1130.99 68.562 1119.56 57.6176C1108.12 46.6763 1091.91 40.36 1072.72 40.36V42.36ZM1135.56 102.32C1135.56 120.072 1129.18 135.165 1118.17 145.821C1107.16 156.48 1091.46 162.76 1072.72 162.76V164.76C1091.91 164.76 1108.13 158.32 1119.56 147.259C1130.99 136.195 1137.56 120.568 1137.56 102.32H1135.56ZM1453.08 326V327H1454.08V326H1453.08ZM1453.08 290.48H1454.08V289.48H1453.08V290.48ZM1283.16 290.48H1282.16V291.48H1283.16V290.48ZM1283.16 180.08V179.08H1282.16V180.08H1283.16ZM1449.71 180.08V181.08H1450.71V180.08H1449.71ZM1449.71 144.56H1450.71V143.56H1449.71V144.56ZM1283.16 144.56H1282.16V145.56H1283.16V144.56ZM1283.16 41.36V40.36H1282.16V41.36H1283.16ZM1453.08 41.36V42.36H1454.08V41.36H1453.08ZM1453.08 5.83997H1454.08V4.83997H1453.08V5.83997ZM1243.31 5.83997V4.83997H1242.31V5.83997H1243.31ZM1243.31 326H1242.31V327H1243.31V326ZM1454.08 326V290.48H1452.08V326H1454.08ZM1453.08 289.48H1283.16V291.48H1453.08V289.48ZM1284.16 290.48V180.08H1282.16V290.48H1284.16ZM1283.16 181.08H1449.71V179.08H1283.16V181.08ZM1450.71 180.08V144.56H1448.71V180.08H1450.71ZM1449.71 143.56H1283.16V145.56H1449.71V143.56ZM1284.16 144.56V41.36H1282.16V144.56H1284.16ZM1283.16 42.36H1453.08V40.36H1283.16V42.36ZM1454.08 41.36V5.83997H1452.08V41.36H1454.08ZM1453.08 4.83997H1243.31V6.83997H1453.08V4.83997ZM1242.31 5.83997V326H1244.31V5.83997H1242.31ZM1243.31 327H1453.08V325H1243.31V327ZM1796.44 277.04L1797.18 277.708L1797.44 277.423V277.04H1796.44ZM1796.44 161.36H1797.44V160.36H1796.44V161.36ZM1646.68 161.36V160.36H1645.68V161.36H1646.68ZM1646.68 196.88H1645.68V197.88H1646.68V196.88ZM1756.6 196.88H1757.6V195.88H1756.6V196.88ZM1756.6 262.16L1757.3 262.867L1757.6 262.574V262.16H1756.6ZM1763.32 80.24L1762.53 80.8539L1763.08 81.5643L1763.84 81.0894L1763.32 80.24ZM1795 60.56L1795.52 61.4094L1796.49 60.812L1795.77 59.9314L1795 60.56ZM1670.68 333.24C1723.29 333.24 1767.24 311.03 1797.18 277.708L1795.69 276.372C1766.11 309.29 1722.7 331.24 1670.68 331.24V333.24ZM1797.44 277.04V161.36H1795.44V277.04H1797.44ZM1796.44 160.36H1646.68V162.36H1796.44V160.36ZM1645.68 161.36V196.88H1647.68V161.36H1645.68ZM1646.68 197.88H1756.6V195.88H1646.68V197.88ZM1755.6 196.88V262.16H1757.6V196.88H1755.6ZM1755.89 261.453C1740.2 277.14 1708.77 295.72 1670.68 295.72V297.72C1709.39 297.72 1741.31 278.86 1757.3 262.867L1755.89 261.453ZM1670.68 295.72C1601.19 295.72 1548.32 241.493 1548.32 166.16H1546.32C1546.32 242.507 1600 297.72 1670.68 297.72V295.72ZM1548.32 166.16C1548.32 90.3542 1601.19 37.08 1670.68 37.08V35.08C1600.01 35.08 1546.32 89.3257 1546.32 166.16H1548.32ZM1670.68 37.08C1708.76 37.08 1742.55 55.1743 1762.53 80.8539L1764.11 79.6261C1743.76 53.4656 1709.39 35.08 1670.68 35.08V37.08ZM1763.84 81.0894L1795.52 61.4094L1794.47 59.7105L1762.79 79.3905L1763.84 81.0894ZM1795.77 59.9314C1767.3 24.696 1727.67 -0.440018 1670.68 -0.440018V1.55998C1726.97 1.55998 1766.06 26.3439 1794.22 61.1886L1795.77 59.9314ZM1670.68 -0.440018C1578.95 -0.440018 1505.04 66.2228 1505.04 166.16H1507.04C1507.04 67.3772 1580 1.55998 1670.68 1.55998V-0.440018ZM1505.04 166.16C1505.04 266.093 1578.95 333.24 1670.68 333.24V331.24C1580.01 331.24 1507.04 264.947 1507.04 166.16H1505.04ZM2095.9 326V327H2097.76L2096.74 325.448L2095.9 326ZM2009.5 195.44L2009.42 194.444L2007.74 194.591L2008.67 195.992L2009.5 195.44ZM1863.58 5.83997V4.83997H1862.58V5.83997H1863.58ZM1863.58 326H1862.58V327H1863.58V326ZM1903.42 326V327H1904.42V326H1903.42ZM1903.42 198.8V197.8H1902.42V198.8H1903.42ZM1967.26 198.8L1968.11 198.26L1967.81 197.8H1967.26V198.8ZM2048.86 326L2048.02 326.54L2048.32 327H2048.86V326ZM1903.42 163.76H1902.42V164.76H1903.42V163.76ZM1903.42 41.36V40.36H1902.42V41.36H1903.42ZM2096.74 325.448L2010.34 194.888L2008.67 195.992L2095.07 326.552L2096.74 325.448ZM2009.59 196.436C2031.64 194.498 2052.63 185.53 2068.12 169.74C2083.61 153.94 2093.54 131.362 2093.54 102.32H2091.54C2091.54 130.878 2081.79 152.94 2066.69 168.34C2051.58 183.75 2031.05 192.542 2009.42 194.444L2009.59 196.436ZM2093.54 102.32C2093.54 72.5532 2083.01 48.16 2065.03 31.2123C2047.06 14.2707 2021.72 4.83997 1992.22 4.83997V6.83997C2021.29 6.83997 2046.11 16.1292 2063.66 32.6677C2081.2 49.1999 2091.54 73.0468 2091.54 102.32H2093.54ZM1992.22 4.83997H1863.58V6.83997H1992.22V4.83997ZM1862.58 5.83997V326H1864.58V5.83997H1862.58ZM1863.58 327H1903.42V325H1863.58V327ZM1904.42 326V198.8H1902.42V326H1904.42ZM1903.42 199.8H1967.26V197.8H1903.42V199.8ZM1966.42 199.34L2048.02 326.54L2049.71 325.46L1968.11 198.26L1966.42 199.34ZM2048.86 327H2095.9V325H2048.86V327ZM1987.42 162.76H1903.42V164.76H1987.42V162.76ZM1904.42 163.76V41.36H1902.42V163.76H1904.42ZM1903.42 42.36H1987.42V40.36H1903.42V42.36ZM1987.42 42.36C2006.16 42.36 2021.86 48.5236 2032.87 59.0624C2043.88 69.598 2050.26 84.5692 2050.26 102.32H2052.26C2052.26 84.0708 2045.69 68.562 2034.26 57.6176C2022.82 46.6763 2006.61 40.36 1987.42 40.36V42.36ZM2050.26 102.32C2050.26 120.072 2043.88 135.165 2032.87 145.821C2021.86 156.48 2006.16 162.76 1987.42 162.76V164.76C2006.61 164.76 2022.83 158.32 2034.26 147.259C2045.69 136.195 2052.26 120.568 2052.26 102.32H2050.26ZM2432.09 326V327H2433.58L2433.02 325.626L2432.09 326ZM2302.97 5.83997L2303.9 5.46595L2303.65 4.83997H2302.97V5.83997ZM2253.53 5.83997V4.83997H2252.86L2252.61 5.46715L2253.53 5.83997ZM2124.9 326L2123.97 325.627L2123.42 327H2124.9V326ZM2170.49 326V327H2171.17L2171.42 326.37L2170.49 326ZM2198.81 254.96V253.96H2198.14L2197.89 254.59L2198.81 254.96ZM2358.18 254.96L2359.1 254.59L2358.85 253.96H2358.18V254.96ZM2386.49 326L2385.57 326.37L2385.82 327H2386.49V326ZM2346.18 219.44V220.44H2347.64L2347.11 219.074L2346.18 219.44ZM2210.33 219.44L2209.41 219.072L2208.86 220.44H2210.33V219.44ZM2278.49 47.12L2279.43 46.7544L2278.5 44.3929L2277.57 46.7522L2278.49 47.12ZM2433.02 325.626L2303.9 5.46595L2302.05 6.214L2431.17 326.374L2433.02 325.626ZM2302.97 4.83997H2253.53V6.83997H2302.97V4.83997ZM2252.61 5.46715L2123.97 325.627L2125.82 326.373L2254.46 6.2128L2252.61 5.46715ZM2124.9 327H2170.49V325H2124.9V327ZM2171.42 326.37L2199.74 255.33L2197.89 254.59L2169.57 325.63L2171.42 326.37ZM2198.81 255.96H2358.18V253.96H2198.81V255.96ZM2357.25 255.33L2385.57 326.37L2387.42 325.63L2359.1 254.59L2357.25 255.33ZM2386.49 327H2432.09V325H2386.49V327ZM2346.18 218.44H2210.33V220.44H2346.18V218.44ZM2211.26 219.808L2279.42 47.4878L2277.57 46.7522L2209.41 219.072L2211.26 219.808ZM2277.56 47.4856L2345.24 219.806L2347.11 219.074L2279.43 46.7544L2277.56 47.4856ZM2516.19 326V327H2517.19V326H2516.19ZM2516.19 5.83997H2517.19V4.83997H2516.19V5.83997ZM2476.35 5.83997V4.83997H2475.35V5.83997H2476.35ZM2476.35 326H2475.35V327H2476.35V326ZM2517.19 326V5.83997H2515.19V326H2517.19ZM2516.19 4.83997H2476.35V6.83997H2516.19V4.83997ZM2475.35 5.83997V326H2477.35V5.83997H2475.35ZM2476.35 327H2516.19V325H2476.35V327ZM2782.24 326V327H2783.24V326H2782.24ZM2782.24 290.48H2783.24V289.48H2782.24V290.48ZM2633.44 290.48H2632.44V291.48H2633.44V290.48ZM2633.44 5.83997H2634.44V4.83997H2633.44V5.83997ZM2593.6 5.83997V4.83997H2592.6V5.83997H2593.6ZM2593.6 326H2592.6V327H2593.6V326ZM2783.24 326V290.48H2781.24V326H2783.24ZM2782.24 289.48H2633.44V291.48H2782.24V289.48ZM2634.44 290.48V5.83997H2632.44V290.48H2634.44ZM2633.44 4.83997H2593.6V6.83997H2633.44V4.83997ZM2592.6 5.83997V326H2594.6V5.83997H2592.6ZM2593.6 327H2782.24V325H2593.6V327Z" fill="url(#paint0_linear_4274_30856)"/>
<defs>
<linearGradient id="paint0_linear_4274_30856" x1="1246.5" y1="-116" x2="1246.5" y2="469" gradientUnits="userSpaceOnUse">
<stop stop-color="#DEEDEF"/>
<stop offset="1" stop-color="#D1E0E2" stop-opacity="0"/>
</linearGradient>
</defs>
</svg>
