<svg width="152" height="243" viewBox="0 0 152 243" fill="none" xmlns="http://www.w3.org/2000/svg">
<circle cx="114" cy="88" r="56" stroke="url(#paint0_linear_4274_30867)" stroke-width="2"/>
<g filter="url(#filter0_f_4274_30867)">
<path d="M114.12 61.0028C115.278 60.965 115.863 61.5312 115.884 62.3509L116.491 84.3831C116.512 85.1697 116.867 85.7976 117.333 86.2271C117.808 86.6625 118.431 86.8444 119.02 86.8331C120.2 86.8165 121.435 85.9344 121.652 84.5099L124.663 64.8499C124.912 63.7314 125.515 63.3305 126.433 63.452C127.548 63.596 127.885 64.427 127.793 65.2249L125.138 87.7703C124.788 90.7273 124.936 92.7531 125.755 94.8128C121.8 94.9628 119.02 95.6013 116.426 97.0974C115.154 97.7266 116.246 99.6257 117.421 98.8218C120.168 97.2188 122.478 97.0648 124.599 96.956C125.658 96.9062 126.668 96.8843 127.657 96.6474C128.853 96.3606 129.81 95.7891 130.432 95.0125C133.464 91.2623 136.384 89.5551 138.455 89.208C139.875 88.971 140.644 89.4164 140.902 89.8949C141.152 90.3748 141.136 91.261 139.929 92.5162C135.528 96.7622 132.277 104.577 127.236 107.457C125.388 108.509 123.893 109.351 122.872 110.64C121.845 111.928 121.358 113.855 121.354 114.89L121.341 120.97C121.341 123.333 120.299 124.991 118.628 126.179C116.956 127.368 114.635 128.002 112.303 128.002C109.97 128.002 107.639 127.368 105.972 126.179C104.301 124.989 103.252 123.333 103.252 120.97V118.066C103.252 114.533 102.079 112.274 101.564 110.544C100.572 107.196 100.512 104.321 100.233 101.217C99.9581 98.1109 99.4399 94.7908 97.4965 90.8367C97.4965 90.8367 93.289 82.3458 91.2257 78.0824C90.7787 77.1691 90.8946 76.585 91.5694 76.1881C92.1158 75.8702 92.8973 75.9631 93.5524 77.0636C95.8093 80.8357 100.369 88.2765 100.382 88.2931C101.103 89.4992 102.522 89.8842 103.587 89.4501C104.652 89.0146 105.412 87.7376 105.089 86.3716L100.392 66.3207C100.14 65.2699 100.71 64.6911 101.55 64.4979C102.637 64.2463 103.205 64.8185 103.398 65.5719L108.357 85.65C108.734 87.164 110.104 87.758 111.263 87.5669C112.415 87.3797 113.528 86.4259 113.459 84.8348C113.125 77.4393 112.46 62.6361 112.46 62.6361C112.509 61.4467 113.18 61.0331 114.121 61.0013L114.12 61.0028ZM114.032 59.0035C111.924 59.0699 110.411 60.5959 110.472 62.7306C110.525 64.4604 111.137 77.5324 111.471 84.9293C111.471 85.3521 111.259 85.5406 110.941 85.5944C110.619 85.6429 110.378 85.5679 110.279 85.1663L105.31 65.0865C104.829 63.155 102.983 62.0857 101.067 62.5582C99.1046 63.0487 98.0295 64.955 98.4615 66.7823L103.159 86.8332C103.284 87.3563 103.083 87.5003 102.841 87.5985C102.3 87.6915 102.224 87.5003 102.077 87.258L95.2493 76.0345C94.1683 74.2178 92.1241 73.5998 90.7146 74.3817C88.9443 75.3733 88.5907 77.2352 89.4427 78.9749C91.5177 83.2302 95.718 91.7291 95.718 91.7291C97.5312 95.413 97.9894 98.3813 98.2579 101.399C98.5265 104.417 98.5799 107.495 99.6569 111.124C100.263 113.161 101.267 114.979 101.267 118.066V120.97C101.267 123.965 102.737 126.328 104.828 127.814C106.925 129.306 109.618 130 112.299 130C114.981 130 117.674 129.306 119.771 127.814C121.862 126.328 123.321 123.965 123.321 120.97L123.327 115.044C123.338 114.152 123.639 112.753 124.415 111.889C125.562 110.616 126.817 110.056 128.233 109.179C133.546 105.875 136.672 99.0856 141.352 93.9036C142.915 92.2721 143.411 90.385 142.647 88.9473C141.882 87.5116 139.872 86.8007 137.928 87.2633C133.46 88.3313 130.909 91.2757 128.915 93.7277C128.631 94.0682 128.178 94.4273 127.877 94.3178C127.097 92.5329 126.769 90.9141 127.108 88.0055L129.758 65.455C129.8 63.1419 128.643 61.8202 126.714 61.4744C124.649 61.104 123.04 62.5637 122.706 64.5417C122.427 66.2104 120.697 77.647 119.691 84.2001C119.549 85.1592 118.484 84.822 118.472 84.2837L117.866 62.2957C117.806 60.0721 116.129 58.9363 114.032 59.0028L114.032 59.0035Z" fill="url(#paint1_linear_4274_30867)"/>
</g>
<path d="M114.12 61.0028C115.278 60.965 115.863 61.5312 115.884 62.3509L116.491 84.3831C116.512 85.1697 116.867 85.7976 117.333 86.2271C117.808 86.6625 118.431 86.8444 119.02 86.8331C120.2 86.8165 121.435 85.9344 121.652 84.5099L124.663 64.8499C124.912 63.7314 125.515 63.3305 126.433 63.452C127.548 63.596 127.885 64.427 127.793 65.2249L125.138 87.7703C124.788 90.7273 124.936 92.7531 125.755 94.8128C121.8 94.9628 119.02 95.6013 116.426 97.0974C115.154 97.7266 116.246 99.6257 117.421 98.8218C120.168 97.2188 122.478 97.0648 124.599 96.956C125.658 96.9062 126.668 96.8843 127.657 96.6474C128.853 96.3606 129.81 95.7891 130.432 95.0125C133.464 91.2623 136.384 89.5551 138.455 89.208C139.875 88.971 140.644 89.4164 140.902 89.8949C141.152 90.3748 141.136 91.261 139.929 92.5162C135.528 96.7622 132.277 104.577 127.236 107.457C125.388 108.509 123.893 109.351 122.872 110.64C121.845 111.928 121.358 113.855 121.354 114.89L121.341 120.97C121.341 123.333 120.299 124.991 118.628 126.179C116.956 127.368 114.635 128.002 112.303 128.002C109.97 128.002 107.639 127.368 105.972 126.179C104.301 124.989 103.252 123.333 103.252 120.97V118.066C103.252 114.533 102.079 112.274 101.564 110.544C100.572 107.196 100.512 104.321 100.233 101.217C99.9581 98.1109 99.4399 94.7908 97.4965 90.8367C97.4965 90.8367 93.289 82.3458 91.2257 78.0824C90.7787 77.1691 90.8946 76.585 91.5694 76.1881C92.1158 75.8702 92.8973 75.9631 93.5524 77.0636C95.8093 80.8357 100.369 88.2765 100.382 88.2931C101.103 89.4992 102.522 89.8842 103.587 89.4501C104.652 89.0146 105.412 87.7376 105.089 86.3716L100.392 66.3207C100.14 65.2699 100.71 64.6911 101.55 64.4979C102.637 64.2463 103.205 64.8185 103.398 65.5719L108.357 85.65C108.734 87.164 110.104 87.758 111.263 87.5669C112.415 87.3797 113.528 86.4259 113.459 84.8348C113.125 77.4393 112.46 62.6361 112.46 62.6361C112.509 61.4467 113.18 61.0331 114.121 61.0013L114.12 61.0028ZM114.032 59.0035C111.924 59.0699 110.411 60.5959 110.472 62.7306C110.525 64.4604 111.137 77.5324 111.471 84.9293C111.471 85.3521 111.259 85.5406 110.941 85.5944C110.619 85.6429 110.378 85.5679 110.279 85.1663L105.31 65.0865C104.829 63.155 102.983 62.0857 101.067 62.5582C99.1046 63.0487 98.0295 64.955 98.4615 66.7823L103.159 86.8332C103.284 87.3563 103.083 87.5003 102.841 87.5985C102.3 87.6915 102.224 87.5003 102.077 87.258L95.2493 76.0345C94.1683 74.2178 92.1241 73.5998 90.7146 74.3817C88.9443 75.3733 88.5907 77.2352 89.4427 78.9749C91.5177 83.2302 95.718 91.7291 95.718 91.7291C97.5312 95.413 97.9894 98.3813 98.2579 101.399C98.5265 104.417 98.5799 107.495 99.6569 111.124C100.263 113.161 101.267 114.979 101.267 118.066V120.97C101.267 123.965 102.737 126.328 104.828 127.814C106.925 129.306 109.618 130 112.299 130C114.981 130 117.674 129.306 119.771 127.814C121.862 126.328 123.321 123.965 123.321 120.97L123.327 115.044C123.338 114.152 123.639 112.753 124.415 111.889C125.562 110.616 126.817 110.056 128.233 109.179C133.546 105.875 136.672 99.0856 141.352 93.9036C142.915 92.2721 143.411 90.385 142.647 88.9473C141.882 87.5116 139.872 86.8007 137.928 87.2633C133.46 88.3313 130.909 91.2757 128.915 93.7277C128.631 94.0682 128.178 94.4273 127.877 94.3178C127.097 92.5329 126.769 90.9141 127.108 88.0055L129.758 65.455C129.8 63.1419 128.643 61.8202 126.714 61.4744C124.649 61.104 123.04 62.5637 122.706 64.5417C122.427 66.2104 120.697 77.647 119.691 84.2001C119.549 85.1592 118.484 84.822 118.472 84.2837L117.866 62.2957C117.806 60.0721 116.129 58.9363 114.032 59.0028L114.032 59.0035Z" fill="url(#paint2_linear_4274_30867)"/>
<line x1="4.3818" y1="-41.3228" x2="119.382" y2="94.6772" stroke="url(#paint3_linear_4274_30867)"/>
<line y1="92.5" x2="168" y2="92.5" stroke="url(#paint4_linear_4274_30867)"/>
<line x1="113.5" y1="243" x2="113.5" y2="-35" stroke="url(#paint5_linear_4274_30867)"/>
<defs>
<filter id="filter0_f_4274_30867" x="62" y="32" width="108" height="125" filterUnits="userSpaceOnUse" color-interpolation-filters="sRGB">
<feFlood flood-opacity="0" result="BackgroundImageFix"/>
<feBlend mode="normal" in="SourceGraphic" in2="BackgroundImageFix" result="shape"/>
<feGaussianBlur stdDeviation="13.5" result="effect1_foregroundBlur_4274_30867"/>
</filter>
<linearGradient id="paint0_linear_4274_30867" x1="114" y1="31" x2="139.5" y2="142" gradientUnits="userSpaceOnUse">
<stop stop-color="#06696B"/>
<stop offset="1" stop-color="#06696B" stop-opacity="0"/>
</linearGradient>
<linearGradient id="paint1_linear_4274_30867" x1="116" y1="58" x2="116" y2="122.604" gradientUnits="userSpaceOnUse">
<stop stop-color="#40BCBC"/>
<stop offset="1" stop-color="#2A7575" stop-opacity="0"/>
</linearGradient>
<linearGradient id="paint2_linear_4274_30867" x1="116" y1="58" x2="116" y2="122.604" gradientUnits="userSpaceOnUse">
<stop stop-color="#40BCBC"/>
<stop offset="1" stop-color="#2A7575" stop-opacity="0"/>
</linearGradient>
<linearGradient id="paint3_linear_4274_30867" x1="-8.8136" y1="-50.3662" x2="76.7784" y2="49.0931" gradientUnits="userSpaceOnUse">
<stop stop-color="#137E8A" stop-opacity="0"/>
<stop offset="0.500762" stop-color="#137E8A" stop-opacity="0.859615"/>
<stop offset="1" stop-color="#137E8A" stop-opacity="0"/>
</linearGradient>
<linearGradient id="paint4_linear_4274_30867" x1="-14.5506" y1="96.7368" x2="109.22" y2="95.7242" gradientUnits="userSpaceOnUse">
<stop stop-color="#137E8A" stop-opacity="0"/>
<stop offset="0.500762" stop-color="#137E8A" stop-opacity="0.859615"/>
<stop offset="1" stop-color="#137E8A" stop-opacity="0"/>
</linearGradient>
<linearGradient id="paint5_linear_4274_30867" x1="117" y1="243" x2="114.46" y2="-56.9785" gradientUnits="userSpaceOnUse">
<stop stop-color="#137E8A" stop-opacity="0"/>
<stop offset="0.262674" stop-color="#137E8A" stop-opacity="0.607985"/>
<stop offset="0.325186" stop-color="#137E8A" stop-opacity="0.0384285"/>
<stop offset="0.544052" stop-color="#137E8A" stop-opacity="0"/>
<stop offset="0.69875" stop-color="#137E8A" stop-opacity="0.0404399"/>
<stop offset="0.792903" stop-color="#137E8A" stop-opacity="0.859615"/>
<stop offset="1" stop-color="#137E8A" stop-opacity="0"/>
</linearGradient>
</defs>
</svg>
