<svg width="151" height="243" viewBox="0 0 151 243" fill="none" xmlns="http://www.w3.org/2000/svg">
<g filter="url(#filter0_f_4274_30906)">
<path d="M114.12 58.0028C115.278 57.965 115.863 58.5312 115.884 59.3509L116.491 81.3831C116.512 82.1697 116.867 82.7976 117.333 83.2271C117.808 83.6625 118.431 83.8444 119.02 83.8331C120.2 83.8165 121.435 82.9344 121.652 81.5099L124.663 61.8499C124.912 60.7314 125.515 60.3305 126.433 60.452C127.548 60.596 127.885 61.427 127.793 62.2249L125.138 84.7703C124.788 87.7273 124.936 89.7531 125.755 91.8128C121.8 91.9628 119.02 92.6013 116.426 94.0974C115.154 94.7266 116.246 96.6257 117.421 95.8218C120.168 94.2188 122.478 94.0648 124.599 93.956C125.658 93.9062 126.668 93.8843 127.657 93.6474C128.853 93.3606 129.81 92.7891 130.432 92.0125C133.464 88.2623 136.384 86.5551 138.455 86.208C139.875 85.971 140.644 86.4164 140.902 86.8949C141.152 87.3748 141.136 88.261 139.929 89.5162C135.528 93.7622 132.277 101.577 127.236 104.457C125.388 105.509 123.893 106.351 122.872 107.64C121.845 108.928 121.358 110.855 121.354 111.89L121.341 117.97C121.341 120.333 120.299 121.991 118.628 123.179C116.956 124.368 114.635 125.002 112.303 125.002C109.97 125.002 107.639 124.368 105.972 123.179C104.301 121.989 103.252 120.333 103.252 117.97V115.066C103.252 111.533 102.079 109.274 101.564 107.544C100.572 104.196 100.512 101.321 100.233 98.2173C99.9581 95.1109 99.4399 91.7908 97.4965 87.8367C97.4965 87.8367 93.289 79.3458 91.2257 75.0824C90.7787 74.1691 90.8946 73.585 91.5694 73.1881C92.1158 72.8702 92.8973 72.9631 93.5524 74.0636C95.8093 77.8357 100.369 85.2765 100.382 85.2931C101.103 86.4992 102.522 86.8842 103.587 86.4501C104.652 86.0146 105.412 84.7376 105.089 83.3716L100.392 63.3207C100.14 62.2699 100.71 61.6911 101.55 61.4979C102.637 61.2463 103.205 61.8185 103.398 62.5719L108.357 82.65C108.734 84.164 110.104 84.758 111.263 84.5669C112.415 84.3797 113.528 83.4259 113.459 81.8348C113.125 74.4393 112.46 59.6361 112.46 59.6361C112.509 58.4467 113.18 58.0331 114.121 58.0013L114.12 58.0028ZM114.032 56.0035C111.924 56.0699 110.411 57.5959 110.472 59.7306C110.525 61.4604 111.137 74.5324 111.471 81.9293C111.471 82.3521 111.259 82.5406 110.941 82.5944C110.619 82.6429 110.378 82.5679 110.279 82.1663L105.31 62.0865C104.829 60.155 102.983 59.0857 101.067 59.5582C99.1046 60.0487 98.0295 61.955 98.4615 63.7823L103.159 83.8332C103.284 84.3563 103.083 84.5003 102.841 84.5985C102.3 84.6915 102.224 84.5003 102.077 84.258L95.2493 73.0345C94.1683 71.2178 92.1241 70.5998 90.7146 71.3817C88.9443 72.3733 88.5907 74.2352 89.4427 75.9749C91.5177 80.2302 95.718 88.7291 95.718 88.7291C97.5312 92.413 97.9894 95.3813 98.2579 98.3994C98.5265 101.417 98.5799 104.495 99.6569 108.124C100.263 110.161 101.267 111.979 101.267 115.066V117.97C101.267 120.965 102.737 123.328 104.828 124.814C106.925 126.306 109.618 127 112.299 127C114.981 127 117.674 126.306 119.771 124.814C121.862 123.328 123.321 120.965 123.321 117.97L123.327 112.044C123.338 111.152 123.639 109.753 124.415 108.889C125.562 107.616 126.817 107.056 128.233 106.179C133.546 102.875 136.672 96.0856 141.352 90.9036C142.915 89.2721 143.411 87.385 142.647 85.9473C141.882 84.5116 139.872 83.8007 137.928 84.2633C133.46 85.3313 130.909 88.2757 128.915 90.7277C128.631 91.0682 128.178 91.4273 127.877 91.3178C127.097 89.5329 126.769 87.9141 127.108 85.0055L129.758 62.455C129.8 60.1419 128.643 58.8202 126.714 58.4744C124.649 58.104 123.04 59.5637 122.706 61.5417C122.427 63.2104 120.697 74.647 119.691 81.2001C119.549 82.1592 118.484 81.822 118.472 81.2837L117.866 59.2957C117.806 57.0721 116.129 55.9363 114.032 56.0028L114.032 56.0035Z" fill="url(#paint0_linear_4274_30906)"/>
</g>
<path d="M114.5 82.1458L98 95.2408L98 118L131 118L131 95.2408L114.5 82.1458ZM100.539 96.4653L114.5 85.3849L128.461 96.4653L128.461 115.464L100.539 115.464V96.4653Z" fill="url(#paint1_linear_4274_30906)"/>
<path d="M99.2669 109.125H129.728L129.728 106.589L99.2669 106.589V109.125Z" fill="url(#paint2_linear_4274_30906)"/>
<path d="M105.387 57L107.128 67.1408L99.7522 74.3225L109.944 75.802L114.502 85.0276L119.061 75.802L129.253 74.3225L121.877 67.1408L123.619 57L114.502 61.7878L105.387 57ZM114.502 64.6531L120.247 61.636L119.15 68.0261L123.796 72.5518L117.375 73.4841L114.502 79.2985L111.63 73.4841L105.208 72.5518L109.855 68.0261L108.758 61.636L114.502 64.6531Z" fill="url(#paint3_linear_4274_30906)"/>
<circle cx="57" cy="57" r="56" transform="matrix(-1 0 0 1 171 31)" stroke="url(#paint4_linear_4274_30906)" stroke-width="2"/>
<line x1="4.3818" y1="-41.3228" x2="119.382" y2="94.6772" stroke="url(#paint5_linear_4274_30906)"/>
<line y1="92.5" x2="168" y2="92.5" stroke="url(#paint6_linear_4274_30906)"/>
<line x1="113.5" y1="243" x2="113.5" y2="-35" stroke="url(#paint7_linear_4274_30906)"/>
<defs>
<filter id="filter0_f_4274_30906" x="62" y="29" width="108" height="125" filterUnits="userSpaceOnUse" color-interpolation-filters="sRGB">
<feFlood flood-opacity="0" result="BackgroundImageFix"/>
<feBlend mode="normal" in="SourceGraphic" in2="BackgroundImageFix" result="shape"/>
<feGaussianBlur stdDeviation="13.5" result="effect1_foregroundBlur_4274_30906"/>
</filter>
<linearGradient id="paint0_linear_4274_30906" x1="116" y1="55" x2="116" y2="119.604" gradientUnits="userSpaceOnUse">
<stop stop-color="#40BCBC"/>
<stop offset="1" stop-color="#2A7575" stop-opacity="0"/>
</linearGradient>
<linearGradient id="paint1_linear_4274_30906" x1="114.5" y1="56.1408" x2="114.5" y2="111.646" gradientUnits="userSpaceOnUse">
<stop stop-color="#40BCBC"/>
<stop offset="1" stop-color="#2A7575" stop-opacity="0"/>
</linearGradient>
<linearGradient id="paint2_linear_4274_30906" x1="114.5" y1="56.1408" x2="114.5" y2="111.646" gradientUnits="userSpaceOnUse">
<stop stop-color="#40BCBC"/>
<stop offset="1" stop-color="#2A7575" stop-opacity="0"/>
</linearGradient>
<linearGradient id="paint3_linear_4274_30906" x1="114.5" y1="56.1408" x2="114.5" y2="111.646" gradientUnits="userSpaceOnUse">
<stop stop-color="#40BCBC"/>
<stop offset="1" stop-color="#2A7575" stop-opacity="0"/>
</linearGradient>
<linearGradient id="paint4_linear_4274_30906" x1="23.5" y1="-9" x2="88" y2="114" gradientUnits="userSpaceOnUse">
<stop stop-color="#40BCBC"/>
<stop offset="1" stop-color="#2A7575" stop-opacity="0"/>
</linearGradient>
<linearGradient id="paint5_linear_4274_30906" x1="-8.8136" y1="-50.3662" x2="76.7784" y2="49.0931" gradientUnits="userSpaceOnUse">
<stop stop-color="#137E8A" stop-opacity="0"/>
<stop offset="0.500762" stop-color="#40BCBC" stop-opacity="0.859615"/>
<stop offset="1" stop-color="#137E8A" stop-opacity="0"/>
</linearGradient>
<linearGradient id="paint6_linear_4274_30906" x1="-14.5506" y1="96.7368" x2="109.22" y2="95.7242" gradientUnits="userSpaceOnUse">
<stop stop-color="#137E8A" stop-opacity="0"/>
<stop offset="0.500762" stop-color="#40BCBC" stop-opacity="0.859615"/>
<stop offset="1" stop-color="#137E8A" stop-opacity="0"/>
</linearGradient>
<linearGradient id="paint7_linear_4274_30906" x1="117" y1="243" x2="114.46" y2="-56.9785" gradientUnits="userSpaceOnUse">
<stop stop-color="#40BCBC" stop-opacity="0"/>
<stop offset="0.262674" stop-color="#40BCBC" stop-opacity="0.607985"/>
<stop offset="0.325186" stop-color="#137E8A" stop-opacity="0.0384285"/>
<stop offset="0.544052" stop-color="#137E8A" stop-opacity="0"/>
<stop offset="0.69875" stop-color="#137E8A" stop-opacity="0.0404399"/>
<stop offset="0.792903" stop-color="#40BCBC" stop-opacity="0.859615"/>
<stop offset="1" stop-color="#137E8A" stop-opacity="0"/>
</linearGradient>
</defs>
</svg>
