<svg width="152" height="243" viewBox="0 0 152 243" fill="none" xmlns="http://www.w3.org/2000/svg">
<g filter="url(#filter0_f_4274_30879)">
<path d="M114.12 58.0028C115.278 57.965 115.863 58.5312 115.884 59.3509L116.491 81.3831C116.512 82.1697 116.867 82.7976 117.333 83.2271C117.808 83.6625 118.431 83.8444 119.02 83.8331C120.2 83.8165 121.435 82.9344 121.652 81.5099L124.663 61.8499C124.912 60.7314 125.515 60.3305 126.433 60.452C127.548 60.596 127.885 61.427 127.793 62.2249L125.138 84.7703C124.788 87.7273 124.936 89.7531 125.755 91.8128C121.8 91.9628 119.02 92.6013 116.426 94.0974C115.154 94.7266 116.246 96.6257 117.421 95.8218C120.168 94.2188 122.478 94.0648 124.599 93.956C125.658 93.9062 126.668 93.8843 127.657 93.6474C128.853 93.3606 129.81 92.7891 130.432 92.0125C133.464 88.2623 136.384 86.5551 138.455 86.208C139.875 85.971 140.644 86.4164 140.902 86.8949C141.152 87.3748 141.136 88.261 139.929 89.5162C135.528 93.7622 132.277 101.577 127.236 104.457C125.388 105.509 123.893 106.351 122.872 107.64C121.845 108.928 121.358 110.855 121.354 111.89L121.341 117.97C121.341 120.333 120.299 121.991 118.628 123.179C116.956 124.368 114.635 125.002 112.303 125.002C109.97 125.002 107.639 124.368 105.972 123.179C104.301 121.989 103.252 120.333 103.252 117.97V115.066C103.252 111.533 102.079 109.274 101.564 107.544C100.572 104.196 100.512 101.321 100.233 98.2173C99.9581 95.1109 99.4399 91.7908 97.4965 87.8367C97.4965 87.8367 93.289 79.3458 91.2257 75.0824C90.7787 74.1691 90.8946 73.585 91.5694 73.1881C92.1158 72.8702 92.8973 72.9631 93.5524 74.0636C95.8093 77.8357 100.369 85.2765 100.382 85.2931C101.103 86.4992 102.522 86.8842 103.587 86.4501C104.652 86.0146 105.412 84.7376 105.089 83.3716L100.392 63.3207C100.14 62.2699 100.71 61.6911 101.55 61.4979C102.637 61.2463 103.205 61.8185 103.398 62.5719L108.357 82.65C108.734 84.164 110.104 84.758 111.263 84.5669C112.415 84.3797 113.528 83.4259 113.459 81.8348C113.125 74.4393 112.46 59.6361 112.46 59.6361C112.509 58.4467 113.18 58.0331 114.121 58.0013L114.12 58.0028ZM114.032 56.0035C111.924 56.0699 110.411 57.5959 110.472 59.7306C110.525 61.4604 111.137 74.5324 111.471 81.9293C111.471 82.3521 111.259 82.5406 110.941 82.5944C110.619 82.6429 110.378 82.5679 110.279 82.1663L105.31 62.0865C104.829 60.155 102.983 59.0857 101.067 59.5582C99.1046 60.0487 98.0295 61.955 98.4615 63.7823L103.159 83.8332C103.284 84.3563 103.083 84.5003 102.841 84.5985C102.3 84.6915 102.224 84.5003 102.077 84.258L95.2493 73.0345C94.1683 71.2178 92.1241 70.5998 90.7146 71.3817C88.9443 72.3733 88.5907 74.2352 89.4427 75.9749C91.5177 80.2302 95.718 88.7291 95.718 88.7291C97.5312 92.413 97.9894 95.3813 98.2579 98.3994C98.5265 101.417 98.5799 104.495 99.6569 108.124C100.263 110.161 101.267 111.979 101.267 115.066V117.97C101.267 120.965 102.737 123.328 104.828 124.814C106.925 126.306 109.618 127 112.299 127C114.981 127 117.674 126.306 119.771 124.814C121.862 123.328 123.321 120.965 123.321 117.97L123.327 112.044C123.338 111.152 123.639 109.753 124.415 108.889C125.562 107.616 126.817 107.056 128.233 106.179C133.546 102.875 136.672 96.0856 141.352 90.9036C142.915 89.2721 143.411 87.385 142.647 85.9473C141.882 84.5116 139.872 83.8007 137.928 84.2633C133.46 85.3313 130.909 88.2757 128.915 90.7277C128.631 91.0682 128.178 91.4273 127.877 91.3178C127.097 89.5329 126.769 87.9141 127.108 85.0055L129.758 62.455C129.8 60.1419 128.643 58.8202 126.714 58.4744C124.649 58.104 123.04 59.5637 122.706 61.5417C122.427 63.2104 120.697 74.647 119.691 81.2001C119.549 82.1592 118.484 81.822 118.472 81.2837L117.866 59.2957C117.806 57.0721 116.129 55.9363 114.032 56.0028L114.032 56.0035Z" fill="url(#paint0_linear_4274_30879)"/>
</g>
<circle cx="57" cy="57" r="56" transform="matrix(-1 0 0 1 171 31)" stroke="url(#paint1_linear_4274_30879)" stroke-width="2"/>
<path d="M115.585 68.0687C110.317 67.6966 105.302 69.4576 101.458 73.0368C97.6713 76.5638 95.5 81.5509 95.5 86.7184C95.5 90.9287 96.8846 94.9189 99.5044 98.2535C101.416 100.687 103.275 103.39 104.891 106.089V110.908C104.891 111.949 105.738 112.798 106.781 112.798H121.553C122.595 112.798 123.442 111.95 123.442 110.908L123.441 106.248C125.146 103.425 127.173 100.459 128.903 98.2586C131.66 94.7706 133.078 90.3912 132.893 85.9262C132.509 76.5781 124.905 68.7354 115.585 68.0689L115.585 68.0687ZM126.875 96.6584C125.015 99.0229 122.835 102.226 121.041 105.226L120.858 105.533V110.214H107.474V105.381L107.293 105.077C105.578 102.183 103.587 99.2712 101.535 96.6605C99.2758 93.7831 98.0824 90.3469 98.0824 86.7209C98.0824 82.2671 99.9545 77.9685 103.219 74.9296C106.533 71.845 110.86 70.3238 115.401 70.6485C123.43 71.2216 129.981 77.9797 130.313 86.033C130.473 89.9356 129.286 93.6081 126.875 96.6582L126.875 96.6584ZM91.7736 92.4785C91.6258 92.4785 91.4737 92.5019 91.3343 92.5443L86.0005 94.2756C85.2385 94.526 84.8232 95.3475 85.0723 96.1053C85.2598 96.6847 85.8229 97.0901 86.4406 97.0901C86.6047 97.0901 86.7519 97.0696 86.8835 97.0293L92.2172 95.298C92.5908 95.1756 92.8929 94.916 93.0669 94.5657C93.2375 94.2268 93.2636 93.8398 93.1434 93.4776C92.9537 92.8805 92.404 92.4786 91.7736 92.4786L91.7736 92.4785ZM92.2201 77.97L86.8968 76.2366C86.7454 76.1878 86.5911 76.1623 86.4383 76.1623C85.8164 76.1623 85.2689 76.5599 85.0722 77.1542C84.8295 77.9191 85.2455 78.7355 85.9969 78.974L91.3214 80.7186C91.4601 80.7625 91.6086 80.7837 91.7756 80.7837C92.4032 80.7837 92.955 80.3769 93.146 79.7755C93.2649 79.4218 93.2366 79.0405 93.0661 78.7016C92.8913 78.3521 92.5914 78.0924 92.2199 77.97L92.2201 77.97ZM99.1883 68.4096C99.4486 68.7761 99.883 68.994 100.349 68.994C100.655 68.994 100.941 68.8978 101.194 68.7103C101.501 68.491 101.704 68.1613 101.766 67.7856C101.828 67.4035 101.74 67.0208 101.514 66.7102L98.2233 62.1681C97.9431 61.7896 97.5144 61.5716 97.0467 61.5716C96.7411 61.5716 96.4482 61.6693 96.1977 61.8504C95.8885 62.0747 95.6848 62.4093 95.6253 62.7914C95.5666 63.1699 95.66 63.5477 95.8871 63.854L99.1883 68.4096ZM114.213 64.4914C115.01 64.4914 115.657 63.8434 115.657 63.046V57.4291C115.657 56.6424 115.009 56 114.213 56C113.415 56 112.767 56.641 112.767 57.4291V63.046C112.767 63.8434 113.415 64.4914 114.213 64.4914ZM127.245 68.7195C127.487 68.8992 127.774 68.9933 128.075 68.9933C128.541 68.9933 128.977 68.7718 129.241 68.4032L132.541 63.847C132.765 63.5435 132.855 63.1685 132.798 62.7914C132.739 62.4094 132.535 62.0733 132.225 61.849C131.974 61.6672 131.682 61.5724 131.378 61.5724C130.917 61.5724 130.48 61.7917 130.208 62.1603L126.912 66.7095C126.687 67.0201 126.597 67.4014 126.659 67.7835C126.721 68.1663 126.924 68.4903 127.245 68.7195L127.245 68.7195ZM142.428 94.2791L137.097 92.5485C136.952 92.5025 136.804 92.4799 136.654 92.4799C136.032 92.4799 135.464 92.8909 135.276 93.476C135.028 94.2309 135.442 95.0481 136.201 95.2985L141.529 97.029C141.669 97.0715 141.817 97.0927 141.983 97.0927C142.605 97.0927 143.152 96.7 143.349 96.1128C143.593 95.3487 143.18 94.5259 142.428 94.279L142.428 94.2791ZM136.647 80.7842C136.813 80.7842 136.961 80.7637 137.09 80.7234L142.424 78.9921C143.177 78.7445 143.594 77.9273 143.354 77.1675C143.158 76.5711 142.605 76.1714 141.978 76.1714C141.829 76.1714 141.683 76.1947 141.543 76.2393L136.209 77.9705C135.835 78.0929 135.533 78.3526 135.359 78.7021C135.19 79.041 135.162 79.428 135.283 79.7881C135.471 80.3845 136.019 80.7843 136.647 80.7843L136.647 80.7842ZM122.074 115.313H105.925C105.212 115.313 104.633 115.891 104.633 116.605C104.633 117.318 105.211 117.897 105.925 117.897H122.075C122.789 117.897 123.367 117.319 123.367 116.605C123.368 115.891 122.788 115.313 122.074 115.313H122.074ZM122.074 119.834H105.925C105.212 119.834 104.633 120.412 104.633 121.126C104.633 121.84 105.211 122.418 105.925 122.418H122.075C122.789 122.418 123.367 121.84 123.367 121.126C123.368 120.412 122.788 119.834 122.074 119.834H122.074ZM118.733 124.416H109.044C108.331 124.416 107.752 124.994 107.752 125.707C107.752 126.422 108.33 127 109.043 127H118.732C119.445 127 120.024 126.422 120.024 125.708C120.024 124.994 119.446 124.416 118.733 124.416Z" fill="url(#paint2_linear_4274_30879)"/>
<line x1="4.3818" y1="-41.3228" x2="119.382" y2="94.6772" stroke="url(#paint3_linear_4274_30879)"/>
<line y1="92.5" x2="168" y2="92.5" stroke="url(#paint4_linear_4274_30879)"/>
<line x1="113.5" y1="243" x2="113.5" y2="-35" stroke="url(#paint5_linear_4274_30879)"/>
<defs>
<filter id="filter0_f_4274_30879" x="62" y="29" width="108" height="125" filterUnits="userSpaceOnUse" color-interpolation-filters="sRGB">
<feFlood flood-opacity="0" result="BackgroundImageFix"/>
<feBlend mode="normal" in="SourceGraphic" in2="BackgroundImageFix" result="shape"/>
<feGaussianBlur stdDeviation="13.5" result="effect1_foregroundBlur_4274_30879"/>
</filter>
<linearGradient id="paint0_linear_4274_30879" x1="116" y1="55" x2="116" y2="119.604" gradientUnits="userSpaceOnUse">
<stop stop-color="#40BCBC"/>
<stop offset="1" stop-color="#2A7575" stop-opacity="0"/>
</linearGradient>
<linearGradient id="paint1_linear_4274_30879" x1="23.5" y1="-9" x2="88" y2="114" gradientUnits="userSpaceOnUse">
<stop stop-color="#40BCBC"/>
<stop offset="1" stop-color="#2A7575" stop-opacity="0"/>
</linearGradient>
<linearGradient id="paint2_linear_4274_30879" x1="114.211" y1="55" x2="114.211" y2="119.604" gradientUnits="userSpaceOnUse">
<stop stop-color="#40BCBC"/>
<stop offset="1" stop-color="#2A7575" stop-opacity="0"/>
</linearGradient>
<linearGradient id="paint3_linear_4274_30879" x1="-8.8136" y1="-50.3662" x2="76.7784" y2="49.0931" gradientUnits="userSpaceOnUse">
<stop stop-color="#137E8A" stop-opacity="0"/>
<stop offset="0.500762" stop-color="#40BCBC" stop-opacity="0.859615"/>
<stop offset="1" stop-color="#137E8A" stop-opacity="0"/>
</linearGradient>
<linearGradient id="paint4_linear_4274_30879" x1="-14.5506" y1="96.7368" x2="109.22" y2="95.7242" gradientUnits="userSpaceOnUse">
<stop stop-color="#137E8A" stop-opacity="0"/>
<stop offset="0.500762" stop-color="#40BCBC" stop-opacity="0.859615"/>
<stop offset="1" stop-color="#137E8A" stop-opacity="0"/>
</linearGradient>
<linearGradient id="paint5_linear_4274_30879" x1="117" y1="243" x2="114.46" y2="-56.9785" gradientUnits="userSpaceOnUse">
<stop stop-color="#40BCBC" stop-opacity="0"/>
<stop offset="0.262674" stop-color="#40BCBC" stop-opacity="0.607985"/>
<stop offset="0.325186" stop-color="#137E8A" stop-opacity="0.0384285"/>
<stop offset="0.544052" stop-color="#137E8A" stop-opacity="0"/>
<stop offset="0.69875" stop-color="#137E8A" stop-opacity="0.0404399"/>
<stop offset="0.792903" stop-color="#40BCBC" stop-opacity="0.859615"/>
<stop offset="1" stop-color="#137E8A" stop-opacity="0"/>
</linearGradient>
</defs>
</svg>
