<svg width="151" height="243" viewBox="0 0 151 243" fill="none" xmlns="http://www.w3.org/2000/svg">
<g filter="url(#filter0_f_4274_30893)">
<path d="M114.12 58.0028C115.278 57.965 115.863 58.5312 115.884 59.3509L116.491 81.3831C116.512 82.1697 116.867 82.7976 117.333 83.2271C117.808 83.6625 118.431 83.8444 119.02 83.8331C120.2 83.8165 121.435 82.9344 121.652 81.5099L124.663 61.8499C124.912 60.7314 125.515 60.3305 126.433 60.452C127.548 60.596 127.885 61.427 127.793 62.2249L125.138 84.7703C124.788 87.7273 124.936 89.7531 125.755 91.8128C121.8 91.9628 119.02 92.6013 116.426 94.0974C115.154 94.7266 116.246 96.6257 117.421 95.8218C120.168 94.2188 122.478 94.0648 124.599 93.956C125.658 93.9062 126.668 93.8843 127.657 93.6474C128.853 93.3606 129.81 92.7891 130.432 92.0125C133.464 88.2623 136.384 86.5551 138.455 86.208C139.875 85.971 140.644 86.4164 140.902 86.8949C141.152 87.3748 141.136 88.261 139.929 89.5162C135.528 93.7622 132.277 101.577 127.236 104.457C125.388 105.509 123.893 106.351 122.872 107.64C121.845 108.928 121.358 110.855 121.354 111.89L121.341 117.97C121.341 120.333 120.299 121.991 118.628 123.179C116.956 124.368 114.635 125.002 112.303 125.002C109.97 125.002 107.639 124.368 105.972 123.179C104.301 121.989 103.252 120.333 103.252 117.97V115.066C103.252 111.533 102.079 109.274 101.564 107.544C100.572 104.196 100.512 101.321 100.233 98.2173C99.9581 95.1109 99.4399 91.7908 97.4965 87.8367C97.4965 87.8367 93.289 79.3458 91.2257 75.0824C90.7787 74.1691 90.8946 73.585 91.5694 73.1881C92.1158 72.8702 92.8973 72.9631 93.5524 74.0636C95.8093 77.8357 100.369 85.2765 100.382 85.2931C101.103 86.4992 102.522 86.8842 103.587 86.4501C104.652 86.0146 105.412 84.7376 105.089 83.3716L100.392 63.3207C100.14 62.2699 100.71 61.6911 101.55 61.4979C102.637 61.2463 103.205 61.8185 103.398 62.5719L108.357 82.65C108.734 84.164 110.104 84.758 111.263 84.5669C112.415 84.3797 113.528 83.4259 113.459 81.8348C113.125 74.4393 112.46 59.6361 112.46 59.6361C112.509 58.4467 113.18 58.0331 114.121 58.0013L114.12 58.0028ZM114.032 56.0035C111.924 56.0699 110.411 57.5959 110.472 59.7306C110.525 61.4604 111.137 74.5324 111.471 81.9293C111.471 82.3521 111.259 82.5406 110.941 82.5944C110.619 82.6429 110.378 82.5679 110.279 82.1663L105.31 62.0865C104.829 60.155 102.983 59.0857 101.067 59.5582C99.1046 60.0487 98.0295 61.955 98.4615 63.7823L103.159 83.8332C103.284 84.3563 103.083 84.5003 102.841 84.5985C102.3 84.6915 102.224 84.5003 102.077 84.258L95.2493 73.0345C94.1683 71.2178 92.1241 70.5998 90.7146 71.3817C88.9443 72.3733 88.5907 74.2352 89.4427 75.9749C91.5177 80.2302 95.718 88.7291 95.718 88.7291C97.5312 92.413 97.9894 95.3813 98.2579 98.3994C98.5265 101.417 98.5799 104.495 99.6569 108.124C100.263 110.161 101.267 111.979 101.267 115.066V117.97C101.267 120.965 102.737 123.328 104.828 124.814C106.925 126.306 109.618 127 112.299 127C114.981 127 117.674 126.306 119.771 124.814C121.862 123.328 123.321 120.965 123.321 117.97L123.327 112.044C123.338 111.152 123.639 109.753 124.415 108.889C125.562 107.616 126.817 107.056 128.233 106.179C133.546 102.875 136.672 96.0856 141.352 90.9036C142.915 89.2721 143.411 87.385 142.647 85.9473C141.882 84.5116 139.872 83.8007 137.928 84.2633C133.46 85.3313 130.909 88.2757 128.915 90.7277C128.631 91.0682 128.178 91.4273 127.877 91.3178C127.097 89.5329 126.769 87.9141 127.108 85.0055L129.758 62.455C129.8 60.1419 128.643 58.8202 126.714 58.4744C124.649 58.104 123.04 59.5637 122.706 61.5417C122.427 63.2104 120.697 74.647 119.691 81.2001C119.549 82.1592 118.484 81.822 118.472 81.2837L117.866 59.2957C117.806 57.0721 116.129 55.9363 114.032 56.0028L114.032 56.0035Z" fill="url(#paint0_linear_4274_30893)"/>
</g>
<circle cx="57" cy="57" r="56" transform="matrix(-1 0 0 1 171 31)" stroke="url(#paint1_linear_4274_30893)" stroke-width="2"/>
<path d="M143.815 76.3121C141.991 72.5007 141.531 68.1439 142.5 64.0183C142.586 63.8127 142.593 63.5923 142.559 63.3757C142.557 63.3597 142.554 63.3465 142.551 63.3316C142.546 63.3079 142.546 63.2842 142.542 63.2605C142.538 63.2511 142.534 63.2429 142.531 63.2335C142.514 63.1712 142.495 63.1117 142.467 63.0528C142.451 63.018 142.43 62.9872 142.412 62.9541C142.404 62.9392 142.396 62.9255 142.386 62.9106C142.355 62.861 142.32 62.8141 142.281 62.77C142.276 62.764 142.273 62.7568 142.268 62.7519C142.259 62.7425 142.257 62.7315 142.248 62.7226C142.241 62.7149 142.23 62.7122 142.222 62.7061C142.192 62.6747 142.157 62.646 142.122 62.6185C142.104 62.6036 142.085 62.5898 142.067 62.5766C142.024 62.5474 141.981 62.5215 141.934 62.4967C141.911 62.4835 141.886 62.4725 141.86 62.4609C141.815 62.441 141.769 62.4251 141.721 62.4113C141.704 62.4058 141.688 62.397 141.67 62.3931C141.658 62.3898 141.646 62.3909 141.632 62.3876C141.587 62.3782 141.541 62.3727 141.494 62.3694C141.46 62.3661 141.427 62.3633 141.394 62.3633C141.354 62.3622 141.312 62.3661 141.272 62.3699C141.232 62.3738 141.193 62.3788 141.155 62.3865C141.139 62.3898 141.124 62.3887 141.107 62.3925C136.929 63.4203 132.496 62.9679 128.624 61.1157C128.035 60.8346 127.326 61.0831 127.044 61.6734C126.762 62.2641 127.011 62.9723 127.603 63.2544C130.437 64.6101 133.541 65.3012 136.659 65.3012C137.117 65.3012 137.575 65.2836 138.033 65.2533L126.465 76.7894C123.016 73.7353 118.487 71.8747 113.53 71.8747C102.761 71.8747 94 80.6365 94 91.4059C94 101.778 102.128 110.282 112.347 110.895L112.335 120.678H104.535C103.88 120.678 103.35 121.208 103.35 121.863C103.35 122.517 103.88 123.047 104.535 123.047H112.333L112.323 130.813C112.323 131.468 112.853 131.998 113.507 132H113.509C114.163 132 114.693 131.47 114.693 130.816L114.703 123.047H122.533C123.187 123.047 123.718 122.516 123.718 121.862C123.718 121.208 123.187 120.677 122.533 120.677H114.706L114.718 110.894C124.936 110.277 133.061 101.773 133.061 91.4054C133.061 86.4445 131.199 81.9123 128.14 78.4645L139.676 66.9621C139.452 70.5183 140.129 74.1005 141.677 77.3348C141.881 77.7597 142.303 78.0088 142.747 78.0088C142.918 78.0088 143.093 77.9718 143.257 77.8936C143.847 77.6103 144.097 76.9022 143.814 76.3119L143.815 76.3121ZM113.529 108.564C104.068 108.564 96.3713 100.868 96.3713 91.4063C96.3713 81.9429 104.069 74.2453 113.529 74.2453C118.251 74.2453 122.532 76.162 125.638 79.2575C125.644 79.263 125.645 79.2707 125.65 79.2757C125.656 79.2817 125.665 79.2834 125.67 79.2889C128.77 82.3959 130.691 86.6808 130.691 91.407C130.692 100.868 122.993 108.565 113.53 108.565L113.529 108.564Z" fill="url(#paint2_linear_4274_30893)"/>
<line x1="4.3818" y1="-41.3228" x2="119.382" y2="94.6772" stroke="url(#paint3_linear_4274_30893)"/>
<line y1="92.5" x2="168" y2="92.5" stroke="url(#paint4_linear_4274_30893)"/>
<line x1="113.5" y1="243" x2="113.5" y2="-35" stroke="url(#paint5_linear_4274_30893)"/>
<defs>
<filter id="filter0_f_4274_30893" x="62" y="29" width="108" height="125" filterUnits="userSpaceOnUse" color-interpolation-filters="sRGB">
<feFlood flood-opacity="0" result="BackgroundImageFix"/>
<feBlend mode="normal" in="SourceGraphic" in2="BackgroundImageFix" result="shape"/>
<feGaussianBlur stdDeviation="13.5" result="effect1_foregroundBlur_4274_30893"/>
</filter>
<linearGradient id="paint0_linear_4274_30893" x1="116" y1="55" x2="116" y2="119.604" gradientUnits="userSpaceOnUse">
<stop stop-color="#40BCBC"/>
<stop offset="1" stop-color="#2A7575" stop-opacity="0"/>
</linearGradient>
<linearGradient id="paint1_linear_4274_30893" x1="23.5" y1="-9" x2="88" y2="114" gradientUnits="userSpaceOnUse">
<stop stop-color="#40BCBC"/>
<stop offset="1" stop-color="#2A7575" stop-opacity="0"/>
</linearGradient>
<linearGradient id="paint2_linear_4274_30893" x1="118.965" y1="60" x2="118.965" y2="124.604" gradientUnits="userSpaceOnUse">
<stop stop-color="#40BCBC"/>
<stop offset="1" stop-color="#2A7575" stop-opacity="0"/>
</linearGradient>
<linearGradient id="paint3_linear_4274_30893" x1="-8.8136" y1="-50.3662" x2="76.7784" y2="49.0931" gradientUnits="userSpaceOnUse">
<stop stop-color="#137E8A" stop-opacity="0"/>
<stop offset="0.500762" stop-color="#40BCBC" stop-opacity="0.859615"/>
<stop offset="1" stop-color="#137E8A" stop-opacity="0"/>
</linearGradient>
<linearGradient id="paint4_linear_4274_30893" x1="-14.5506" y1="96.7368" x2="109.22" y2="95.7242" gradientUnits="userSpaceOnUse">
<stop stop-color="#137E8A" stop-opacity="0"/>
<stop offset="0.500762" stop-color="#40BCBC" stop-opacity="0.859615"/>
<stop offset="1" stop-color="#137E8A" stop-opacity="0"/>
</linearGradient>
<linearGradient id="paint5_linear_4274_30893" x1="117" y1="243" x2="114.46" y2="-56.9785" gradientUnits="userSpaceOnUse">
<stop stop-color="#40BCBC" stop-opacity="0"/>
<stop offset="0.262674" stop-color="#40BCBC" stop-opacity="0.607985"/>
<stop offset="0.325186" stop-color="#137E8A" stop-opacity="0.0384285"/>
<stop offset="0.544052" stop-color="#137E8A" stop-opacity="0"/>
<stop offset="0.69875" stop-color="#137E8A" stop-opacity="0.0404399"/>
<stop offset="0.792903" stop-color="#40BCBC" stop-opacity="0.859615"/>
<stop offset="1" stop-color="#137E8A" stop-opacity="0"/>
</linearGradient>
</defs>
</svg>
