<svg width="102" height="69" viewBox="0 0 102 69" fill="none" xmlns="http://www.w3.org/2000/svg">
<mask id="mask0_4274_30684" style="mask-type:alpha" maskUnits="userSpaceOnUse" x="0" y="16" width="31" height="10">
<path d="M0.0078125 16.5693H30.338V25.1243H0.0078125V16.5693Z" fill="white"/>
</mask>
<g mask="url(#mask0_4274_30684)">
<path fill-rule="evenodd" clip-rule="evenodd" d="M0.0078125 24.6615C1.98037 23.1516 3.95757 21.6476 5.92381 20.1299C7.15446 19.1799 8.3356 18.1641 9.60711 17.271C10.1208 16.9104 10.8142 16.607 11.4282 16.6022C17.4428 16.5533 23.4578 16.5719 29.4725 16.5774C29.6971 16.5777 29.9214 16.6432 30.338 16.7086C30.1427 17.1942 30.0377 17.6287 29.8111 17.99C28.5781 19.9535 27.3049 21.893 26.0716 23.8563C25.8291 24.2423 25.7008 24.6966 25.5201 25.1194C17.0159 25.121 8.51202 25.1227 0.0078125 25.1243V24.6615Z" fill="#848A8B"/>
</g>
<mask id="mask1_4274_30684" style="mask-type:alpha" maskUnits="userSpaceOnUse" x="0" y="25" width="30" height="9">
<path d="M0.0078125 25.1201H29.6765V33.4343H0.0078125V25.1201Z" fill="white"/>
</mask>
<g mask="url(#mask1_4274_30684)">
<path fill-rule="evenodd" clip-rule="evenodd" d="M0.0078125 25.125C8.51202 25.1234 17.0159 25.1217 25.5201 25.1201C26.681 27.3818 27.8435 29.6432 29.0021 31.9062C29.2061 32.3046 29.3938 32.7111 29.6765 33.294C29.0762 33.3506 28.6688 33.4219 28.2615 33.4222C22.0568 33.4294 15.8514 33.459 9.64764 33.3868C8.88015 33.3777 7.94786 32.9939 7.38537 32.4771C4.86826 30.1643 2.45714 27.7402 0.0078125 25.3564V25.125Z" fill="#848A8B"/>
</g>
<mask id="mask2_4274_30684" style="mask-type:alpha" maskUnits="userSpaceOnUse" x="37" y="60" width="10" height="9">
<path d="M37.5312 60.2783H46.3387V68.8544H37.5312V60.2783Z" fill="white"/>
</mask>
<g mask="url(#mask2_4274_30684)">
<path fill-rule="evenodd" clip-rule="evenodd" d="M41.1078 68.8544C40.9207 68.7347 40.7466 68.5862 40.5449 68.4993C38.3199 67.5424 37.3557 66.113 37.5574 64.0492C37.7265 62.318 39.184 60.9106 41.3426 60.4426C43.1075 60.0599 44.7479 60.3254 46.3387 61.4555C45.9333 61.8255 45.6024 62.1273 45.321 62.384C45.1801 62.371 45.1359 62.3788 45.104 62.3626C44.0059 61.7998 42.8431 61.1805 41.7028 62.0898C40.4549 63.0851 40.6878 64.5403 40.9456 65.8555C41.2357 67.3364 42.7487 67.9324 44.3166 67.1167C45.2748 66.6184 45.738 66.9107 46.2911 67.7556C45.5742 68.1286 44.8761 68.4915 44.1784 68.8544H41.1078Z" fill="#848A8B"/>
</g>
<path fill-rule="evenodd" clip-rule="evenodd" d="M31.5 27.2881H70.3471C69.2749 28.6863 68.2874 30.0028 67.2694 31.2963C64.4716 34.8507 61.6588 38.3938 58.8556 41.9444C56.5561 44.857 54.2719 47.7814 51.9601 50.6846C51.1023 51.7619 50.8348 51.7281 49.96 50.6169C44.3643 43.5093 38.7666 36.4026 33.1659 29.2982C32.6898 28.6944 32.1848 28.1125 31.5 27.2881Z" fill="#848A8B"/>
<path fill-rule="evenodd" clip-rule="evenodd" d="M30.4922 24.7915C31.6846 22.8221 32.8173 20.9483 33.9535 19.0769C34.214 18.6479 34.519 18.242 34.7473 17.7978C35.2121 16.893 35.9912 16.5662 36.9624 16.5659C46.4025 16.5639 55.843 16.5646 65.2835 16.5646C66.3603 16.5646 67.0889 16.9838 67.6036 17.9875C68.5003 19.7366 69.5539 21.4086 70.5303 23.1189C70.8134 23.6153 71.0579 24.1328 71.3982 24.7915H30.4922Z" fill="#848A8B"/>
<path fill-rule="evenodd" clip-rule="evenodd" d="M76.358 25.1804C75.5105 23.6793 74.6835 22.1669 73.8094 20.6805C73.0581 19.403 72.2531 18.1551 71.3281 16.6625C72.0621 16.6195 72.4711 16.5756 72.8801 16.575C78.5781 16.5707 84.2768 16.5408 89.9742 16.6062C90.8174 16.616 91.8095 16.8819 92.4687 17.3711C95.4018 19.5478 98.2452 21.8404 101.1 24.1165C101.41 24.3635 101.583 24.7755 101.819 25.1108C93.5648 25.1043 85.3108 25.0971 77.0567 25.0948C76.8238 25.0948 76.5909 25.1508 76.358 25.1804Z" fill="#848A8B"/>
<path fill-rule="evenodd" clip-rule="evenodd" d="M76.351 25.1803C76.5839 25.1507 76.8168 25.0947 77.0497 25.0947C85.3037 25.097 93.5578 25.1042 101.812 25.1107C101.634 25.3942 101.504 25.7235 101.271 25.954C99.0036 28.2001 96.748 30.4592 94.4146 32.6382C93.9541 33.0681 93.1783 33.3874 92.5451 33.393C86.1354 33.4476 79.725 33.4275 73.3146 33.4216C73.0541 33.4213 72.7936 33.3516 72.3594 33.2891C72.5388 32.8224 72.6458 32.4328 72.8302 32.082C73.8369 30.1666 74.8695 28.2635 75.8769 26.3481C76.0719 25.9774 76.1948 25.5706 76.351 25.1803Z" fill="#848A8B"/>
<path fill-rule="evenodd" clip-rule="evenodd" d="M10.933 35.5681C11.2719 35.5502 11.6108 35.517 11.9497 35.5167C17.8511 35.5134 23.7528 35.5333 29.6539 35.4962C30.6493 35.49 31.246 35.7946 31.6895 36.6851C32.6654 38.6438 33.7378 40.5566 34.8745 42.6823C34.2409 42.7282 33.8335 42.7822 33.4262 42.7828C29.0591 42.789 24.6921 42.7708 20.325 42.7991C19.3668 42.8053 18.599 42.5658 17.8714 41.921C15.7716 40.0606 13.6169 38.2591 11.4766 36.442C11.242 36.2428 10.9619 36.0947 10.7031 35.9232C10.7799 35.8047 10.8563 35.6866 10.933 35.5681Z" fill="#848A8B"/>
<path fill-rule="evenodd" clip-rule="evenodd" d="M67.1719 42.6198C67.4945 41.9627 67.7586 41.3834 68.0586 40.8222C68.8241 39.3895 69.5531 37.934 70.4106 36.5556C70.693 36.1016 71.3216 35.5649 71.7974 35.56C78.2071 35.4946 84.6182 35.5161 91.2216 35.5161C90.9827 35.8305 90.8674 36.0505 90.6913 36.2031C88.3919 38.1931 86.102 40.1944 83.7613 42.1375C83.3464 42.4821 82.7144 42.7507 82.1795 42.7559C77.4194 42.8027 72.6583 42.7839 67.8975 42.777C67.7161 42.7767 67.535 42.7009 67.1719 42.6198Z" fill="#848A8B"/>
<path fill-rule="evenodd" clip-rule="evenodd" d="M36.1471 7.29967C36.094 7.65737 36.1179 7.83084 36.0445 7.94346C34.7337 9.95032 33.433 11.9643 32.0681 13.9357C31.8661 14.2277 31.3518 14.4669 30.9803 14.4692C25.1607 14.5011 19.3411 14.491 13.5211 14.4845C13.3825 14.4841 13.2436 14.4145 12.8984 14.3214C14.3803 13.0202 15.7245 11.8247 17.0864 10.6488C17.9682 9.88815 18.94 9.21735 19.7534 8.39424C20.5561 7.58186 21.4229 7.26355 22.5751 7.27884C26.6249 7.33255 30.6753 7.29967 34.7258 7.29967H36.1471Z" fill="#848A8B"/>
<path fill-rule="evenodd" clip-rule="evenodd" d="M65.9453 7.29995H68.376C72.0763 7.29995 75.7775 7.26024 79.4761 7.3325C80.2419 7.34747 81.1583 7.58929 81.7321 8.05146C84.095 9.95547 86.3533 11.9835 88.6461 13.9708C88.7524 14.0629 88.8172 14.2013 88.9897 14.4401C88.6484 14.4642 88.4331 14.4922 88.2179 14.4925C82.5889 14.4948 76.9596 14.5039 71.3307 14.4763C70.8689 14.474 70.1775 14.3565 69.9848 14.0535C68.6402 11.9389 67.3989 9.76117 65.9453 7.29995Z" fill="#848A8B"/>
<path fill-rule="evenodd" clip-rule="evenodd" d="M39.395 51.2714H37.6534C34.7013 51.2714 31.7473 51.3281 28.7986 51.2317C28.0591 51.2073 27.1856 50.8552 26.6347 50.3696C25.0273 48.9541 23.5491 47.397 22.0274 45.8888C21.7912 45.6548 21.5919 45.3853 21.2031 44.9309C21.8311 44.8906 22.2042 44.8466 22.577 44.846C26.5523 44.8411 30.5283 44.8688 34.503 44.8255C35.5416 44.8141 36.1955 45.1493 36.6523 46.072C37.4676 47.7202 38.3647 49.33 39.395 51.2714Z" fill="#848A8B"/>
<path fill-rule="evenodd" clip-rule="evenodd" d="M62.7109 51.106C62.905 50.6419 63.0568 50.1885 63.2764 49.7686C63.9738 48.4345 64.643 47.0809 65.4387 45.8037C65.7042 45.378 66.3135 44.895 66.7723 44.8885C71.2497 44.8234 75.7287 44.853 80.2071 44.8638C80.3054 44.8641 80.4035 44.9624 80.8663 45.2097C80.2181 45.7132 79.6476 46.1002 79.1442 46.5582C77.6767 47.8939 76.2583 49.2827 74.7685 50.5937C74.3894 50.9273 73.8193 51.231 73.3316 51.2384C69.9543 51.2912 66.575 51.2629 63.1967 51.2547C63.0884 51.2544 62.9797 51.1906 62.7109 51.106Z" fill="#848A8B"/>
<path fill-rule="evenodd" clip-rule="evenodd" d="M76.3175 65.353C76.9518 63.9326 77.5292 62.7704 77.9887 61.5648C78.2967 60.7563 78.7469 60.4117 79.6403 60.522C80.2879 60.6024 80.954 60.5376 81.676 60.5376V68.5302H78.7459V64.3613C78.6535 64.345 78.5608 64.329 78.4685 64.3128C77.9452 65.4913 77.3903 66.6575 76.9112 67.8529C76.67 68.4547 76.3119 68.6572 75.6686 68.6262C75.058 68.597 74.5639 68.6048 74.2556 67.9083C73.6658 66.5771 72.9575 65.2963 72.1232 64.0273V68.5156H70.25V60.5445C71.3331 60.5445 72.4575 60.4943 73.5711 60.5806C73.8393 60.6014 74.1436 61.0372 74.3067 61.3454C74.9659 62.5927 75.5766 63.8643 76.3175 65.353Z" fill="#848A8B"/>
<path fill-rule="evenodd" clip-rule="evenodd" d="M10.6894 68.5488H8.79688V60.538C9.87037 60.538 10.9209 60.4901 11.9615 60.5689C12.2493 60.5904 12.6081 60.9347 12.7626 61.2202C13.4566 62.5019 14.0886 63.8158 14.8464 65.3241C15.4545 63.9958 16.0508 62.8772 16.4781 61.6999C16.805 60.7984 17.2772 60.3899 18.2726 60.5211C18.8856 60.6018 19.5185 60.536 20.2255 60.536V68.5114H17.3283V64.2396C17.2469 64.2142 17.1652 64.1891 17.0835 64.1641C16.5838 65.2791 16.0801 66.3929 15.5854 67.5102C15.3235 68.1016 15.17 68.6553 14.2394 68.6523C13.3121 68.6491 12.929 68.2683 12.5991 67.5301C12.0642 66.3337 11.4456 65.173 10.6894 64.0039V68.5488Z" fill="#848A8B"/>
<path fill-rule="evenodd" clip-rule="evenodd" d="M61.1406 0.354668H64.3189C66.5217 0.354668 68.7272 0.295757 70.926 0.386889C71.6975 0.418785 72.5779 0.64987 73.1912 1.08438C74.893 2.28992 76.4802 3.65007 78.3158 5.11046C77.9002 5.1902 77.7676 5.23805 77.6351 5.23805C73.5441 5.24195 69.4528 5.25367 65.3622 5.22242C64.9306 5.21917 64.3182 5.08572 64.1023 4.79215C63.1251 3.4652 62.2603 2.05884 61.1406 0.354668Z" fill="#848A8B"/>
<mask id="mask3_4274_30684" style="mask-type:alpha" maskUnits="userSpaceOnUse" x="23" y="0" width="18" height="6">
<path d="M23.9766 0.325195H40.8667V5.23471H23.9766V0.325195Z" fill="white"/>
</mask>
<g mask="url(#mask3_4274_30684)">
<path fill-rule="evenodd" clip-rule="evenodd" d="M40.8667 0.465915C39.7115 2.13233 38.7862 3.50192 37.811 4.83667C37.6562 5.04888 37.2791 5.21552 37.0037 5.21715C32.7698 5.24091 28.536 5.23375 23.9766 5.23375C24.5424 4.72243 24.8806 4.38232 25.2551 4.08581C26.199 3.3382 27.1944 2.6495 28.1044 1.86479C29.336 0.802778 30.6571 0.235807 32.3688 0.336703C34.6404 0.470146 36.9262 0.365995 39.2061 0.37283C39.6204 0.374132 40.0344 0.417745 40.8667 0.465915Z" fill="#848A8B"/>
</g>
<path fill-rule="evenodd" clip-rule="evenodd" d="M30.695 68.6104C29.8368 68.6104 29.1703 68.5704 28.5108 68.6208C27.7626 68.6781 27.2472 68.5355 27.0103 67.7238C26.9389 67.4794 26.4671 67.2372 26.1508 67.1946C25.5345 67.1116 24.8953 67.1344 24.272 67.1871C24.0018 67.2102 23.5546 67.3746 23.5171 67.5448C23.1858 69.0407 22.0798 68.5691 20.9844 68.5609C22.1124 65.9659 23.1882 63.4621 24.3049 60.9758C24.3986 60.7678 24.7604 60.5777 25.0139 60.5553C25.6754 60.497 26.3505 60.4935 27.0107 60.5592C27.2526 60.5833 27.5871 60.817 27.6762 61.0347C28.6802 63.4871 29.6444 65.9552 30.695 68.6104ZM24.0972 65.8204C24.9434 65.7798 25.5657 65.7495 26.2917 65.7147C25.9455 64.7252 25.6628 63.9177 25.3803 63.1102C25.295 63.1106 25.2099 63.1106 25.1248 63.1109C24.8095 63.9421 24.4942 64.7734 24.0972 65.8204Z" fill="#848A8B"/>
<path fill-rule="evenodd" clip-rule="evenodd" d="M69.5779 68.6099C68.5413 68.6099 67.7173 68.6505 66.902 68.5874C66.6256 68.5659 66.1913 68.327 66.1358 68.1112C65.8887 67.1534 65.2135 67.1169 64.4168 67.1625C63.4553 67.2175 62.3964 66.8663 61.9874 68.2912C61.9033 68.5841 60.7664 68.5871 59.8281 68.784C60.2381 67.7854 60.5132 67.0857 60.8109 66.3953C61.5435 64.6983 62.3157 63.0173 63.0091 61.3053C63.2516 60.7064 63.5689 60.4558 64.2234 60.5248C64.7278 60.5779 65.2511 60.4815 65.7494 60.5564C66.0415 60.6003 66.4575 60.7871 66.5518 61.0153C67.5625 63.4628 68.5204 65.9312 69.5779 68.6099ZM65.1873 65.7385C64.8338 64.7302 64.5288 63.8593 64.1374 62.7413C63.7124 63.8811 63.3852 64.7589 63.0197 65.7385H65.1873Z" fill="#848A8B"/>
<path fill-rule="evenodd" clip-rule="evenodd" d="M46.3828 68.5686C47.5357 65.902 48.6019 63.3952 49.7252 60.9132C49.8202 60.7029 50.29 60.5665 50.5947 60.5503C52.8693 60.4289 52.8636 60.4432 53.664 62.4911C54.4438 64.4862 55.2379 66.4758 56.0818 68.6093C55.0402 68.6093 54.181 68.6522 53.3311 68.5839C53.0643 68.5624 52.662 68.2841 52.5978 68.0508C52.3716 67.2267 51.824 67.1023 51.0861 67.1619C50.5794 67.2029 50.0628 67.1355 49.5581 67.1873C49.3272 67.2111 48.9508 67.3731 48.9199 67.5268C48.6301 68.952 47.5696 68.6018 46.3828 68.5686ZM51.7001 65.7539C51.3456 64.7404 51.0432 63.8759 50.6362 62.7117C50.2103 63.9075 49.898 64.7834 49.5521 65.7539H51.7001Z" fill="#848A8B"/>
<path fill-rule="evenodd" clip-rule="evenodd" d="M88.6849 68.5461V62.0109H86.3516C86.4296 60.8464 86.9273 60.4464 88.0208 60.5141C89.5102 60.6062 91.0103 60.5339 92.5058 60.5378C93.7032 60.5411 93.7032 60.545 94.0228 61.8986C93.2879 61.9448 92.5686 61.9901 91.7047 62.0441V68.5461H88.6849Z" fill="#848A8B"/>
<path fill-rule="evenodd" clip-rule="evenodd" d="M31.4844 60.5869H34.3085C34.3085 62.4275 34.354 64.2241 34.2892 66.0164C34.2566 66.9196 34.5214 67.291 35.476 67.1881C36.1305 67.1175 36.7993 67.1745 37.4914 67.1745C37.427 68.3244 36.9103 68.7035 35.8219 68.6306C34.4161 68.5369 32.9988 68.6078 31.4844 68.6078V60.5869Z" fill="#848A8B"/>
<path fill-rule="evenodd" clip-rule="evenodd" d="M83 68.5125H85.8397V60.5801H83V68.5125Z" fill="#848A8B"/>
<path fill-rule="evenodd" clip-rule="evenodd" d="M56.2578 65.171H59.8889V63.623H56.2578V65.171Z" fill="#848A8B"/>
</svg>
