<svg width="11" height="11" viewBox="0 0 11 11" fill="none" xmlns="http://www.w3.org/2000/svg">
<path d="M6.4375 1.40625C6.4375 1.2322 6.36836 1.06528 6.24529 0.942211C6.12222 0.81914 5.9553 0.75 5.78125 0.75C5.6072 0.75 5.44028 0.81914 5.31721 0.942211C5.19414 1.06528 5.125 1.2322 5.125 1.40625V5.125H1.40625C1.2322 5.125 1.06528 5.19414 0.942211 5.31721C0.81914 5.44028 0.75 5.6072 0.75 5.78125C0.75 5.9553 0.81914 6.12222 0.942211 6.24529C1.06528 6.36836 1.2322 6.4375 1.40625 6.4375H5.125V10.1562C5.125 10.3303 5.19414 10.4972 5.31721 10.6203C5.44028 10.7434 5.6072 10.8125 5.78125 10.8125C5.9553 10.8125 6.12222 10.7434 6.24529 10.6203C6.36836 10.4972 6.4375 10.3303 6.4375 10.1562V6.4375H10.1562C10.3303 6.4375 10.4972 6.36836 10.6203 6.24529C10.7434 6.12222 10.8125 5.9553 10.8125 5.78125C10.8125 5.6072 10.7434 5.44028 10.6203 5.31721C10.4972 5.19414 10.3303 5.125 10.1562 5.125H6.4375V1.40625Z" fill="#2A7575"/>
</svg>
