<svg width="473" height="38" viewBox="0 0 473 38" fill="none" xmlns="http://www.w3.org/2000/svg">
<path d="M21.8012 0.366048V12.7534H20.824C20.507 10.3763 19.9347 8.48345 19.1072 7.07479C18.2972 5.66613 17.135 4.54801 15.6207 3.72042C14.1064 2.89283 12.5393 2.47904 10.9193 2.47904C9.08806 2.47904 7.57375 3.0425 6.37639 4.16943C5.17903 5.27875 4.58035 6.54654 4.58035 7.97281C4.58035 9.06452 4.95893 10.0594 5.71608 10.9574C6.80779 12.278 9.40501 14.0388 13.5077 16.2399C16.8533 18.0359 19.1336 19.4182 20.3485 20.3866C21.5811 21.3375 22.5231 22.4644 23.1747 23.7674C23.8438 25.0704 24.1783 26.4351 24.1783 27.8613C24.1783 30.573 23.1218 32.9149 21.0088 34.887C18.9135 36.8415 16.2106 37.8188 12.9002 37.8188C11.8614 37.8188 10.8841 37.7395 9.96847 37.5811C9.42262 37.493 8.28688 37.1761 6.56128 36.6302C4.85328 36.0668 3.77037 35.785 3.31256 35.785C2.87235 35.785 2.52018 35.9171 2.25606 36.1812C2.00955 36.4453 1.82466 36.9912 1.7014 37.8188H0.724144V25.537H1.7014C2.15922 28.1078 2.7755 30.0359 3.55027 31.3213C4.32503 32.5891 5.50478 33.6456 7.08952 34.4908C8.69187 35.336 10.4439 35.7586 12.3456 35.7586C14.5466 35.7586 16.281 35.1775 17.5488 34.0154C18.8342 32.8533 19.4769 31.4798 19.4769 29.8951C19.4769 29.0147 19.2304 28.1254 18.7374 27.2274C18.262 26.3294 17.5136 25.493 16.4923 24.7182C15.8056 24.19 13.9303 23.0719 10.8665 21.3639C7.80266 19.6383 5.61924 18.2648 4.31623 17.2436C3.03082 16.2223 2.05357 15.0953 1.38445 13.8628C0.715339 12.6302 0.380783 11.2744 0.380783 9.79526C0.380783 7.22446 1.36684 5.01462 3.33897 3.16576C5.31109 1.29929 7.82027 0.366048 10.8665 0.366048C12.7682 0.366048 14.7843 0.832667 16.9149 1.7659C17.901 2.20611 18.5965 2.42621 19.0015 2.42621C19.4593 2.42621 19.8291 2.29415 20.1108 2.03003C20.4102 1.7483 20.6479 1.19364 20.824 0.366048H21.8012ZM39.0886 36.2671V37H27.5794V36.2671H28.5303C29.6396 36.2671 30.4452 35.9435 30.947 35.2964C31.264 34.8738 31.4224 33.8569 31.4224 32.2458V14.8929C31.4224 13.5326 31.3366 12.6346 31.1649 12.1988C31.0329 11.8686 30.7621 11.5847 30.3527 11.347C29.7717 11.03 29.1642 10.8716 28.5303 10.8716H27.5794V10.1386H39.0886V10.8716H38.118C37.0219 10.8716 36.2229 11.1951 35.7211 11.8422C35.3909 12.2648 35.2258 13.2817 35.2258 14.8929V32.2458C35.2258 33.606 35.3117 34.504 35.4833 34.9398C35.6154 35.27 35.8927 35.5539 36.3153 35.7916C36.8832 36.1086 37.4841 36.2671 38.118 36.2671H39.0886ZM39.1386 10.1386H46.4284L62.8503 30.2847V14.7938C62.8503 13.143 62.6654 12.1129 62.2956 11.7036C61.807 11.1489 61.0344 10.8716 59.9779 10.8716H59.0469V10.1386H68.3969V10.8716H67.446C66.3103 10.8716 65.5047 11.2149 65.0293 11.9016C64.7387 12.3242 64.5935 13.2883 64.5935 14.7938V37.4358H63.8803L46.1708 15.8041V32.3448C46.1708 33.9956 46.3491 35.0257 46.7057 35.4351C47.2075 35.9897 47.9801 36.2671 49.0234 36.2671H49.9742V37H40.6242V36.2671H41.5553C42.7042 36.2671 43.5164 35.9237 43.9918 35.237C44.2824 34.8144 44.4276 33.8503 44.4276 32.3448V13.6647C43.6485 12.7534 43.0542 12.1526 42.6448 11.862C42.2486 11.5715 41.6609 11.3008 40.8818 11.0499C40.4988 10.931 39.9177 10.8716 39.1386 10.8716V10.1386ZM93.4857 9.52454L94.179 18.0029H93.4857C92.7858 15.8899 91.8811 14.2986 90.7718 13.2289C89.1739 11.6837 87.1203 10.9112 84.6111 10.9112C81.1907 10.9112 78.5891 12.2648 76.8063 14.9721C75.314 17.2568 74.5678 19.9772 74.5678 23.1335C74.5678 25.6955 75.0631 28.033 76.0535 30.146C77.044 32.259 78.3382 33.8107 79.9361 34.8012C81.5473 35.7784 83.1981 36.2671 84.8885 36.2671C85.8789 36.2671 86.8364 36.1416 87.7608 35.8907C88.6852 35.6398 89.5767 35.27 90.4351 34.7814V27.0161C90.4351 25.6691 90.3294 24.7909 90.1181 24.3815C89.92 23.9589 89.6031 23.6419 89.1673 23.4306C88.7447 23.2061 87.9919 23.0939 86.909 23.0939V22.3411H97.3089V23.0939H96.8136C95.7836 23.0939 95.077 23.4373 94.6941 24.124C94.4299 24.6126 94.2979 25.5767 94.2979 27.0161V35.237C92.7792 36.0558 91.2803 36.6566 89.8012 37.0396C88.3221 37.4226 86.6779 37.6141 84.8687 37.6141C79.6786 37.6141 75.7366 35.9501 73.0425 32.6222C71.022 30.1262 70.0117 27.2472 70.0117 23.9853C70.0117 21.6214 70.5796 19.3565 71.7153 17.1907C73.0623 14.6155 74.9112 12.6346 77.2619 11.2479C79.2296 10.099 81.5539 9.52454 84.2348 9.52454C85.212 9.52454 86.0968 9.60377 86.8892 9.76225C87.6948 9.92072 88.8305 10.2707 90.2964 10.8121C91.0359 11.0895 91.5312 11.2281 91.7821 11.2281C92.033 11.2281 92.2443 11.1159 92.416 10.8914C92.6009 10.6537 92.7131 10.1981 92.7527 9.52454H93.4857ZM116.059 28.0066H105.659L103.836 32.2458C103.387 33.2891 103.163 34.0682 103.163 34.5833C103.163 34.9927 103.354 35.3558 103.737 35.6728C104.134 35.9765 104.979 36.1746 106.273 36.2671V37H97.8144V36.2671C98.9369 36.069 99.6633 35.8114 99.9934 35.4945C100.667 34.8606 101.413 33.573 102.232 31.6317L111.681 9.52454H112.374L121.724 31.8694C122.477 33.6654 123.157 34.8342 123.765 35.3756C124.385 35.9039 125.244 36.201 126.34 36.2671V37H115.742V36.2671C116.812 36.2142 117.531 36.0359 117.901 35.7322C118.284 35.4285 118.475 35.0587 118.475 34.6229C118.475 34.0418 118.211 33.124 117.683 31.8694L116.059 28.0066ZM115.504 26.5407L110.948 15.6852L106.273 26.5407H115.504ZM134.729 24.4211V32.2458C134.729 33.9362 134.914 34.9861 135.284 35.3954C135.786 35.9765 136.545 36.2671 137.562 36.2671H138.592V37H127.083V36.2671H128.093C129.229 36.2671 130.041 35.8973 130.53 35.1577C130.794 34.7483 130.926 33.7777 130.926 32.2458V14.8929C130.926 13.2025 130.748 12.1526 130.391 11.7432C129.876 11.1621 129.11 10.8716 128.093 10.8716H127.083V10.1386H136.928C139.332 10.1386 141.227 10.3895 142.613 10.8914C144 11.38 145.169 12.212 146.12 13.3873C147.071 14.5627 147.546 15.9559 147.546 17.5671C147.546 19.7593 146.82 21.5422 145.367 22.9156C143.928 24.289 141.887 24.9758 139.246 24.9758C138.599 24.9758 137.899 24.9295 137.146 24.8371C136.393 24.7447 135.588 24.606 134.729 24.4211ZM134.729 23.292C135.429 23.424 136.05 23.5231 136.591 23.5891C137.133 23.6552 137.595 23.6882 137.978 23.6882C139.352 23.6882 140.534 23.1599 141.524 22.1034C142.528 21.0337 143.029 19.6537 143.029 17.9633C143.029 16.8011 142.792 15.7248 142.316 14.7344C141.841 13.7307 141.167 12.9846 140.296 12.4959C139.424 11.9941 138.434 11.7432 137.324 11.7432C136.651 11.7432 135.786 11.8686 134.729 12.1196V23.292ZM163.424 9.52454C166.91 9.52454 169.928 10.8518 172.476 13.5062C175.038 16.1474 176.319 19.449 176.319 23.4108C176.319 27.4915 175.032 30.8789 172.457 33.573C169.881 36.2671 166.765 37.6141 163.107 37.6141C159.409 37.6141 156.299 36.3001 153.776 33.672C151.267 31.044 150.013 27.6434 150.013 23.4703C150.013 19.2047 151.465 15.7248 154.371 13.0308C156.893 10.6933 159.911 9.52454 163.424 9.52454ZM163.047 10.9706C160.644 10.9706 158.716 11.862 157.263 13.6449C155.454 15.8635 154.549 19.1122 154.549 23.391C154.549 27.7755 155.487 31.1497 157.362 33.5136C158.801 35.3096 160.703 36.2076 163.067 36.2076C165.589 36.2076 167.669 35.2238 169.307 33.256C170.958 31.2883 171.783 28.1849 171.783 23.9457C171.783 19.3499 170.878 15.9229 169.069 13.6647C167.616 11.8686 165.609 10.9706 163.047 10.9706ZM204.914 37H197.743L188.651 24.4409C187.978 24.4673 187.429 24.4805 187.007 24.4805C186.835 24.4805 186.65 24.4805 186.452 24.4805C186.254 24.4673 186.049 24.4541 185.838 24.4409V32.2458C185.838 33.9362 186.023 34.9861 186.393 35.3954C186.895 35.9765 187.647 36.2671 188.651 36.2671H189.701V37H178.192V36.2671H179.202C180.338 36.2671 181.15 35.8973 181.639 35.1577C181.916 34.7483 182.055 33.7777 182.055 32.2458V14.8929C182.055 13.2025 181.87 12.1526 181.5 11.7432C180.985 11.1621 180.219 10.8716 179.202 10.8716H178.192V10.1386H187.978C190.83 10.1386 192.93 10.3499 194.277 10.7725C195.637 11.1819 196.786 11.9479 197.724 13.0704C198.675 14.1797 199.15 15.5069 199.15 17.0521C199.15 18.7028 198.608 20.1357 197.526 21.3507C196.456 22.5656 194.792 23.424 192.534 23.9259L198.08 31.6317C199.348 33.4013 200.438 34.5767 201.349 35.1577C202.26 35.7388 203.449 36.1086 204.914 36.2671V37ZM185.838 23.1929C186.089 23.1929 186.307 23.1995 186.492 23.2127C186.677 23.2127 186.829 23.2127 186.947 23.2127C189.509 23.2127 191.438 22.6581 192.732 21.5488C194.039 20.4394 194.693 19.0264 194.693 17.3096C194.693 15.6324 194.165 14.2722 193.108 13.2289C192.065 12.1724 190.678 11.6441 188.948 11.6441C188.182 11.6441 187.146 11.7696 185.838 12.0205V23.1929ZM212.631 11.6045V22.2223H218.534C220.066 22.2223 221.089 21.9912 221.604 21.529C222.291 20.9215 222.674 19.8518 222.753 18.3199H223.486V27.6698H222.753C222.568 26.3624 222.383 25.5238 222.198 25.1541C221.961 24.6918 221.571 24.3287 221.03 24.0645C220.488 23.8004 219.656 23.6684 218.534 23.6684H212.631V32.5231C212.631 33.7117 212.683 34.438 212.789 34.7021C212.895 34.953 213.08 35.1577 213.344 35.3162C213.608 35.4615 214.11 35.5341 214.849 35.5341H219.405C220.924 35.5341 222.027 35.4285 222.713 35.2172C223.4 35.0059 224.061 34.5899 224.694 33.9692C225.513 33.1504 226.352 31.9156 227.21 30.2648H228.003L225.685 37H204.984V36.2671H205.935C206.569 36.2671 207.17 36.1152 207.738 35.8114C208.16 35.6001 208.444 35.2832 208.589 34.8606C208.748 34.438 208.827 33.573 208.827 32.2656V14.8136C208.827 13.11 208.655 12.0601 208.312 11.6639C207.837 11.1357 207.044 10.8716 205.935 10.8716H204.984V10.1386H225.685L225.982 16.022H225.209C224.932 14.6089 224.622 13.6383 224.278 13.11C223.948 12.5818 223.453 12.179 222.793 11.9016C222.264 11.7036 221.333 11.6045 220 11.6045H212.631ZM279.18 1.18483V2.16209C278.247 2.16209 277.49 2.32937 276.909 2.66392C276.328 2.99848 275.773 3.62357 275.245 4.5392C274.893 5.15549 274.338 6.62578 273.581 8.95007L263.597 37.8188H262.54L254.379 14.9193L246.27 37.8188H245.32L234.675 8.07846C233.883 5.85982 233.381 4.54801 233.17 4.14302C232.818 3.4739 232.333 2.98087 231.717 2.66392C231.119 2.32937 230.3 2.16209 229.261 2.16209V1.18483H242.52V2.16209H241.886C240.953 2.16209 240.24 2.37339 239.747 2.79599C239.254 3.21858 239.007 3.72922 239.007 4.3279C239.007 4.94419 239.394 6.36166 240.169 8.58029L247.221 28.6801L253.164 11.5913L252.108 8.58029L251.262 6.17677C250.893 5.29636 250.479 4.52159 250.021 3.85248C249.792 3.51792 249.51 3.23619 249.176 3.00729C248.736 2.69034 248.295 2.46143 247.855 2.32056C247.521 2.21491 246.992 2.16209 246.27 2.16209V1.18483H260.216V2.16209H259.265C258.279 2.16209 257.557 2.37339 257.099 2.79599C256.642 3.21858 256.413 3.79085 256.413 4.51279C256.413 5.41081 256.809 6.97794 257.601 9.21419L264.469 28.6801L271.283 8.95007C272.058 6.76665 272.445 5.25234 272.445 4.40714C272.445 4.00215 272.313 3.62357 272.049 3.27141C271.802 2.91924 271.485 2.67273 271.098 2.53186C270.429 2.28535 269.557 2.16209 268.483 2.16209V1.18483H279.18ZM297.65 28.0066H287.25L285.427 32.2458C284.978 33.2891 284.754 34.0682 284.754 34.5833C284.754 34.9927 284.945 35.3558 285.328 35.6728C285.724 35.9765 286.57 36.1746 287.864 36.2671V37H279.405V36.2671C280.528 36.069 281.254 35.8114 281.584 35.4945C282.258 34.8606 283.004 33.573 283.823 31.6317L293.272 9.52454H293.965L303.315 31.8694C304.068 33.6654 304.748 34.8342 305.355 35.3756C305.976 35.9039 306.834 36.201 307.931 36.2671V37H297.333V36.2671C298.402 36.2142 299.122 36.0359 299.492 35.7322C299.875 35.4285 300.066 35.0587 300.066 34.6229C300.066 34.0418 299.802 33.124 299.274 31.8694L297.65 28.0066ZM297.095 26.5407L292.539 15.6852L287.864 26.5407H297.095ZM326.958 10.1386L327.255 16.438H326.502C326.357 15.3287 326.159 14.5363 325.908 14.0609C325.499 13.2949 324.95 12.7336 324.264 12.3771C323.59 12.0073 322.699 11.8224 321.59 11.8224H317.806V32.3448C317.806 33.9956 317.984 35.0257 318.341 35.4351C318.843 35.9897 319.615 36.2671 320.658 36.2671H321.59V37H310.199V36.2671H311.15C312.286 36.2671 313.091 35.9237 313.567 35.237C313.857 34.8144 314.003 33.8503 314.003 32.3448V11.8224H310.774C309.519 11.8224 308.628 11.9149 308.099 12.0997C307.413 12.3507 306.825 12.8327 306.336 13.5458C305.848 14.259 305.557 15.223 305.465 16.438H304.712L305.029 10.1386H326.958ZM352.304 9.52454L352.918 18.6566H352.304C351.485 15.9229 350.317 13.9552 348.798 12.7534C347.279 11.5517 345.457 10.9508 343.331 10.9508C341.548 10.9508 339.937 11.4064 338.497 12.3176C337.058 13.2157 335.922 14.6551 335.09 16.6361C334.271 18.617 333.862 21.0799 333.862 24.0249C333.862 26.4549 334.251 28.5612 335.03 30.3441C335.81 32.1269 336.978 33.4938 338.537 34.4446C340.108 35.3954 341.898 35.8709 343.905 35.8709C345.648 35.8709 347.187 35.5011 348.521 34.7616C349.854 34.0088 351.32 32.5231 352.918 30.3045L353.532 30.7007C352.185 33.091 350.614 34.8408 348.818 35.9501C347.022 37.0594 344.889 37.6141 342.419 37.6141C337.969 37.6141 334.522 35.9633 332.079 32.6618C330.256 30.2054 329.345 27.3133 329.345 23.9853C329.345 21.3045 329.946 18.8415 331.148 16.5964C332.35 14.3514 334 12.6148 336.1 11.3866C338.213 10.1452 340.518 9.52454 343.014 9.52454C344.955 9.52454 346.87 9.99996 348.758 10.9508C349.313 11.2413 349.709 11.3866 349.947 11.3866C350.303 11.3866 350.614 11.2611 350.878 11.0102C351.221 10.6537 351.466 10.1584 351.611 9.52454H352.304ZM362.873 22.5987H375.353V14.9127C375.353 13.5392 375.267 12.6346 375.095 12.1988C374.963 11.8686 374.686 11.5847 374.263 11.347C373.695 11.03 373.094 10.8716 372.461 10.8716H371.51V10.1386H382.999V10.8716H382.048C381.414 10.8716 380.813 11.0234 380.246 11.3272C379.823 11.5385 379.532 11.862 379.374 12.2978C379.229 12.7204 379.156 13.592 379.156 14.9127V32.2458C379.156 33.606 379.242 34.504 379.414 34.9398C379.546 35.27 379.816 35.5539 380.226 35.7916C380.807 36.1086 381.414 36.2671 382.048 36.2671H382.999V37H371.51V36.2671H372.461C373.557 36.2671 374.356 35.9435 374.857 35.2964C375.188 34.8738 375.353 33.8569 375.353 32.2458V24.0645H362.873V32.2458C362.873 33.606 362.959 34.504 363.13 34.9398C363.262 35.27 363.54 35.5539 363.962 35.7916C364.53 36.1086 365.131 36.2671 365.765 36.2671H366.736V37H355.226V36.2671H356.177C357.287 36.2671 358.092 35.9435 358.594 35.2964C358.911 34.8738 359.069 33.8569 359.069 32.2458V14.9127C359.069 13.5392 358.984 12.6346 358.812 12.1988C358.68 11.8686 358.409 11.5847 358 11.347C357.419 11.03 356.811 10.8716 356.177 10.8716H355.226V10.1386H366.736V10.8716H365.765C365.131 10.8716 364.53 11.0234 363.962 11.3272C363.553 11.5385 363.269 11.862 363.111 12.2978C362.952 12.7204 362.873 13.592 362.873 14.9127V22.5987ZM391.745 11.6045V22.1629H396.638C397.761 22.1629 398.579 21.9185 399.094 21.4299C399.623 20.9281 399.973 19.9442 400.144 18.4783H400.877V27.5708H400.144C400.131 26.5275 399.992 25.7615 399.728 25.2729C399.477 24.7843 399.121 24.4211 398.659 24.1834C398.21 23.9325 397.536 23.807 396.638 23.807H391.745V32.2458C391.745 33.606 391.831 34.504 392.003 34.9398C392.135 35.27 392.412 35.5539 392.835 35.7916C393.416 36.1086 394.023 36.2671 394.657 36.2671H395.628V37H384.099V36.2671H385.05C386.159 36.2671 386.965 35.9435 387.466 35.2964C387.783 34.8738 387.942 33.8569 387.942 32.2458V14.8929C387.942 13.5326 387.856 12.6346 387.684 12.1988C387.552 11.8686 387.282 11.5847 386.872 11.347C386.304 11.03 385.697 10.8716 385.05 10.8716H384.099V10.1386H404.086L404.344 16.0418H403.651C403.307 14.7872 402.904 13.8694 402.442 13.2883C401.993 12.694 401.432 12.2648 400.758 12.0007C400.098 11.7366 399.068 11.6045 397.668 11.6045H391.745ZM421.172 28.0066H410.772L408.95 32.2458C408.501 33.2891 408.276 34.0682 408.276 34.5833C408.276 34.9927 408.468 35.3558 408.851 35.6728C409.247 35.9765 410.092 36.1746 411.387 36.2671V37H402.928V36.2671C404.05 36.069 404.777 35.8114 405.107 35.4945C405.78 34.8606 406.527 33.573 407.345 31.6317L416.794 9.52454H417.488L426.838 31.8694C427.59 33.6654 428.271 34.8342 428.878 35.3756C429.499 35.9039 430.357 36.201 431.453 36.2671V37H420.855V36.2671C421.925 36.2142 422.645 36.0359 423.015 35.7322C423.398 35.4285 423.589 35.0587 423.589 34.6229C423.589 34.0418 423.325 33.124 422.797 31.8694L421.172 28.0066ZM420.618 26.5407L416.061 15.6852L411.387 26.5407H420.618ZM444.043 36.2671V37H432.533V36.2671H433.484C434.593 36.2671 435.399 35.9435 435.901 35.2964C436.218 34.8738 436.376 33.8569 436.376 32.2458V14.8929C436.376 13.5326 436.29 12.6346 436.119 12.1988C435.987 11.8686 435.716 11.5847 435.307 11.347C434.726 11.03 434.118 10.8716 433.484 10.8716H432.533V10.1386H444.043V10.8716H443.072C441.976 10.8716 441.177 11.1951 440.675 11.8422C440.345 12.2648 440.18 13.2817 440.18 14.8929V32.2458C440.18 33.606 440.266 34.504 440.437 34.9398C440.569 35.27 440.847 35.5539 441.269 35.7916C441.837 36.1086 442.438 36.2671 443.072 36.2671H444.043ZM472.043 37H464.872L455.78 24.4409C455.106 24.4673 454.558 24.4805 454.136 24.4805C453.964 24.4805 453.779 24.4805 453.581 24.4805C453.383 24.4673 453.178 24.4541 452.967 24.4409V32.2458C452.967 33.9362 453.152 34.9861 453.522 35.3954C454.023 35.9765 454.776 36.2671 455.78 36.2671H456.83V37H445.321V36.2671H446.331C447.467 36.2671 448.279 35.8973 448.767 35.1577C449.045 34.7483 449.183 33.7777 449.183 32.2458V14.8929C449.183 13.2025 448.999 12.1526 448.629 11.7432C448.114 11.1621 447.348 10.8716 446.331 10.8716H445.321V10.1386H455.106C457.959 10.1386 460.059 10.3499 461.406 10.7725C462.766 11.1819 463.915 11.9479 464.853 13.0704C465.803 14.1797 466.279 15.5069 466.279 17.0521C466.279 18.7028 465.737 20.1357 464.654 21.3507C463.585 22.5656 461.921 23.424 459.662 23.9259L465.209 31.6317C466.477 33.4013 467.566 34.5767 468.478 35.1577C469.389 35.7388 470.577 36.1086 472.043 36.2671V37ZM452.967 23.1929C453.218 23.1929 453.436 23.1995 453.621 23.2127C453.806 23.2127 453.957 23.2127 454.076 23.2127C456.638 23.2127 458.566 22.6581 459.861 21.5488C461.168 20.4394 461.822 19.0264 461.822 17.3096C461.822 15.6324 461.293 14.2722 460.237 13.2289C459.194 12.1724 457.807 11.6441 456.077 11.6441C455.311 11.6441 454.274 11.7696 452.967 12.0205V23.1929Z" fill="#848A8B"/>
</svg>
