<svg width="86" height="86" viewBox="0 0 86 86" fill="none" xmlns="http://www.w3.org/2000/svg">
    <circle cx="43" cy="43" r="43" fill="#2A7575" fill-opacity="0.3"/>
    <circle cx="43" cy="43" r="34" fill="#2A7575" fill-opacity="0.4"/>
    <circle cx="43" cy="43" r="24" fill="#2A7575"/>
    <path d="M53.2506 49.3284C53.6732 49.6135 54.2507 49.4957 54.4938 49.0475C55.7718 46.691 56.3045 43.9745 56.0037 41.2787C55.6683 38.2717 54.3172 35.4809 52.1857 33.3923C50.0543 31.3038 47.2776 30.0498 44.3391 29.8488C41.6958 29.6681 39.0722 30.3497 36.838 31.7842C36.4202 32.0524 36.3334 32.6156 36.6202 33.0209C36.9176 33.4414 37.5015 33.5302 37.9394 33.2591C39.8215 32.0937 42.0125 31.543 44.2197 31.694C46.7379 31.8662 49.1176 32.9408 50.9442 34.7307C52.7709 36.5206 53.9288 38.9123 54.2162 41.4893C54.4707 43.7704 54.0289 46.0686 52.9636 48.0702C52.7324 48.5045 52.8428 49.0532 53.2506 49.3284Z" fill="white"/>
    <path d="M33.3449 36.7001C32.9038 36.4373 32.3298 36.5892 32.1127 37.0544C31.0494 39.3325 30.667 41.8975 31.025 44.4284C31.4273 47.2733 32.7421 49.9128 34.7615 51.93C36.781 53.9471 39.39 55.2269 42.1765 55.5672C44.6608 55.8706 47.1598 55.4118 49.3596 54.2601C49.8062 54.0262 49.94 53.4622 49.6803 53.0301C49.415 52.5889 48.8413 52.4541 48.3817 52.6861C46.5308 53.6202 44.4423 53.9879 42.3658 53.7344C39.9777 53.4427 37.7418 52.3459 36.0111 50.6172C34.2805 48.8885 33.1537 46.6265 32.8089 44.1884C32.5061 42.0477 32.8214 39.8783 33.7058 37.9452C33.9113 37.4961 33.7692 36.9528 33.3449 36.7001Z" fill="white"/>
    <path d="M31.2656 31.2148L55.0314 54.6311" stroke="white" stroke-width="2" stroke-linecap="round" stroke-linejoin="round"/>
    <path d="M43.5 35.4102V43.0991H48.7425" stroke="white" stroke-width="2" stroke-linecap="round" stroke-linejoin="round"/>
</svg>