<svg width="24" height="24" viewBox="0 0 24 24" fill="none" xmlns="http://www.w3.org/2000/svg">
<g clip-path="url(#clip0_7157_11835)">
<path d="M9.89474 15.5556V8.44444C9.89474 7.97295 10.0722 7.52076 10.388 7.18737C10.7039 6.85397 11.1323 6.66667 11.5789 6.66667H19.1579V5.77778C19.1579 4.8 18.4 4 17.4737 4H5.68421C5.23753 4 4.80914 4.1873 4.49329 4.5207C4.17744 4.8541 4 5.30628 4 5.77778V18.2222C4 18.6937 4.17744 19.1459 4.49329 19.4793C4.80914 19.8127 5.23753 20 5.68421 20H17.4737C18.4 20 19.1579 19.2 19.1579 18.2222V17.3333H11.5789C11.1323 17.3333 10.7039 17.146 10.388 16.8126C10.0722 16.4792 9.89474 16.0271 9.89474 15.5556ZM12.4211 8.44444C11.9579 8.44444 11.5789 8.84444 11.5789 9.33333V14.6667C11.5789 15.1556 11.9579 15.5556 12.4211 15.5556H20V8.44444H12.4211ZM14.9474 13.3333C14.2484 13.3333 13.6842 12.7378 13.6842 12C13.6842 11.2622 14.2484 10.6667 14.9474 10.6667C15.6463 10.6667 16.2105 11.2622 16.2105 12C16.2105 12.7378 15.6463 13.3333 14.9474 13.3333Z" fill="#D8D8D8"/>
</g>
<defs>
<clipPath id="clip0_7157_11835">
<rect width="24" height="24" fill="white"/>
</clipPath>
</defs>
</svg>
