<svg width="24" height="24" viewBox="0 0 24 24" fill="none" xmlns="http://www.w3.org/2000/svg">
<g clip-path="url(#clip0_7157_11809)">
<path d="M11 2.04983V5.06983C7.608 5.55683 5 8.47483 5 11.9998C5 15.8658 8.134 18.9998 12 18.9998C13.572 18.9998 15.024 18.4818 16.192 17.6058L18.329 19.7428C16.605 21.1528 14.4 21.9998 12 21.9998C6.477 21.9998 2 17.5228 2 11.9998C2 6.81483 5.947 2.55083 11 2.04983V2.04983ZM21.95 12.9998C21.75 15.0108 20.956 16.8468 19.743 18.3278L17.606 16.1918C18.293 15.2758 18.759 14.1858 18.929 12.9998H21.951H21.95ZM13.002 2.04983C17.726 2.51883 21.482 6.27583 21.952 10.9998H18.93C18.492 7.93483 16.067 5.50983 13.002 5.07083V2.04883V2.04983Z" fill="#D8D8D8"/>
</g>
<defs>
<clipPath id="clip0_7157_11809">
<rect width="24" height="24" fill="white"/>
</clipPath>
</defs>
</svg>
