<svg width="24" height="24" viewBox="0 0 24 24" fill="none" xmlns="http://www.w3.org/2000/svg">
<g clip-path="url(#clip0_7157_11882)">
<path d="M2.89986 2.29944L21.7049 8.56744C21.8022 8.5997 21.8873 8.66111 21.9485 8.74334C22.0098 8.82557 22.0443 8.92465 22.0473 9.02714C22.0504 9.12964 22.0218 9.2306 21.9656 9.31633C21.9093 9.40207 21.8281 9.46843 21.7329 9.50644L12.9999 12.9994L8.57486 21.8494C8.52983 21.9396 8.45863 22.014 8.37058 22.0629C8.28254 22.1119 8.18176 22.1331 8.08145 22.1238C7.98113 22.1145 7.88597 22.0751 7.80842 22.0108C7.73087 21.9465 7.67456 21.8603 7.64686 21.7634L2.25986 2.91044C2.2349 2.82285 2.23435 2.73011 2.25824 2.64224C2.28214 2.55436 2.32959 2.47467 2.39546 2.41179C2.46133 2.3489 2.54313 2.3052 2.63202 2.2854C2.72091 2.2656 2.81352 2.27045 2.89986 2.29944V2.29944Z" fill="#D8D8D8"/>
</g>
<defs>
<clipPath id="clip0_7157_11882">
<rect width="24" height="24" fill="white"/>
</clipPath>
</defs>
</svg>
