<svg width="23" height="22" viewBox="0 0 23 22" fill="none" xmlns="http://www.w3.org/2000/svg">
<path d="M18.2279 17.7321L19.9959 15.9641L21.7629 17.7321C22.1126 18.0817 22.3508 18.5271 22.4473 19.0121C22.5439 19.4971 22.4944 19.9998 22.3052 20.4566C22.116 20.9135 21.7956 21.304 21.3844 21.5787C20.9733 21.8535 20.4899 22.0001 19.9954 22.0001C19.5009 22.0001 19.0176 21.8535 18.6064 21.5787C18.1953 21.304 17.8749 20.9135 17.6857 20.4566C17.4965 19.9998 17.447 19.4971 17.5435 19.0121C17.6401 18.5271 17.8782 18.0817 18.2279 17.7321ZM7.87794 0.0800781L19.1919 11.3931C19.2849 11.486 19.3587 11.5962 19.409 11.7176C19.4593 11.839 19.4852 11.9692 19.4852 12.1006C19.4852 12.232 19.4593 12.3621 19.409 12.4835C19.3587 12.6049 19.2849 12.7152 19.1919 12.8081L10.7069 21.2931C10.5194 21.4805 10.2651 21.5859 9.99994 21.5859C9.73477 21.5859 9.48046 21.4805 9.29294 21.2931L0.807935 12.8081C0.714959 12.7152 0.6412 12.6049 0.590875 12.4835C0.540551 12.3621 0.514648 12.232 0.514648 12.1006C0.514648 11.9692 0.540551 11.839 0.590875 11.7176C0.6412 11.5962 0.714959 11.486 0.807935 11.3931L8.58594 3.61508L6.46394 1.49408L7.87994 0.0800781H7.87794ZM9.99994 5.03008L2.92894 12.1001H17.0699L9.99994 5.03008Z" fill="white"/>
</svg>
