<svg width="19" height="19" viewBox="0 0 19 19" fill="none" xmlns="http://www.w3.org/2000/svg">
<path d="M0 19C0 17.0803 0.762583 15.2393 2.11999 13.8819C3.47739 12.5245 5.31843 11.7619 7.23809 11.7619C9.15776 11.7619 10.9988 12.5245 12.3562 13.8819C13.7136 15.2393 14.4762 17.0803 14.4762 19H0ZM7.23809 10.8571C4.23881 10.8571 1.80952 8.42786 1.80952 5.42857C1.80952 2.42929 4.23881 0 7.23809 0C10.2374 0 12.6667 2.42929 12.6667 5.42857C12.6667 8.42786 10.2374 10.8571 7.23809 10.8571ZM13.8999 12.8775C15.2838 13.2332 16.5203 14.0164 17.4332 15.1157C18.3462 16.215 18.8891 17.5743 18.9846 19H16.2857C16.2857 16.6386 15.3809 14.4889 13.8999 12.8775ZM12.0695 10.8182C12.8277 10.1401 13.434 9.3094 13.8488 8.38058C14.2635 7.45176 14.4773 6.44578 14.4762 5.42857C14.4781 4.19218 14.1619 2.9761 13.5579 1.89729C14.5826 2.1032 15.5045 2.65762 16.1667 3.46632C16.8289 4.27502 17.1907 5.28809 17.1905 6.33333C17.1907 6.97794 17.0532 7.61516 16.787 8.20228C16.5209 8.78939 16.1324 9.31284 15.6475 9.73754C15.1625 10.1622 14.5924 10.4784 13.9753 10.6648C13.3583 10.8511 12.7085 10.9035 12.0695 10.8182Z" fill="#D8D8D8"/>
</svg>
