<svg width="15" height="15" viewBox="0 0 15 15" fill="none" xmlns="http://www.w3.org/2000/svg">
<path d="M7.08333 0C3.17758 0 0 3.17758 0 7.08333C0 10.9891 3.17758 14.1667 7.08333 14.1667C10.9891 14.1667 14.1667 10.9891 14.1667 7.08333C14.1667 3.17758 10.9891 0 7.08333 0ZM1.41667 7.08333C1.41667 5.77575 1.86575 4.57442 2.61233 3.61463L10.552 11.5543C9.56181 12.3291 8.34066 12.7501 7.08333 12.75C3.95888 12.75 1.41667 10.2078 1.41667 7.08333ZM11.5543 10.552L3.61463 2.61233C4.60491 1.83763 5.82602 1.41671 7.08333 1.41667C10.2078 1.41667 12.75 3.95888 12.75 7.08333C12.7496 8.34059 12.3288 9.5616 11.5543 10.552Z" fill="#FF5555"/>
</svg>
