<svg width="24" height="24" viewBox="0 0 24 24" fill="none" xmlns="http://www.w3.org/2000/svg">
<circle cx="12" cy="12" r="12" transform="rotate(90 12 12)" fill="#112143" fill-opacity="0.48"/>
<circle cx="12" cy="12" r="11.5" transform="rotate(90 12 12)" stroke="#787878" stroke-opacity="0.5"/>
<path d="M12.3536 15.3536C12.1583 15.5488 11.8417 15.5488 11.6464 15.3536L8.46447 12.1716C8.2692 11.9763 8.2692 11.6597 8.46447 11.4645C8.65973 11.2692 8.97631 11.2692 9.17157 11.4645L12 14.2929L14.8284 11.4645C15.0237 11.2692 15.3403 11.2692 15.5355 11.4645C15.7308 11.6597 15.7308 11.9763 15.5355 12.1716L12.3536 15.3536ZM12.5 9L12.5 15L11.5 15L11.5 9L12.5 9Z" fill="white"/>
</svg>
