<svg width="12" height="10" viewBox="0 0 12 10" fill="none" xmlns="http://www.w3.org/2000/svg">
<path d="M2 2.85714L-1.2489e-07 2.85714L-6.24448e-08 1.42857L2 1.42857L2 -4.37114e-07L3.33333 -3.78832e-07L3.33333 4.28571L2 4.28571L2 2.85714ZM10 7.14286L12 7.14286L12 8.57143L10 8.57143L10 10L8.66667 10L8.66667 5.71429L10 5.71429L10 7.14286ZM7.33333 7.14286L7.33333 8.57143L-3.74669e-07 8.57143L-3.12224e-07 7.14286L7.33333 7.14286ZM4.66667 1.42857L12 1.42857L12 2.85714L4.66667 2.85714L4.66667 1.42857Z" fill="#606060"/>
</svg>
