<svg width="34" height="25" viewBox="0 0 34 25" fill="none" xmlns="http://www.w3.org/2000/svg">
<path d="M22.7358 22.4996H26.6735C29.7135 22.4996 32.2008 19.9916 32.2008 16.9263C32.2008 13.8609 29.7135 11.3529 26.6735 11.3529C26.259 5.91894 21.8371 1.59961 16.3099 1.59961C10.7826 1.59961 6.2226 6.05828 5.94624 11.4923C3.59714 12.0496 1.80078 14.2789 1.80078 16.9263C1.80078 19.9916 4.28805 22.4996 7.32805 22.4996H11.1243" stroke="#2FB1DB" stroke-width="2" stroke-linecap="round" stroke-linejoin="round"/>
<path d="M18.0267 16.1589V23.2442C18.0267 23.8822 17.5095 24.3994 16.8715 24.3994C16.2335 24.3994 15.7163 23.8822 15.7163 23.2442V16.1589H12.9586C12.1403 16.1589 11.7048 15.1932 12.2467 14.5799L16.2827 10.012C16.6629 9.58166 17.3352 9.58449 17.7118 10.0181L21.6797 14.5859C22.2139 15.2009 21.7771 16.1589 20.9625 16.1589H18.0267Z" fill="#2FB1DB"/>
</svg>
