<svg width="23" height="23" viewBox="0 0 23 23" fill="none" xmlns="http://www.w3.org/2000/svg">
<g clip-path="url(#clip0_6348_14010)">
<path d="M3.8337 15.3333H19.167V4.79167H3.8337V15.3333ZM12.4587 17.25V19.1667H16.292V21.0833H6.7087V19.1667H10.542V17.25H2.8677C2.74186 17.2492 2.6174 17.2237 2.50146 17.1747C2.38552 17.1258 2.28038 17.0544 2.19206 16.9648C2.10375 16.8751 2.03399 16.7689 1.9868 16.6523C1.9396 16.5356 1.91589 16.4108 1.91703 16.285V3.84004C1.91703 3.30721 2.35307 2.875 2.8677 2.875H20.133C20.6582 2.875 21.0837 3.30529 21.0837 3.84004V16.285C21.0837 16.8178 20.6477 17.25 20.133 17.25H12.4587Z" fill="#A09F9F"/>
</g>
<defs>
<clipPath id="clip0_6348_14010">
<rect width="23" height="23" fill="white"/>
</clipPath>
</defs>
</svg>
