<svg width="30" height="26" viewBox="0 0 30 26" fill="none" xmlns="http://www.w3.org/2000/svg">
<path d="M4.83934 25.75L4.81101 25.7783L4.78126 25.75H2.23834C1.86549 25.7496 1.50805 25.6012 1.24453 25.3375C0.981024 25.0737 0.833008 24.7161 0.833008 24.3432V1.65675C0.8356 1.2847 0.98445 0.928608 1.2474 0.665392C1.51035 0.402175 1.8663 0.252967 2.23834 0.25H27.761C28.5373 0.25 29.1663 0.880417 29.1663 1.65675V24.3432C29.1638 24.7153 29.0149 25.0714 28.7519 25.3346C28.489 25.5978 28.1331 25.747 27.761 25.75H4.83934V25.75ZM26.333 17.25V3.08333H3.66634V22.9167L17.833 8.75L26.333 17.25ZM26.333 21.2563L17.833 12.7563L7.67267 22.9167H26.333V21.2563ZM9.33301 11.5833C8.58156 11.5833 7.86089 11.2848 7.32954 10.7535C6.79819 10.2221 6.49967 9.50145 6.49967 8.75C6.49967 7.99855 6.79819 7.27788 7.32954 6.74653C7.86089 6.21518 8.58156 5.91667 9.33301 5.91667C10.0845 5.91667 10.8051 6.21518 11.3365 6.74653C11.8678 7.27788 12.1663 7.99855 12.1663 8.75C12.1663 9.50145 11.8678 10.2221 11.3365 10.7535C10.8051 11.2848 10.0845 11.5833 9.33301 11.5833Z" fill="#2C79B7"/>
</svg>
