<svg width="19" height="17" viewBox="0 0 19 17" fill="none" xmlns="http://www.w3.org/2000/svg">
<path d="M10.4949 3.74383L14.6257 0.531355C14.7865 0.406419 14.9874 0.344452 15.1906 0.357079C15.3939 0.369705 15.5856 0.456057 15.7297 0.599937L18.2346 3.10401C18.3787 3.24818 18.4652 3.44001 18.4778 3.64346C18.4904 3.84691 18.4283 4.04796 18.3032 4.20885L15.0915 8.33881C15.318 9.26249 15.3316 10.2256 15.1313 11.1553C14.931 12.085 14.5221 12.957 13.9354 13.7055C13.3487 14.454 12.5996 15.0595 11.7447 15.4761C10.8898 15.8926 9.95133 16.1095 9.00029 16.1103C6.07134 16.1103 2.30771 14.8541 0.216797 13.5995C3.54553 11.0904 2.7652 9.57663 3.14407 8.16317C4.02894 4.85954 7.19374 2.93005 10.4949 3.74383ZM13.3494 5.31535C13.4037 5.36805 13.4581 5.42241 13.5108 5.47761L14.4601 6.42605L16.5301 3.76474L15.0698 2.30445L12.4085 4.37444L13.3494 5.31535Z" fill="#A406BE"/>
</svg>
