<svg width="16" height="16" viewBox="0 0 16 16" fill="none" xmlns="http://www.w3.org/2000/svg">
<path d="M10.0897 5.90826V9.25371H6.74419V5.90826H10.0897ZM11.7624 5.90826H15.9442V9.25371H11.7624V5.90826ZM10.0897 15.1083H6.74419V10.9264H10.0897V15.1083ZM11.7624 15.1083V10.9264H15.9442V14.2719C15.9442 14.4937 15.8561 14.7064 15.6992 14.8633C15.5424 15.0201 15.3296 15.1083 15.1078 15.1083H11.7624ZM10.0897 0.0537109V4.23553H6.74419V0.0537109H10.0897ZM11.7624 0.0537109H15.1078C15.3296 0.0537109 15.5424 0.141828 15.6992 0.298676C15.8561 0.455525 15.9442 0.668257 15.9442 0.890075V4.23553H11.7624V0.0537109ZM5.07147 5.90826V9.25371H0.889648V5.90826H5.07147ZM5.07147 15.1083H1.72601C1.50419 15.1083 1.29146 15.0201 1.13461 14.8633C0.977765 14.7064 0.889648 14.4937 0.889648 14.2719V10.9264H5.07147V15.1083ZM5.07147 0.0537109V4.23553H0.889648V0.890075C0.889648 0.668257 0.977765 0.455525 1.13461 0.298676C1.29146 0.141828 1.50419 0.0537109 1.72601 0.0537109H5.07147Z" fill="#6A66D5"/>
</svg>
