<svg width="19" height="19" viewBox="0 0 19 19" fill="none" xmlns="http://www.w3.org/2000/svg">
<path d="M9.41729 18.7809C4.33613 18.7809 0.217285 14.662 0.217285 9.58086C0.217285 4.4997 4.33613 0.380859 9.41729 0.380859C14.4984 0.380859 18.6173 4.4997 18.6173 9.58086C18.6173 14.662 14.4984 18.7809 9.41729 18.7809ZM6.19729 11.4209V13.2609H8.49729V15.1009H10.3373V13.2609H11.2573C11.8673 13.2609 12.4523 13.0185 12.8836 12.5872C13.315 12.1559 13.5573 11.5709 13.5573 10.9609C13.5573 10.3509 13.315 9.76585 12.8836 9.33452C12.4523 8.90318 11.8673 8.66086 11.2573 8.66086H7.57729C7.45529 8.66086 7.33828 8.6124 7.25202 8.52613C7.16575 8.43986 7.11729 8.32286 7.11729 8.20086C7.11729 8.07886 7.16575 7.96186 7.25202 7.87559C7.33828 7.78932 7.45529 7.74086 7.57729 7.74086H12.6373V5.90086H10.3373V4.06086H8.49729V5.90086H7.57729C6.96729 5.90086 6.38227 6.14318 5.95094 6.57451C5.51961 7.00585 5.27729 7.59086 5.27729 8.20086C5.27729 8.81086 5.51961 9.39587 5.95094 9.82721C6.38227 10.2585 6.96729 10.5009 7.57729 10.5009H11.2573C11.3793 10.5009 11.4963 10.5493 11.5826 10.6356C11.6688 10.7219 11.7173 10.8389 11.7173 10.9609C11.7173 11.0829 11.6688 11.1999 11.5826 11.2861C11.4963 11.3724 11.3793 11.4209 11.2573 11.4209H6.19729Z" fill="#FFB23B"/>
</svg>
