<svg width="17" height="16" viewBox="0 0 17 16" fill="none" xmlns="http://www.w3.org/2000/svg">
<path d="M15.2718 1.72644H1.89001V13.4355L9.66151 5.66237C9.81835 5.50557 10.031 5.41749 10.2528 5.41749C10.4746 5.41749 10.6873 5.50557 10.8441 5.66237L15.2718 10.0984V1.72644ZM0.217285 0.88422C0.218816 0.664573 0.306693 0.454344 0.461932 0.298948C0.617172 0.143551 0.827312 0.0554628 1.04696 0.0537109H16.1149C16.5732 0.0537109 16.9446 0.425893 16.9446 0.88422V14.2778C16.943 14.4974 16.8552 14.7076 16.6999 14.863C16.5447 15.0184 16.3345 15.1065 16.1149 15.1083H1.04696C0.826838 15.108 0.61581 15.0204 0.46024 14.8647C0.30467 14.709 0.217285 14.4979 0.217285 14.2778V0.88422ZM5.23547 6.74462C4.79183 6.74462 4.36637 6.56839 4.05267 6.25469C3.73897 5.94099 3.56274 5.51553 3.56274 5.07189C3.56274 4.62826 3.73897 4.20279 4.05267 3.8891C4.36637 3.5754 4.79183 3.39917 5.23547 3.39917C5.6791 3.39917 6.10457 3.5754 6.41827 3.8891C6.73196 4.20279 6.9082 4.62826 6.9082 5.07189C6.9082 5.51553 6.73196 5.94099 6.41827 6.25469C6.10457 6.56839 5.6791 6.74462 5.23547 6.74462Z" fill="#19C659"/>
</svg>
