<svg width="16" height="16" viewBox="0 0 16 16" fill="none" xmlns="http://www.w3.org/2000/svg">
<path d="M7.7 15.4C3.44729 15.4 0 11.9527 0 7.7C0 3.44729 3.44729 0 7.7 0C11.9527 0 15.4 3.44729 15.4 7.7C15.4 11.9527 11.9527 15.4 7.7 15.4ZM5.005 9.24V10.78H6.93V12.32H8.47V10.78H9.24C9.75054 10.78 10.2402 10.5772 10.6012 10.2162C10.9622 9.85517 11.165 9.36554 11.165 8.855C11.165 8.34446 10.9622 7.85483 10.6012 7.49382C10.2402 7.13281 9.75054 6.93 9.24 6.93H6.16C6.05789 6.93 5.95996 6.88944 5.88776 6.81724C5.81556 6.74503 5.775 6.64711 5.775 6.545C5.775 6.44289 5.81556 6.34496 5.88776 6.27276C5.95996 6.20056 6.05789 6.16 6.16 6.16H10.395V4.62H8.47V3.08H6.93V4.62H6.16C5.64946 4.62 5.15983 4.82281 4.79882 5.18382C4.43781 5.54483 4.235 6.03446 4.235 6.545C4.235 7.05554 4.43781 7.54517 4.79882 7.90618C5.15983 8.26719 5.64946 8.47 6.16 8.47H9.24C9.34211 8.47 9.44003 8.51056 9.51224 8.58276C9.58444 8.65496 9.625 8.75289 9.625 8.855C9.625 8.95711 9.58444 9.05503 9.51224 9.12724C9.44003 9.19944 9.34211 9.24 9.24 9.24H5.005Z" fill="#01A862"/>
</svg>
