<svg width="17" height="17" viewBox="0 0 17 17" fill="none" xmlns="http://www.w3.org/2000/svg">
<path d="M0.0537109 16.945C0.0537109 15.255 0.725076 13.6342 1.92011 12.4392C3.11515 11.2441 4.73597 10.5728 6.426 10.5728C8.11604 10.5728 9.73686 11.2441 10.9319 12.4392C12.1269 13.6342 12.7983 15.255 12.7983 16.945H0.0537109ZM6.426 9.77622C3.78549 9.77622 1.64678 7.63752 1.64678 4.99699C1.64678 2.35648 3.78549 0.217773 6.426 0.217773C9.06652 0.217773 11.2052 2.35648 11.2052 4.99699C11.2052 7.63752 9.06652 9.77622 6.426 9.77622ZM12.2909 11.5549C13.5093 11.868 14.5979 12.5576 15.4016 13.5254C16.2054 14.4932 16.6833 15.6898 16.7674 16.945H14.3914C14.3914 14.8661 13.5948 12.9735 12.2909 11.5549ZM10.6795 9.74197C11.347 9.14494 11.8808 8.41361 12.2459 7.59589C12.6111 6.77818 12.7993 5.89253 12.7983 4.99699C12.8 3.9085 12.5216 2.83788 11.9898 1.88811C12.892 2.06939 13.7036 2.5575 14.2866 3.26946C14.8696 3.98143 15.1881 4.87331 15.1879 5.79353C15.1881 6.36104 15.067 6.92203 14.8327 7.43892C14.5985 7.9558 14.2564 8.41664 13.8295 8.79054C13.4025 9.16443 12.9006 9.44275 12.3574 9.60684C11.8141 9.77094 11.242 9.817 10.6795 9.74197Z" fill="#385DFF"/>
</svg>
